<?xml version="1.0" encoding="utf-8"?>
<!-- Generator: Adobe Illustrator 17.1.0, SVG Export Plug-In . SVG Version: 6.00 Build 0)  -->
<!DOCTYPE svg PUBLIC "-//W3C//DTD SVG 1.1//EN" "http://www.w3.org/Graphics/SVG/1.1/DTD/svg11.dtd">
<svg version="1.1" id="Layer_1" xmlns="http://www.w3.org/2000/svg" xmlns:xlink="http://www.w3.org/1999/xlink" x="0px" y="0px"
	 viewBox="0 0 78.727 19.59" enable-background="new 0 0 78.727 19.59" xml:space="preserve">
<g>
	<path fill="#FFFFFF" d="M64.19,8.034l-0.128,0.751l-3.535,0.591l0.243-1.131c0.109-0.498,0.37-0.898,0.778-1.196
		c0.413-0.292,0.871-0.443,1.383-0.443c0.498,0,0.84,0.126,1.024,0.366C64.14,7.215,64.219,7.57,64.19,8.034 M65.582,7.07
		c-0.07-0.355-0.206-0.654-0.414-0.905c-0.209-0.252-0.478-0.442-0.814-0.574c-0.334-0.131-0.723-0.199-1.16-0.199
		c-0.461,0-0.903,0.068-1.32,0.199c-0.417,0.133-0.792,0.321-1.119,0.568C60.427,6.4,60.149,6.7,59.913,7.049
		c-0.231,0.359-0.396,0.756-0.492,1.196l-0.642,2.959c-0.218,1.008-0.085,1.772,0.405,2.291c0.491,0.516,1.264,0.777,2.322,0.777
		c0.561,0,1.094-0.084,1.595-0.255c0.503-0.165,1.009-0.454,1.507-0.861l-0.564-0.922c-0.42,0.313-0.803,0.527-1.153,0.645
		c-0.346,0.117-0.703,0.172-1.066,0.172c-0.62,0-1.089-0.159-1.41-0.476c-0.32-0.321-0.415-0.776-0.286-1.37l0.185-0.852
		l4.952-0.818l0.279-1.289C65.638,7.817,65.655,7.425,65.582,7.07"/>
	<path fill="#FFFFFF" d="M45.508,8.034l-0.124,0.751l-3.54,0.591l0.247-1.131c0.106-0.498,0.367-0.898,0.777-1.196
		c0.412-0.292,0.871-0.443,1.383-0.443c0.5,0,0.839,0.126,1.025,0.366C45.459,7.215,45.536,7.57,45.508,8.034 M46.903,7.07
		c-0.069-0.355-0.208-0.654-0.415-0.905c-0.207-0.252-0.476-0.442-0.814-0.574c-0.337-0.131-0.722-0.199-1.161-0.199
		c-0.463,0-0.899,0.068-1.32,0.199c-0.418,0.133-0.791,0.321-1.12,0.568C41.747,6.4,41.465,6.7,41.233,7.049
		c-0.232,0.359-0.397,0.756-0.492,1.196L40.1,11.204c-0.22,1.008-0.086,1.772,0.407,2.291c0.488,0.516,1.262,0.777,2.318,0.777
		c0.559,0,1.09-0.084,1.598-0.255c0.503-0.165,1.005-0.454,1.506-0.861l-0.564-0.922c-0.421,0.313-0.806,0.527-1.15,0.645
		c-0.349,0.117-0.704,0.172-1.069,0.172c-0.621,0-1.091-0.159-1.41-0.476c-0.32-0.321-0.417-0.776-0.289-1.37l0.186-0.852
		l4.954-0.818l0.281-1.289C46.962,7.817,46.97,7.425,46.903,7.07"/>
	<path fill="#FFFFFF" d="M33.008,11.397c-0.053,0.242-0.147,0.469-0.284,0.673c-0.13,0.199-0.297,0.376-0.495,0.531
		c-0.197,0.148-0.411,0.269-0.641,0.355c-0.232,0.089-0.47,0.133-0.713,0.133c-0.416,0-0.739-0.086-0.969-0.249
		c-0.232-0.162-0.306-0.44-0.221-0.834l0.305-1.41l3.33-0.643L33.008,11.397z M34.894,6.028c-0.339-0.426-0.985-0.636-1.931-0.636
		c-0.234,0-0.495,0.027-0.786,0.092c-0.294,0.065-0.59,0.147-0.885,0.248c-0.293,0.094-0.579,0.207-0.855,0.329
		c-0.275,0.123-0.51,0.239-0.705,0.356l0.286,1.029c0.166-0.095,0.364-0.192,0.595-0.301c0.228-0.1,0.468-0.198,0.708-0.284
		c0.246-0.086,0.478-0.158,0.704-0.208c0.223-0.053,0.413-0.079,0.574-0.079c0.557,0,0.921,0.105,1.086,0.313
		c0.168,0.208,0.194,0.589,0.075,1.132l-0.194,0.903l-4.798,0.927l-0.473,2.193c-0.161,0.74-0.059,1.298,0.313,1.661
		c0.372,0.367,0.945,0.55,1.723,0.55c0.498,0,0.959-0.123,1.386-0.375c0.423-0.249,0.79-0.56,1.102-0.928l-0.157,1.146h1.131
		l1.316-6.077C35.305,7.113,35.234,6.45,34.894,6.028"/>
	<path fill="#FFFFFF" d="M15,8.238l-0.687,3.167c-0.122,0.556-0.368,0.966-0.741,1.242c-0.376,0.27-0.841,0.404-1.4,0.404
		c-0.559,0-0.979-0.172-1.255-0.519c-0.279-0.344-0.358-0.795-0.236-1.352l0.592-2.74c0.114-0.528,0.388-0.964,0.816-1.315
		c0.424-0.343,0.914-0.52,1.46-0.52c0.57,0,0.984,0.14,1.244,0.411C15.05,7.288,15.118,7.695,15,8.238 M16.169,6.086
		c-0.355-0.464-1.013-0.694-1.974-0.694c-0.499,0-0.982,0.109-1.45,0.34c-0.468,0.225-0.865,0.539-1.199,0.947l0.114-1.115h-1.149
		L7.344,19.59h1.402l1.512-6.381c0.146,0.391,0.401,0.664,0.761,0.823c0.359,0.157,0.766,0.239,1.216,0.239
		c0.935,0,1.695-0.246,2.283-0.74c0.588-0.495,0.981-1.197,1.18-2.118l0.698-3.223C16.6,7.254,16.525,6.553,16.169,6.086"/>
	<path fill="#FFFFFF" d="M56.626,5.392c-0.512,0-1.003,0.123-1.478,0.374c-0.473,0.248-0.859,0.582-1.154,0.998
		c-0.082-0.521-0.274-0.883-0.579-1.076c-0.302-0.201-0.745-0.297-1.33-0.297c-0.523,0-0.995,0.127-1.414,0.383
		c-0.419,0.254-0.797,0.59-1.127,1.008l0.189-1.219h-1.241l-1.85,8.533h1.408l1.119-5.174c0.058-0.254,0.158-0.521,0.312-0.797
		c0.151-0.281,0.333-0.532,0.548-0.761c0.21-0.222,0.449-0.41,0.715-0.564c0.261-0.148,0.527-0.225,0.796-0.225
		c0.521,0,0.841,0.146,0.961,0.438c0.118,0.289,0.126,0.682,0.018,1.178l-1.278,5.906h1.402l1.162-5.364
		c0.063-0.278,0.165-0.546,0.311-0.8c0.147-0.254,0.321-0.482,0.521-0.678c0.201-0.198,0.43-0.354,0.688-0.471
		c0.254-0.115,0.514-0.177,0.786-0.177c0.52,0,0.856,0.118,1.004,0.349c0.151,0.235,0.173,0.593,0.067,1.08l-1.312,6.062h1.385
		l1.353-6.234c0.187-0.873,0.133-1.496-0.165-1.889C58.144,5.587,57.536,5.392,56.626,5.392"/>
	<path fill="#FFFFFF" d="M38.661,12.902c-0.239,0.054-0.478,0.081-0.722,0.081c-0.218,0-0.385-0.09-0.506-0.271
		c-0.119-0.18-0.141-0.443-0.068-0.776l1.159-5.342h2.277l0.22-1.03h-2.274l0.389-1.747h-1.371l-0.386,1.747h-1.405l-0.22,1.03
		h1.384l-1.183,5.463c-0.157,0.722-0.12,1.258,0.116,1.613c0.233,0.355,0.732,0.531,1.499,0.531c0.328,0,0.673-0.058,1.041-0.176
		c0.364-0.111,0.702-0.241,1.013-0.381l-0.089-1.025C39.188,12.754,38.895,12.853,38.661,12.902"/>
	<path fill="#FFFFFF" d="M77.078,12.618c-0.347,0.136-0.638,0.233-0.874,0.284c-0.239,0.054-0.479,0.08-0.718,0.08
		c-0.222,0-0.389-0.09-0.509-0.27c-0.118-0.18-0.142-0.443-0.07-0.777l1.16-5.341h2.438l0.222-1.03h-2.438l0.388-1.745h-1.369
		l-0.385,1.745h-1.076l-0.225,1.03h1.061l-1.185,5.463c-0.156,0.722-0.119,1.258,0.116,1.613c0.233,0.355,0.734,0.531,1.498,0.531
		c0.329,0,0.675-0.058,1.039-0.176c0.365-0.111,0.702-0.242,1.014-0.381L77.078,12.618z"/>
	<path fill="#FFFFFF" d="M70.971,5.374c-0.584,0-1.075,0.111-1.473,0.329c-0.404,0.223-0.802,0.552-1.204,0.994l0.155-1.133h-1.277
		l-1.85,8.533h1.388l1.137-5.246c0.059-0.267,0.174-0.536,0.345-0.803c0.172-0.264,0.38-0.507,0.625-0.726
		c0.239-0.221,0.507-0.398,0.797-0.528c0.291-0.135,0.575-0.2,0.855-0.2c0.558,0,0.913,0.157,1.062,0.476
		c0.15,0.319,0.167,0.742,0.053,1.276l-1.248,5.75h1.387l1.283-5.919c0.195-0.906,0.143-1.599-0.16-2.08
		C72.544,5.617,71.92,5.374,70.971,5.374"/>
	<path fill="#FFFFFF" d="M6.712,10.698c-0.171,0.782-0.545,1.366-1.121,1.762c-0.578,0.392-1.237,0.59-1.98,0.59
		c-0.362,0-0.695-0.039-0.992-0.132c-0.3-0.084-0.545-0.221-0.741-0.406c-0.196-0.185-0.334-0.432-0.408-0.731
		c-0.072-0.3-0.066-0.66,0.026-1.083l1.75-8.081H1.861l-1.75,8.081c-0.241,1.107-0.087,1.977,0.452,2.614
		c0.542,0.638,1.472,0.959,2.784,0.959c0.561,0,1.098-0.072,1.613-0.212c0.519-0.139,0.982-0.358,1.4-0.652
		c0.418-0.295,0.775-0.664,1.08-1.114c0.306-0.445,0.519-0.975,0.655-1.595l1.752-8.081H8.461L6.712,10.698z"/>
	<path fill="#FFFFFF" d="M26.256,12.902c-0.236,0.054-0.476,0.081-0.72,0.081c-0.217,0-0.388-0.09-0.506-0.271
		c-0.119-0.18-0.141-0.443-0.07-0.776l1.159-5.342h2.52l0.221-1.03h-2.519l0.555-2.56h-0.008c0.204-0.949,0.042-1.732-0.41-2.251
		C26.023,0.227,25.319,0,24.586,0c-0.869,0-1.809,0.306-2.617,0.873C21.162,1.435,20.486,2.3,20.267,3.33
		c-0.152,0.712-0.093,1.362,0.214,2.062c-0.016,0-0.027,0-0.045,0c-0.851,0-1.556,0.205-2.122,0.622
		c-0.564,0.42-0.925,0.991-1.08,1.709c-0.075,0.345-0.085,0.644-0.026,0.889c0.055,0.239,0.162,0.461,0.315,0.649
		c0.15,0.197,0.347,0.374,0.586,0.538c0.236,0.157,0.5,0.333,0.786,0.519c0.227,0.15,0.435,0.282,0.637,0.401
		c0.198,0.114,0.366,0.227,0.499,0.336c0.135,0.114,0.23,0.239,0.292,0.376c0.063,0.139,0.068,0.308,0.026,0.506
		c-0.102,0.476-0.305,0.793-0.609,0.951c-0.298,0.158-0.692,0.235-1.179,0.235c-0.316,0-0.641-0.076-0.97-0.229
		c-0.335-0.148-0.617-0.436-0.853-0.867l-1.026,0.867c0.255,0.443,0.592,0.785,0.999,1.022c0.412,0.237,0.939,0.357,1.585,0.357
		c0.835,0,1.573-0.201,2.204-0.602c0.635-0.399,1.047-1.03,1.231-1.888c0.077-0.351,0.092-0.642,0.048-0.88
		c-0.049-0.239-0.147-0.446-0.299-0.625c-0.148-0.183-0.345-0.35-0.587-0.502c-0.24-0.147-0.517-0.316-0.818-0.5
		c-0.157-0.106-0.335-0.209-0.527-0.316c-0.189-0.106-0.364-0.211-0.522-0.329c-0.158-0.119-0.282-0.246-0.372-0.392
		c-0.094-0.145-0.115-0.315-0.072-0.513c0.086-0.408,0.276-0.702,0.563-0.878c0.29-0.181,0.653-0.271,1.088-0.271
		c0.317,0,0.603,0.086,0.867,0.253c0.265,0.168,0.472,0.357,0.632,0.566l0.964-0.891c-0.069-0.093-0.152-0.185-0.242-0.277
		c-0.119-0.15-0.226-0.286-0.318-0.423l-0.004,0.002c-1.206-1.682-1.547-3.3,0.335-4.292c1.314-0.693,2.207-0.374,2.666,0.011
		c0,0.002,0.003,0.006,0.004,0.006c0.02,0.016,0.039,0.035,0.059,0.048c0.044,0.037,0.092,0.073,0.129,0.115
		c0.214,0.253,0.338,0.648,0.192,1.343l-0.03,0.15h0.004l-0.517,2.38h-1.405l-0.222,1.03h1.385l-1.184,5.463
		c-0.157,0.722-0.117,1.258,0.115,1.613c0.235,0.355,0.732,0.531,1.499,0.531c0.329,0,0.675-0.058,1.042-0.176
		c0.364-0.111,0.701-0.241,1.01-0.381l-0.087-1.025C26.783,12.754,26.493,12.853,26.256,12.902"/>
</g>
</svg>
