<?xml version="1.0" encoding="utf-8"?>
<!-- Generator: Adobe Illustrator 17.1.0, SVG Export Plug-In . SVG Version: 6.00 Build 0)  -->
<!DOCTYPE svg PUBLIC "-//W3C//DTD SVG 1.1//EN" "http://www.w3.org/Graphics/SVG/1.1/DTD/svg11.dtd">
<svg version="1.1" id="Layer_1" xmlns="http://www.w3.org/2000/svg" xmlns:xlink="http://www.w3.org/1999/xlink" x="0px" y="0px"
	 viewBox="-54.2 -135.2 852.1 693.1" enable-background="new -54.2 -135.2 852.1 693.1" xml:space="preserve">
<g id="Layer_2" display="none">
</g>
<g id="Layer_1_1_">
	<path fill="#494949" d="M524.8,405V4.6c0-6.5-5.3-11.8-11.8-11.8H234.4c-6.5,0-11.8,5.3-11.8,11.8V405c0,6.5,5.3,11.8,11.8,11.8
		H513C519.5,416.8,524.8,411.5,524.8,405z"/>
	<rect x="239" y="48.9" width="270.5" height="302.9"/>
	<path fill="#FFFFFF" d="M398.3,231c-1.5,0.3-2.9,0.5-4.5,0.5c-1.4,0-2.4-0.5-3.2-1.7c-0.8-1.1-0.9-2.7-0.4-4.8l7.2-33.2H413
		l1.4-6.3h-15.6l3.4-15.9h-0.1c1.3-5.9,0.3-10.7-2.6-14s-7.2-4.7-11.7-4.7c-5.4,0-11.2,1.9-16.2,5.4c-5,3.5-9.2,8.8-10.5,15.3
		c-0.9,4.5-0.6,8.4,1.3,12.8c-0.1,0-0.2,0-0.3,0c-5.3,0-9.7,1.3-13.2,3.9c-3.5,2.6-5.7,6.2-6.7,10.6c-0.4,2.1-0.5,4-0.2,5.5
		c0.3,1.5,1,2.8,2,4c0.9,1.2,2.1,2.3,3.6,3.3c1.5,1,3.1,2.1,4.9,3.3c1.4,0.9,2.7,1.7,3.9,2.5c1.2,0.7,2.2,1.4,3.1,2.1
		c0.9,0.7,1.5,1.5,1.8,2.3c0.3,0.9,0.4,1.9,0.2,3.2c-0.6,2.9-1.9,4.9-3.8,5.9c-1.9,0.9-4.3,1.5-7.3,1.5c-2,0-3.9-0.4-6-1.5
		c-2.1-0.9-3.9-2.7-5.3-5.4l-6.3,5.4c1.5,2.7,3.7,4.9,6.2,6.3c2.6,1.5,5.8,2.2,9.9,2.2c5.1,0,9.8-1.2,13.7-3.7
		c3.9-2.5,6.5-6.4,7.6-11.7c0.5-2.1,0.6-4,0.3-5.5c-0.3-1.5-0.9-2.7-1.9-3.9c-0.9-1.1-2.1-2.1-3.6-3.1c-1.5-0.9-3.2-2-5.1-3.1
		c-0.9-0.7-2.1-1.3-3.3-2c-1.2-0.7-2.2-1.3-3.3-2.1c-0.9-0.8-1.7-1.5-2.3-2.4c-0.6-0.9-0.7-2-0.4-3.2c0.5-2.6,1.7-4.4,3.5-5.5
		c1.8-1.1,4-1.7,6.8-1.7c2,0,3.8,0.5,5.4,1.5c1.6,1,2.9,2.2,3.9,3.5l6-5.5c-0.4-0.6-0.9-1.1-1.5-1.7c-0.8-0.9-1.4-1.8-2-2.7l0,0
		c-7.5-10.5-9.6-20.5,2.1-26.7c8.1-4.3,13.7-2.3,16.5,0.1l0,0c0.1,0.1,0.3,0.3,0.3,0.3c0.3,0.3,0.6,0.4,0.8,0.7
		c1.3,1.5,2.1,4,1.2,8.3l-0.2,0.9l0,0l-3.2,14.7h-8.7l-1.4,6.3h8.6l-7.4,33.9c-0.9,4.5-0.8,7.8,0.7,10c1.5,2.2,4.5,3.3,9.3,3.3
		c2.1,0,4.2-0.3,6.4-1.1c2.2-0.7,4.4-1.5,6.3-2.4l-0.5-6.3C401.5,230.1,399.7,230.7,398.3,231"/>
	<rect x="350.5" y="19" width="63.9" height="6.5"/>
	<rect x="350.5" y="381.2" width="63.9" height="6.5"/>
</g>
</svg>
