<?xml version="1.0" encoding="utf-8"?>
<!-- Generator: Adobe Illustrator 17.1.0, SVG Export Plug-In . SVG Version: 6.00 Build 0)  -->
<!DOCTYPE svg PUBLIC "-//W3C//DTD SVG 1.1//EN" "http://www.w3.org/Graphics/SVG/1.1/DTD/svg11.dtd">
<svg version="1.1" id="Layer_1" xmlns="http://www.w3.org/2000/svg" xmlns:xlink="http://www.w3.org/1999/xlink" x="0px" y="0px"
	 viewBox="-54.2 -135.2 852.1 693.1" enable-background="new -54.2 -135.2 852.1 693.1" xml:space="preserve">
<g id="Layer_2" display="none">
</g>
<g id="Layer_1_1_">
	<path fill="#2B2B2B" d="M669.6,378.8c0,24.5-4.2,44.2-9.4,44.2H83.3c-5.2,0-9.4-19.8-9.4-44.2"/>
	<path fill="#494949" d="M608.8,298.9H134.6c-5.2,0-9.4-4.2-9.4-9.4V-3.1c0-5.2,4.2-9.4,9.4-9.4h474.2c5.2,0,9.4,4.2,9.4,9.4v292.6
		C618.3,294.7,614,298.9,608.8,298.9z"/>
	<path fill="#464747" d="M664.8,383h-586c-4.4,0-7.2-4.8-4.8-8.6l49.7-80.7c1-1.7,2.8-2.7,4.8-2.7h486.8c2,0,3.8,1,4.8,2.7
		l49.7,80.7C671.9,378.1,669.2,383,664.8,383z"/>
	<rect x="136.9" y="0.6" width="469.4" height="281.9"/>
	<path d="M604.4,332.6H135c-1.6,0-2.6-1.7-1.7-3.2l18.2-29.5c0.4-0.6,1-1,1.7-1h433.1c0.7,0,1.4,0.4,1.7,1l18.2,29.5
		C607,330.9,606,332.6,604.4,332.6z"/>
	<circle fill="#ED0C42" cx="369.7" cy="315.8" r="5.3"/>
	<g>
		<path fill="#FFFFFF" d="M431.4,127.1c-1.7,0-3.3,0.4-4.8,1.2c-1.5,0.9-2.8,1.9-3.8,3.2c-0.2-1.7-0.9-2.8-1.9-3.6
			c-1-0.6-2.5-1-4.3-1c-1.7,0-3.2,0.4-4.6,1.2c-1.4,0.9-2.6,2-3.7,3.3l0.6-4h-4.1l-6.1,27.9h4.6l3.7-16.9c0.1-0.9,0.5-1.7,1-2.6
			c0.5-0.9,1.1-1.7,1.7-2.5c0.7-0.7,1.5-1.4,2.3-1.9c0.9-0.5,1.7-0.7,2.6-0.7c1.7,0,2.7,0.5,3.1,1.5c0.4,1,0.4,2.2,0.1,3.8
			l-4.2,19.3h4.6l3.8-17.5c0.2-0.9,0.5-1.7,1-2.6c0.5-0.9,1-1.6,1.7-2.2c0.6-0.6,1.4-1.1,2.2-1.5c0.9-0.4,1.7-0.6,2.6-0.6
			c1.7,0,2.8,0.4,3.3,1.1c0.5,0.7,0.6,2,0.2,3.6l-4.3,19.8h4.6l4.4-20.4c0.6-2.8,0.5-4.9-0.5-6.2
			C436.4,127.7,434.4,127.1,431.4,127.1 M372.8,151.6c-0.7,0.1-1.6,0.2-2.3,0.2c-0.7,0-1.2-0.2-1.6-0.9c-0.4-0.6-0.5-1.5-0.2-2.6
			l3.8-17.4h6.4l0.7-3.3h-6.4l1.9-8.4h-4.4l-1.9,8.4h-4.6l-0.7,3.3h4.6l-3.8,17.9c-0.5,2.3-0.4,4.1,0.4,5.3c0.7,1.1,2.3,1.7,4.9,1.7
			c1.1,0,2.2-0.2,3.5-0.6c1.2-0.4,2.3-0.7,3.3-1.2l-0.2-3.3C374.5,151.1,373.5,151.4,372.8,151.6 M384,136.4c0.4-1.6,1.2-3,2.6-4
			c1.4-1,2.8-1.5,4.6-1.5c1.6,0,2.7,0.4,3.3,1.2c0.6,0.7,0.9,2,0.7,3.5l-0.4,2.5l-11.6,2L384,136.4z M390.9,151.4
			c-1.1,0.4-2.3,0.6-3.5,0.6c-2,0-3.6-0.5-4.6-1.6c-1-1-1.4-2.5-1-4.4l0.6-2.8l16.2-2.7l0.9-4.2c0.2-1.4,0.4-2.7,0.1-3.8
			c-0.2-1.1-0.7-2.1-1.4-3c-0.6-0.9-1.6-1.5-2.6-1.9c-1.1-0.4-2.3-0.6-3.8-0.6s-3,0.2-4.3,0.6c-1.4,0.5-2.6,1.1-3.7,1.9
			s-2,1.7-2.7,3c-0.7,1.1-1.4,2.5-1.6,4l-2.1,9.6c-0.7,3.3-0.2,5.8,1.4,7.4c1.6,1.7,4.1,2.6,7.5,2.6c1.9,0,3.6-0.2,5.2-0.9
			c1.6-0.5,3.3-1.5,4.9-2.8l-1.9-3C393.3,150.4,392,151.1,390.9,151.4 M499.6,150.7c-1.1,0.5-2.1,0.7-2.8,1
			c-0.7,0.1-1.6,0.2-2.3,0.2c-0.7,0-1.2-0.2-1.6-0.9c-0.4-0.6-0.5-1.5-0.2-2.6l3.8-17.4h6.4l0.7-3.3h-6.4l1.9-8.4h-4.4l-1.9,8.4
			h-4.6l-0.7,3.3h4.6l-3.8,17.9c-0.5,2.3-0.4,4.1,0.4,5.3c0.7,1.1,2.3,1.7,4.9,1.7c1.1,0,2.2-0.2,3.3-0.6c1.2-0.4,2.3-0.7,3.3-1.2
			L499.6,150.7z M445,136.4c0.4-1.6,1.2-3,2.6-4s2.8-1.5,4.6-1.5c1.6,0,2.7,0.4,3.3,1.2c0.6,0.7,0.9,2,0.7,3.5l-0.4,2.5l-11.6,2
			L445,136.4z M451.9,151.4c-1.1,0.4-2.3,0.6-3.5,0.6c-2,0-3.6-0.5-4.6-1.6c-1-1-1.4-2.5-1-4.4l0.6-2.8l16.2-2.7l0.9-4.2
			c0.2-1.4,0.4-2.7,0.1-3.8c-0.2-1.1-0.6-2.1-1.4-3c-0.7-0.9-1.6-1.5-2.7-1.9c-1.1-0.4-2.3-0.6-3.8-0.6s-3,0.2-4.3,0.6
			c-1.4,0.5-2.6,1.1-3.7,1.9s-2,1.7-2.7,3c-0.7,1.1-1.2,2.5-1.6,4l-2.1,9.6c-0.7,3.3-0.2,5.8,1.4,7.4c1.6,1.7,4.1,2.6,7.5,2.6
			c1.9,0,3.6-0.2,5.2-0.9c1.6-0.5,3.3-1.5,4.9-2.8l-1.9-3C454.3,150.4,453.1,151.1,451.9,151.4 M478.3,127c-1.9,0-3.5,0.4-4.8,1.1
			c-1.4,0.7-2.6,1.9-4,3.2l0.5-3.7h-4.2l-6.1,27.9h4.6l3.7-17.2c0.2-0.9,0.6-1.7,1.1-2.6c0.6-0.9,1.2-1.6,2.1-2.3
			c0.7-0.7,1.6-1.2,2.6-1.7c1-0.5,1.9-0.6,2.8-0.6c1.9,0,3,0.5,3.5,1.6c0.5,1,0.5,2.5,0.1,4.2l-4.1,18.8h4.6l4.2-19.4
			c0.6-3,0.5-5.2-0.5-6.8C483.4,127.7,481.3,127,478.3,127 M354.4,146.6c-0.1,0.7-0.5,1.5-0.9,2.2c-0.5,0.6-1,1.2-1.6,1.7
			c-0.6,0.5-1.4,0.9-2.1,1.1c-0.7,0.2-1.5,0.4-2.3,0.4c-1.4,0-2.3-0.2-3.2-0.9c-0.7-0.5-1-1.5-0.7-2.7l1-4.6l10.9-2.1L354.4,146.6z
			 M354.2,127.1c-0.7,0-1.6,0.1-2.6,0.2c-1,0.2-2,0.5-2.8,0.9c-1,0.4-1.9,0.7-2.8,1.1c-0.9,0.4-1.7,0.7-2.3,1.1l1,3.3
			c0.5-0.2,1.2-0.6,2-1c0.7-0.4,1.5-0.6,2.3-1c0.7-0.2,1.6-0.5,2.3-0.6c0.7-0.1,1.4-0.2,1.9-0.2c1.9,0,3,0.4,3.6,1
			c0.5,0.7,0.6,2,0.2,3.7l-0.6,3l-15.7,3l-1.6,7.2c-0.5,2.5-0.2,4.2,1,5.4c1.2,1.2,3.1,1.9,5.7,1.9c1.6,0,3.1-0.4,4.6-1.2
			c1.4-0.9,2.6-1.9,3.6-3.1l-0.5,3.7h3.7l4.3-19.9c0.6-3,0.4-5.1-0.7-6.5C359.4,127.7,357.3,127.1,354.2,127.1 M293.3,146.7
			c-0.4,1.9-1.2,3.2-2.5,4.1c-1.2,0.9-2.7,1.4-4.6,1.4c-1.9,0-3.2-0.6-4.1-1.7c-0.9-1.1-1.1-2.6-0.7-4.4l2-8.9
			c0.4-1.7,1.2-3.2,2.7-4.3c1.4-1.1,3-1.7,4.8-1.7s3.2,0.5,4.1,1.4c0.9,0.9,1.1,2.2,0.6,4L293.3,146.7z M292.8,127.1
			c-1.6,0-3.2,0.4-4.7,1.1c-1.5,0.7-2.8,1.7-4,3.1l0.4-3.6h-3.7l-10,46h4.6l4.6-21c0.5,1.2,1.4,2.2,2.5,2.7c1.2,0.5,2.5,0.7,4,0.7
			c3.1,0,5.6-0.9,7.4-2.5c2-1.6,3.2-4,3.8-6.9l2.2-10.5c0.6-3.1,0.4-5.3-0.7-6.9C298.2,127.8,296.1,127.1,292.8,127.1 M268.5,144.4
			c-0.5,2.6-1.7,4.4-3.7,5.8c-1.9,1.2-4.1,2-6.4,2c-1.2,0-2.2-0.1-3.2-0.4c-1-0.2-1.7-0.7-2.5-1.4c-0.6-0.6-1.1-1.4-1.4-2.3
			c-0.2-1-0.2-2.2,0.1-3.6l5.7-26.4h-4.6l-5.7,26.4c-0.7,3.6-0.2,6.4,1.5,8.5c1.7,2.1,4.8,3.1,9.1,3.1c1.9,0,3.6-0.2,5.3-0.7
			c1.7-0.5,3.2-1.1,4.6-2.1c1.4-1,2.6-2.2,3.6-3.6c1-1.5,1.7-3.2,2.1-5.2l5.7-26.4h-4.6L268.5,144.4z M332.2,151.6
			c-0.7,0.1-1.6,0.2-2.3,0.2c-0.7,0-1.2-0.2-1.6-0.9s-0.5-1.5-0.2-2.6l3.8-17.4h6.4l0.7-3.3h-6.4l1.9-8.4l0,0
			c0.6-3.1,0.1-5.7-1.4-7.3c-1.5-1.7-3.8-2.5-6.2-2.5c-2.8,0-5.9,1-8.5,2.8c-2.6,1.9-4.8,4.7-5.6,8c-0.5,2.3-0.2,4.4,0.7,6.8h-0.1
			c-2.7,0-5.1,0.7-6.9,2.1c-1.9,1.4-3,3.2-3.6,5.6c-0.2,1.1-0.2,2.1-0.1,2.8s0.5,1.5,1,2.1c0.5,0.6,1.1,1.2,1.9,1.7
			c0.7,0.5,1.6,1.1,2.6,1.7c0.7,0.5,1.4,0.9,2.1,1.4c0.6,0.4,1.2,0.7,1.6,1.1c0.5,0.4,0.7,0.7,1,1.2c0.2,0.5,0.2,1,0.1,1.6
			c-0.4,1.6-1,2.6-2,3.1c-1,0.5-2.2,0.7-3.8,0.7c-1,0-2.1-0.2-3.2-0.7c-1.1-0.5-2-1.5-2.7-2.8l-3.3,2.8c0.9,1.5,2,2.6,3.2,3.3
			c1.4,0.7,3.1,1.1,5.2,1.1c2.7,0,5.2-0.6,7.2-2c2.1-1.4,3.5-3.3,4.1-6.2c0.2-1.1,0.2-2.1,0.1-2.8s-0.5-1.5-1-2.1s-1.1-1.1-2-1.6
			c-0.7-0.5-1.7-1-2.7-1.6c-0.5-0.4-1.1-0.7-1.7-1c-0.6-0.4-1.2-0.7-1.7-1.1c-0.5-0.4-0.9-0.9-1.2-1.2c-0.2-0.5-0.4-1-0.2-1.7
			c0.2-1.4,0.9-2.2,1.9-2.8c1-0.6,2.1-0.9,3.6-0.9c1,0,2,0.2,2.8,0.9c0.9,0.5,1.5,1.1,2.1,1.9l3.1-2.8c-0.2-0.2-0.5-0.6-0.7-0.9
			c-0.4-0.5-0.7-1-1-1.4l0,0c-4-5.4-5.1-10.7,1.1-14.1c4.3-2.2,7.2-1.2,8.8,0l0,0c0.1,0,0.1,0.1,0.1,0.1c0.1,0.1,0.2,0.2,0.4,0.4
			c0.7,0.9,1.1,2.1,0.6,4.4l-0.1,0.5l0,0l-1.7,7.8h-4.6l-0.7,3.3h4.6l-3.8,17.9c-0.5,2.3-0.4,4.1,0.4,5.3c0.7,1.1,2.3,1.7,4.9,1.7
			c1.1,0,2.2-0.2,3.5-0.6c1.2-0.4,2.3-0.7,3.3-1.2l-0.2-3.3C334,151.1,333,151.4,332.2,151.6"/>
	</g>
</g>
</svg>
