<?xml version="1.0" encoding="utf-8"?>
<!-- Generator: Adobe Illustrator 17.1.0, SVG Export Plug-In . SVG Version: 6.00 Build 0)  -->
<!DOCTYPE svg PUBLIC "-//W3C//DTD SVG 1.1//EN" "http://www.w3.org/Graphics/SVG/1.1/DTD/svg11.dtd">
<svg version="1.1" xmlns="http://www.w3.org/2000/svg" xmlns:xlink="http://www.w3.org/1999/xlink" x="0px" y="0px"
	 viewBox="-1548.9 -1380 918 918" enable-background="new -1548.9 -1380 918 918" xml:space="preserve">
<g id="Layer_2" display="none">
</g>
<g id="Layer_1">
	<rect x="-1206" y="-1165.8" width="283.6" height="487.5"/>
	<rect x="-1179.3" y="-1121.7" fill="#283035" width="230.2" height="393"/>
	<rect x="-1076.2" y="-717.9" fill="#464849" width="19" height="19"/>
	<g>
		<defs>
			<rect id="SVGID_1_" x="-1257.4" y="-1092.3" width="306.9" height="357.5"/>
		</defs>
		<clipPath id="SVGID_2_">
			<use xlink:href="#SVGID_1_"  overflow="visible"/>
		</clipPath>
		<path clip-path="url(#SVGID_2_)" fill="#FFFFFF" d="M-899.2-759.5c-6.2,1.4-12.6,2.1-19,2.1c-5.7,0-10.2-2.3-13.4-7.2
			c-3.1-4.8-3.7-11.7-1.8-20.5l30.6-141.1h66.6l5.8-27.2h-66.5l14.7-67.6h-0.2c5.4-25,1.1-45.7-10.9-59.4
			c-12-13.9-30.6-19.9-50-19.9c-22.9,0-47.7,8.1-69.1,23.1c-21.3,14.8-39.2,37.7-45,64.8c-4,18.8-2.5,35.9,5.6,54.5
			c-0.4,0-0.7,0-1.2,0c-22.5,0-41.1,5.4-56,16.5c-14.9,11-24.4,26.1-28.5,45.1c-2,9.1-2.3,17-0.7,23.4c1.5,6.4,4.3,12.2,8.3,17.2
			c4,5.1,9.2,9.8,15.5,14.1c6.3,4.2,13.2,8.9,20.8,13.7c6,4,11.5,7.5,16.8,10.6c5.2,3.1,9.7,6,13.2,8.9c3.6,3,6.1,6.2,7.7,9.9
			c1.6,3.6,1.8,8.1,0.7,13.3c-2.7,12.5-8,20.9-16.1,25.1c-7.9,4.1-18.3,6.2-31.1,6.2c-8.3,0-16.9-2-25.6-6c-8.8-4-16.3-11.5-22.5-23
			l-27.1,23c6.7,11.7,15.6,20.6,26.4,26.9c10.9,6.3,24.8,9.4,41.8,9.4c22,0,41.5-5.3,58.2-15.9c16.8-10.6,27.6-27.2,32.5-49.9
			c2-9.2,2.4-17,1.2-23.2c-1.3-6.3-3.9-11.8-7.9-16.5c-3.9-4.8-9.1-9.2-15.5-13.2c-6.4-3.9-13.6-8.3-21.6-13.2
			c-4.2-2.8-8.9-5.5-13.9-8.4c-5-2.8-9.6-5.6-13.8-8.6c-4.2-3.2-7.4-6.5-9.8-10.3c-2.4-3.9-3-8.3-1.9-13.6
			c2.3-10.8,7.3-18.5,14.9-23.2c7.6-4.8,17.2-7.2,28.7-7.2c8.4,0,16,2.3,22.9,6.7c7,4.4,12.5,9.4,16.7,15l25.5-23.5
			c-1.8-2.4-4-4.9-6.4-7.3c-3.1-3.9-6-7.5-8.4-11.1l-0.1,0c-31.8-44.4-40.8-87.1,8.8-113.4c34.7-18.3,58.3-9.9,70.4,0.3
			c0,0,0.1,0.1,0.1,0.1c0.5,0.4,1,0.9,1.5,1.3c1.2,1,2.4,1.9,3.4,3c5.6,6.7,8.9,17.1,5.1,35.5l-0.8,3.9h0.1l-13.6,62.9h-37.1
			l-5.9,27.2h36.6l-31.3,144.3c-4.2,19-3.1,33.2,3,42.6c6.2,9.4,19.3,14,39.6,14c8.7,0,17.8-1.5,27.5-4.7c9.6-3,18.5-6.4,26.7-10.1
			l-2.3-27.1C-885.2-763.5-892.9-760.9-899.2-759.5"/>
	</g>
</g>
</svg>
