<?xml version="1.0" encoding="utf-8"?>
<!-- Generator: Adobe Illustrator 17.1.0, SVG Export Plug-In . SVG Version: 6.00 Build 0)  -->
<!DOCTYPE svg PUBLIC "-//W3C//DTD SVG 1.1//EN" "http://www.w3.org/Graphics/SVG/1.1/DTD/svg11.dtd">
<svg version="1.1" xmlns="http://www.w3.org/2000/svg" xmlns:xlink="http://www.w3.org/1999/xlink" x="0px" y="0px"
	 viewBox="-3985.9 192.6 918 918" enable-background="new -3985.9 192.6 918 918" xml:space="preserve">
<g id="Layer_2" display="none">
</g>
<g id="Layer_1">
	<path fill="#494949" d="M-3346.3,887.2v-467c0-7.6-6.2-13.8-13.8-13.8h-324.9c-7.6,0-13.8,6.2-13.8,13.8v467
		c0,7.6,6.2,13.8,13.8,13.8h324.9C-3352.5,901-3346.3,894.8-3346.3,887.2z"/>
	<rect x="-3679.7" y="471.8" width="315.5" height="353.3"/>
	<path fill="#FFFFFF" d="M-3493.9,684.3c-1.7,0.4-3.4,0.6-5.2,0.6c-1.6,0-2.8-0.6-3.7-2c-0.9-1.3-1-3.2-0.5-5.6l8.4-38.7h18.2
		l1.6-7.4h-18.2l4-18.5h-0.1c1.5-6.9,0.3-12.5-3-16.3c-3.3-3.8-8.4-5.5-13.7-5.5c-6.3,0-13.1,2.2-18.9,6.3
		c-5.8,4.1-10.7,10.3-12.3,17.8c-1.1,5.2-0.7,9.8,1.5,14.9c-0.1,0-0.2,0-0.3,0c-6.2,0-11.3,1.5-15.4,4.5c-4.1,3-6.7,7.2-7.8,12.4
		c-0.5,2.5-0.6,4.7-0.2,6.4c0.4,1.8,1.2,3.3,2.3,4.7c1.1,1.4,2.5,2.7,4.2,3.9c1.7,1.2,3.6,2.4,5.7,3.8c1.6,1.1,3.1,2,4.6,2.9
		c1.4,0.8,2.6,1.6,3.6,2.4c1,0.8,1.7,1.7,2.1,2.7c0.4,1,0.5,2.2,0.2,3.7c-0.7,3.4-2.2,5.7-4.4,6.9c-2.2,1.1-5,1.7-8.5,1.7
		c-2.3,0-4.6-0.5-7-1.7c-2.4-1.1-4.5-3.2-6.2-6.3l-7.4,6.3c1.8,3.2,4.3,5.7,7.2,7.4c3,1.7,6.8,2.6,11.5,2.6c6,0,11.4-1.4,16-4.3
		c4.6-2.9,7.6-7.5,8.9-13.7c0.6-2.5,0.7-4.7,0.3-6.4c-0.4-1.7-1.1-3.2-2.2-4.5c-1.1-1.3-2.5-2.5-4.2-3.6c-1.7-1.1-3.7-2.3-5.9-3.6
		c-1.1-0.8-2.4-1.5-3.8-2.3c-1.4-0.8-2.6-1.5-3.8-2.4c-1.1-0.9-2-1.8-2.7-2.8c-0.7-1.1-0.8-2.3-0.5-3.7c0.6-3,2-5.1,4.1-6.4
		c2.1-1.3,4.7-2,7.9-2c2.3,0,4.4,0.6,6.3,1.8c1.9,1.2,3.4,2.6,4.6,4.1l7-6.4c-0.5-0.7-1.1-1.3-1.8-2c-0.9-1.1-1.6-2.1-2.3-3.1l0,0
		c-8.7-12.2-11.2-23.9,2.4-31.1c9.5-5,16-2.7,19.3,0.1c0,0,0,0,0,0c0.1,0.1,0.3,0.3,0.4,0.4c0.3,0.3,0.7,0.5,0.9,0.8
		c1.5,1.8,2.5,4.7,1.4,9.7l-0.2,1.1h0l-3.7,17.2h-10.2l-1.6,7.4h10l-8.6,39.5c-1.1,5.2-0.9,9.1,0.8,11.7c1.7,2.6,5.3,3.8,10.9,3.8
		c2.4,0,4.9-0.4,7.5-1.3c2.6-0.8,5.1-1.7,7.3-2.8l-0.6-7.4C-3490.1,683.2-3492.2,683.9-3493.9,684.3"/>
	<rect x="-3549.6" y="437" width="74.5" height="7.6"/>
	<rect x="-3549.6" y="859.5" width="74.5" height="7.6"/>
</g>
</svg>
