<?xml version="1.0" encoding="utf-8"?>
<!-- Generator: Adobe Illustrator 17.1.0, SVG Export Plug-In . SVG Version: 6.00 Build 0)  -->
<!DOCTYPE svg PUBLIC "-//W3C//DTD SVG 1.1//EN" "http://www.w3.org/Graphics/SVG/1.1/DTD/svg11.dtd">
<svg version="1.1" id="Layer_1" xmlns="http://www.w3.org/2000/svg" xmlns:xlink="http://www.w3.org/1999/xlink" x="0px" y="0px"
	 viewBox="-54.2 -135.2 852.1 693.1" enable-background="new -54.2 -135.2 852.1 693.1" xml:space="preserve">
<g id="Layer_2" display="none">
</g>
<g id="Layer_1_1_">
	<rect x="295.4" y="-52.8" fill="#484849" width="153.9" height="520.5"/>
	<circle fill="#343435" cx="321.5" cy="430.7" r="19"/>
	<path d="M547.8-57.2H196.9c-10.6,0-19.3,8.6-19.3,19.3v486.6c0,10.6,8.6,19.3,19.3,19.3h350.9c10.6,0,19.3-8.6,19.3-19.3V-38.1
		C567-48.6,558.4-57.2,547.8-57.2z M359.1-40.8h37.1v5.5h-37.1V-40.8z M377.4,446c-8.4,0-15.2-6.8-15.2-15.2
		c0-8.4,6.8-15.2,15.2-15.2s15.2,6.8,15.2,15.2C392.6,439.2,385.7,446,377.4,446z M543.9,403.6H201.6V-19.9h342.3V403.6z"/>
	<rect x="201.6" y="-19.9" fill="#1C262D" width="342.3" height="423.6"/>
	<path fill="#FFFFFF" d="M401.8,227.4c-1.5,0.3-2.9,0.5-4.4,0.5c-1.3,0-2.4-0.5-3.1-1.7c-0.8-1.1-0.9-2.7-0.4-4.7l7.1-32.9h15.5
		l1.4-6.3h-15.5l3.4-15.7l0,0c1.3-5.8,0.2-10.6-2.6-13.9c-2.8-3.2-7.1-4.6-11.6-4.6c-5.4,0-11.1,1.9-16.1,5.4
		c-4.9,3.4-9.1,8.8-10.4,15.1c-1,4.4-0.5,8.4,1.3,12.7c-0.1,0-0.2,0-0.3,0c-5.3,0-9.6,1.3-13,3.9c-3.4,2.6-5.7,6.1-6.7,10.5
		c-0.4,2.2-0.5,4-0.2,5.5c0.3,1.5,1,2.8,1.9,4c1,1.2,2.2,2.3,3.5,3.3c1.5,1,3.1,2,4.8,3.2c1.4,1,2.7,1.7,3.9,2.5s2.3,1.4,3.1,2
		c0.9,0.6,1.4,1.5,1.8,2.3c0.4,0.9,0.4,1.9,0.1,3.1c-0.6,2.9-1.8,4.8-3.8,5.8c-1.8,1-4.3,1.5-7.2,1.5c-1.9,0-4-0.4-5.9-1.4
		c-2-1-3.8-2.7-5.3-5.4l-6.3,5.4c1.6,2.7,3.7,4.8,6.1,6.2c2.6,1.5,5.8,2.2,9.8,2.2c5.2,0,9.7-1.2,13.6-3.7c3.9-2.5,6.5-6.3,7.5-11.6
		c0.4-2.2,0.5-4,0.3-5.4c-0.3-1.5-0.9-2.8-1.8-3.9c-0.9-1.1-2.2-2.2-3.5-3.1c-1.5-0.9-3.2-1.9-5.1-3.1c-1-0.6-2-1.3-3.2-1.9
		c-1.2-0.6-2.3-1.3-3.2-2s-1.7-1.5-2.3-2.4c-0.5-0.9-0.8-1.9-0.4-3.1c0.5-2.5,1.7-4.3,3.4-5.4c1.8-1.1,4-1.7,6.7-1.7
		c1.9,0,3.8,0.5,5.4,1.6c1.6,1.1,2.9,2.2,3.9,3.4l5.9-5.5c-0.4-0.5-1-1.2-1.5-1.7c-0.8-0.9-1.4-1.7-1.9-2.6l0,0
		c-7.4-10.3-9.5-20.3,2-26.5c8.1-4.3,13.6-2.3,16.5,0.1l0,0c0.1,0.1,0.2,0.2,0.3,0.3c0.3,0.2,0.5,0.4,0.8,0.6c1.3,1.6,2,4,1.2,8.3
		l-0.2,0.9l0,0l-3.1,14.6h-8.6l-1.4,6.3h8.5L385,222c-1,4.4-0.8,7.7,0.6,9.9c1.4,2.2,4.5,3.2,9.2,3.2c2,0,4.2-0.3,6.5-1.1
		c2.3-0.6,4.3-1.5,6.2-2.4l-0.5-6.3C405,226.4,403.3,227,401.8,227.4"/>
</g>
</svg>
