<?xml version="1.0" encoding="utf-8"?>
<!-- Generator: Adobe Illustrator 17.0.2, SVG Export Plug-In . SVG Version: 6.00 Build 0)  -->
<!DOCTYPE svg PUBLIC "-//W3C//DTD SVG 1.1//EN" "http://www.w3.org/Graphics/SVG/1.1/DTD/svg11.dtd">
<svg version="1.1" id="Layer_1" xmlns="http://www.w3.org/2000/svg" xmlns:xlink="http://www.w3.org/1999/xlink" x="0px" y="0px"
	 width="78.424px" height="78.424px" viewBox="0 0 78.424 78.424" enable-background="new 0 0 78.424 78.424" xml:space="preserve">
<circle fill="#59566B" cx="39.212" cy="39.212" r="39.212"/>
<path fill="#485259" d="M54.146,12.248H27.482c-1.139,0-2.063,0.924-2.063,2.063v52.21c0,1.139,0.924,2.063,2.063,2.063h26.664
	c1.139,0,2.063-0.924,2.063-2.063v-52.21C56.209,13.172,55.286,12.248,54.146,12.248z M38.898,14.021h3.982v0.583h-3.982V14.021z
	 M40.86,66.258c-0.901,0-1.632-0.731-1.632-1.632c0-0.901,0.731-1.632,1.632-1.632s1.632,0.731,1.632,1.632
	C42.491,65.527,41.761,66.258,40.86,66.258z M53.736,61.712h-25.74V16.255h25.74V61.712z"/>
<circle fill="#C9C9C9" cx="38.866" cy="62.613" r="2.042"/>
<path fill="#FFFFFF" d="M52.146,10.248H25.482c-1.139,0-2.063,0.924-2.063,2.063v52.21c0,1.139,0.924,2.063,2.063,2.063h26.664
	c1.139,0,2.063-0.924,2.063-2.063v-52.21C54.209,11.172,53.286,10.248,52.146,10.248z M36.898,12.021h3.982v0.583h-3.982V12.021z
	 M38.86,64.258c-0.901,0-1.632-0.731-1.632-1.632c0-0.901,0.731-1.632,1.632-1.632s1.632,0.731,1.632,1.632
	C40.491,63.527,39.761,64.258,38.86,64.258z M51.736,59.712h-25.74V14.255h25.74V59.712z"/>
<rect x="25.997" y="14.255" fill="#010203" width="25.74" height="45.457"/>
<path fill="#FFFFFF" d="M42.892,40.795c-0.202,0.045-0.407,0.068-0.615,0.068c-0.186,0-0.332-0.076-0.433-0.232
	c-0.101-0.155-0.121-0.378-0.059-0.663l0.991-4.572h2.157l0.189-0.88h-2.156l0.475-2.191h-0.006
	c0.174-0.811,0.035-1.482-0.352-1.925c-0.39-0.45-0.992-0.645-1.619-0.645c-0.743,0.001-1.547,0.262-2.239,0.749
	c-0.691,0.48-1.27,1.221-1.457,2.101c-0.13,0.61-0.08,1.164,0.183,1.765c-0.014,0-0.023-0.001-0.038-0.001
	c-0.728,0-1.332,0.176-1.815,0.535c-0.483,0.358-0.792,0.846-0.925,1.461c-0.065,0.296-0.073,0.551-0.023,0.759
	c0.047,0.207,0.138,0.395,0.269,0.558c0.13,0.166,0.297,0.318,0.501,0.458c0.203,0.136,0.428,0.287,0.673,0.444
	c0.194,0.13,0.372,0.242,0.544,0.343c0.17,0.099,0.313,0.195,0.427,0.289c0.116,0.096,0.198,0.202,0.251,0.321
	c0.053,0.118,0.058,0.263,0.022,0.432c-0.087,0.406-0.26,0.677-0.521,0.813c-0.255,0.134-0.592,0.202-1.009,0.202
	c-0.27,0-0.549-0.065-0.83-0.196c-0.286-0.128-0.528-0.374-0.729-0.744l-0.878,0.744c0.218,0.379,0.506,0.669,0.854,0.873
	c0.353,0.203,0.804,0.306,1.356,0.306c0.714,0,1.346-0.171,1.887-0.514c0.543-0.342,0.894-0.882,1.053-1.617
	c0.066-0.298,0.078-0.55,0.04-0.752c-0.042-0.204-0.126-0.382-0.256-0.536c-0.127-0.156-0.295-0.297-0.501-0.428
	c-0.206-0.127-0.442-0.27-0.701-0.429c-0.135-0.09-0.287-0.178-0.45-0.271c-0.161-0.09-0.312-0.181-0.446-0.28
	c-0.135-0.103-0.241-0.211-0.319-0.335c-0.079-0.125-0.098-0.27-0.061-0.44c0.074-0.349,0.235-0.601,0.482-0.751
	c0.247-0.154,0.558-0.232,0.931-0.232c0.272,0,0.517,0.073,0.741,0.217c0.226,0.143,0.404,0.304,0.541,0.485l0.825-0.762
	c-0.059-0.079-0.131-0.158-0.207-0.238c-0.102-0.127-0.194-0.244-0.271-0.361l-0.004,0.001c-1.031-1.44-1.323-2.823,0.286-3.674
	c1.124-0.593,1.888-0.32,2.282,0.011c0,0.001,0.002,0.003,0.003,0.003c0.017,0.014,0.033,0.03,0.05,0.042
	c0.039,0.031,0.079,0.062,0.111,0.097c0.183,0.217,0.29,0.555,0.165,1.15l-0.026,0.127h0.004l-0.441,2.037h-1.203l-0.19,0.88h1.186
	l-1.013,4.675c-0.135,0.616-0.101,1.075,0.097,1.38c0.201,0.303,0.627,0.455,1.283,0.455c0.281,0,0.577-0.05,0.891-0.151
	c0.311-0.096,0.6-0.206,0.865-0.327L43.64,40.55C43.344,40.668,43.095,40.752,42.892,40.795"/>
</svg>
