<?xml version="1.0" encoding="utf-8"?>
<!-- Generator: Adobe Illustrator 17.1.0, SVG Export Plug-In . SVG Version: 6.00 Build 0)  -->
<!DOCTYPE svg PUBLIC "-//W3C//DTD SVG 1.1//EN" "http://www.w3.org/Graphics/SVG/1.1/DTD/svg11.dtd">
<svg version="1.1" id="Layer_1" xmlns="http://www.w3.org/2000/svg" xmlns:xlink="http://www.w3.org/1999/xlink" x="0px" y="0px"
	 viewBox="-54.2 -135.2 852.1 693.1" enable-background="new -54.2 -135.2 852.1 693.1" xml:space="preserve">
<g id="Layer_2" display="none">
</g>
<g id="Layer_1_1_">
	<path fill="#848484" d="M723.1,433.4c0,6.1-5,11.1-11.1,11.1H31.4c-6.1,0-11.1-5-11.1-11.1"/>
	<path fill="#848484" d="M651.5,337.2H92c-6.1,0-11.1-5-11.1-11.1V-19.1c-0.1-6.1,5-11.1,11.1-11.1h559.6c6.1,0,11.1,5,11.1,11.1
		v345.3C662.7,332.4,657.6,337.2,651.5,337.2z"/>
	<path fill="#C0C2C4" d="M717.4,436.6H26c-5.2,0-8.4-5.7-5.7-10.2l58.6-95.2c1.2-2.1,3.4-3.3,5.7-3.3h574.5c2.3,0,4.5,1.2,5.7,3.3
		l58.6,95.1C725.9,431,722.8,436.6,717.4,436.6z"/>
	<rect x="94.8" y="-14.7" fill="#1C262D" width="553.9" height="332.5"/>
	<path fill="#9B9D9E" d="M646.3,377.2H92.3c-1.9,0-3.2-2.1-2.1-3.8l21.4-34.8c0.4-0.7,1.2-1.2,2.1-1.2h511c0.9,0,1.6,0.4,2.1,1.2
		l21.4,34.8C649.2,375.1,648,377.2,646.3,377.2z"/>
	<g>
		<path fill="#FFFFFF" d="M438.3,144.1c-2.1,0-3.9,0.4-5.7,1.5c-1.7,1.1-3.4,2.2-4.5,3.8c-0.2-2.1-1.1-3.4-2.2-4.3
			c-1.2-0.7-2.8-1.2-5.1-1.2c-2.1,0-3.8,0.4-5.4,1.5s-3.2,2.3-4.4,3.9l0.7-4.6h-4.9l-7.2,32.9h5.4l4.4-20c0.1-1.1,0.5-2.1,1.2-3.2
			c0.5-1.1,1.3-2.1,2.1-2.8c0.9-0.9,1.7-1.6,2.7-2.2c1.1-0.5,2.1-0.9,3.2-0.9c2.1,0,3.3,0.5,3.7,1.7c0.4,1.2,0.4,2.6,0.1,4.5
			l-5,22.8h5.4l4.5-20.3c0.2-1.1,0.5-2.1,1.2-3.2c0.5-1.1,1.2-1.9,2.1-2.6c0.7-0.7,1.6-1.3,2.6-1.7s2.1-0.7,3.2-0.7
			c2.1,0,3.4,0.4,3.9,1.3c0.5,0.9,0.7,2.3,0.2,4.3l-5.1,23.3h5.4l5.2-24c0.7-3.4,0.5-5.8-0.5-7.3C444.3,145,441.9,144.1,438.3,144.1
			 M369.2,173.2c-0.9,0.1-1.9,0.2-2.7,0.2c-0.9,0-1.5-0.2-1.9-1.1c-0.4-0.7-0.5-1.7-0.2-3.2l4.5-20.6h7.5l0.9-3.9h-7.5l2.2-9.9h-5.2
			l-2.2,9.9h-5.4l-0.9,3.9h5.4l-4.5,21.2c-0.5,2.7-0.4,4.9,0.4,6.2c0.9,1.3,2.7,2.1,5.8,2.1c1.3,0,2.6-0.2,4-0.7
			c1.5-0.4,2.7-0.9,3.9-1.5l-0.2-3.9C371.1,172.6,370.2,172.9,369.2,173.2 M382.4,155.3c0.4-1.9,1.5-3.5,3.2-4.6
			c1.6-1.2,3.4-1.7,5.5-1.7c1.9,0,3.3,0.4,3.9,1.5c0.7,0.9,1.1,2.3,0.9,4l-0.4,2.8l-13.6,2.3L382.4,155.3z M390.6,173
			c-1.3,0.4-2.7,0.7-4,0.7c-2.3,0-4.3-0.5-5.5-1.9c-1.2-1.2-1.6-2.8-1.2-5.2l0.7-3.4l19.1-3.3l1.1-5c0.2-1.6,0.4-3.3,0.1-4.5
			c-0.2-1.3-0.9-2.4-1.6-3.5c-0.7-1.1-1.9-1.7-3.2-2.2c-1.3-0.4-2.7-0.7-4.5-0.7c-1.8,0-3.5,0.2-5.1,0.7s-3.2,1.3-4.4,2.2
			c-1.3,0.9-2.3,2.1-3.3,3.5c-0.9,1.3-1.6,2.8-1.9,4.6l-2.4,11.3c-0.9,3.9-0.2,6.9,1.6,8.8c1.9,2.1,4.9,3.2,8.9,3.2
			c2.2,0,4.3-0.2,6.1-1.1c1.9-0.5,3.9-1.7,5.8-3.4l-2.2-3.5C393.4,171.6,391.9,172.6,390.6,173 M518.8,172.1
			c-1.3,0.5-2.4,0.9-3.4,1.2c-0.9,0.1-1.9,0.2-2.7,0.2c-0.9,0-1.5-0.2-1.9-1.1c-0.4-0.7-0.5-1.7-0.2-3.2l4.5-20.6h7.5l0.9-3.9h-7.5
			l2.2-9.9h-5.2l-2.2,9.9h-5.5l-0.9,3.9h5.4l-4.5,21.2c-0.5,2.7-0.4,4.9,0.4,6.2c0.9,1.3,2.7,2.1,5.8,2.1c1.3,0,2.6-0.2,3.9-0.7
			c1.5-0.4,2.7-0.9,3.9-1.5L518.8,172.1z M454.4,155.3c0.4-1.9,1.5-3.5,3.2-4.6c1.7-1.2,3.4-1.7,5.5-1.7c1.9,0,3.3,0.4,3.9,1.5
			c0.7,0.9,1.1,2.3,0.9,4l-0.4,2.8l-13.6,2.3L454.4,155.3z M462.6,173c-1.3,0.4-2.7,0.7-4,0.7c-2.3,0-4.3-0.5-5.4-1.9
			c-1.2-1.2-1.6-2.8-1.2-5.2l0.7-3.4l19.1-3.3l1.1-5c0.2-1.6,0.4-3.3,0.1-4.5c-0.2-1.3-0.7-2.4-1.6-3.5c-0.7-1.1-1.9-1.7-3.2-2.2
			c-1.3-0.4-2.7-0.7-4.5-0.7c-1.8,0-3.5,0.2-5.1,0.7s-3.2,1.3-4.4,2.2c-1.3,0.9-2.3,2.1-3.3,3.5c-0.9,1.3-1.5,2.8-1.9,4.6l-2.4,11.3
			c-0.9,3.9-0.2,6.9,1.6,8.8c1.9,2.1,4.9,3.2,8.9,3.2c2.2,0,4.3-0.2,6.1-1.1c1.9-0.5,3.9-1.7,5.8-3.4l-2.2-3.5
			C465.4,171.6,463.9,172.6,462.6,173 M493.7,144.1c-2.2,0-4,0.4-5.7,1.3c-1.6,0.9-3.2,2.2-4.6,3.8l0.5-4.4h-5l-7.2,32.9h5.5
			l4.4-20.3c0.2-1.1,0.7-2.1,1.3-3.2c0.7-1.1,1.5-1.9,2.4-2.7c0.9-0.9,1.9-1.5,3.2-2.1c1.2-0.5,2.2-0.7,3.4-0.7c2.2,0,3.5,0.5,4,1.9
			c0.5,1.2,0.5,2.8,0.1,5l-4.9,22h5.4l5-22.9c0.7-3.5,0.5-6.1-0.5-8C499.8,145.1,497.4,144.1,493.7,144.1 M347.5,167.4
			c-0.1,0.9-0.5,1.7-1.1,2.6c-0.5,0.7-1.2,1.5-1.9,2.1c-0.7,0.5-1.6,1.1-2.4,1.3c-0.9,0.2-1.7,0.4-2.7,0.4c-1.6,0-2.7-0.2-3.8-1.1
			c-0.9-0.5-1.2-1.7-0.9-3.3l1.2-5.4l12.9-2.4L347.5,167.4z M347.1,144.1c-0.9,0-1.9,0.1-3.2,0.2c-1.2,0.2-2.3,0.5-3.4,1.1
			c-1.2,0.4-2.2,0.9-3.4,1.3c-1.1,0.4-2.1,0.9-2.7,1.3l1.2,3.9c0.5-0.2,1.5-0.7,2.3-1.2c0.9-0.4,1.7-0.7,2.7-1.2
			c0.9-0.2,1.9-0.5,2.7-0.7c0.9-0.1,1.6-0.2,2.2-0.2c2.2,0,3.5,0.4,4.3,1.2c0.5,0.9,0.7,2.3,0.2,4.4l-0.7,3.5l-18.5,3.5l-1.9,8.4
			c-0.5,2.8-0.2,5,1.2,6.3c1.4,1.4,3.7,2.2,6.8,2.2c1.9,0,3.7-0.4,5.5-1.5c1.6-1.1,3.2-2.2,4.3-3.7l-0.5,4.4h4.4l5.1-23.5
			c0.7-3.5,0.4-6-0.9-7.7C353.5,145.1,350.9,144.1,347.1,144.1 M275.4,167.4c-0.4,2.2-1.5,3.8-2.8,4.9c-1.5,1.1-3.3,1.6-5.4,1.6
			c-2.2,0-3.8-0.7-4.9-2.1s-1.3-3.2-0.9-5.2l2.3-10.5c0.4-2.1,1.5-3.8,3.3-5.1c1.6-1.3,3.5-2.1,5.7-2.1c2.2,0,3.8,0.5,4.9,1.6
			s1.3,2.6,0.7,4.6L275.4,167.4z M274.9,144.1c-1.9,0-3.8,0.4-5.6,1.3c-1.7,0.9-3.4,2.1-4.6,3.7l0.4-4.3h-4.4L248.8,199h5.4
			l5.5-24.8c0.5,1.5,1.6,2.6,2.8,3.3c1.5,0.5,2.8,0.9,4.6,0.9c3.7,0,6.5-1.1,8.8-2.8c2.3-1.9,3.8-4.6,4.5-8.2l2.6-12.3
			c0.7-3.7,0.4-6.2-0.9-8.2C281,145.1,278.6,144.1,274.9,144.1 M246.1,164.8c-0.5,3.2-2.1,5.2-4.4,6.9c-2.2,1.5-4.9,2.3-7.5,2.3
			c-1.5,0-2.6-0.1-3.8-0.4c-1.2-0.2-2.1-0.9-2.8-1.6c-0.7-0.7-1.3-1.6-1.6-2.7c-0.2-1.2-0.2-2.6,0.1-4.3l6.8-31.2h-5.6l-6.8,31.2
			c-0.9,4.3-0.2,7.5,1.7,10c2.1,2.4,5.7,3.7,10.8,3.7c2.2,0,4.3-0.2,6.2-0.9c2.1-0.5,3.8-1.3,5.5-2.4c1.6-1.2,3.2-2.6,4.3-4.3
			c1.2-1.7,2.1-3.8,2.4-6.1l6.8-31.2h-5.5L246.1,164.8z M321.3,173.2c-0.9,0.1-1.9,0.2-2.7,0.2s-1.5-0.2-1.9-1.1
			c-0.4-0.7-0.5-1.7-0.2-3.2l4.5-20.6h7.5l0.9-3.9h-7.5l2.2-9.9l0,0c0.7-3.7,0.1-6.8-1.6-8.5c-1.7-2.1-4.5-2.8-7.3-2.8
			c-3.4,0-7.1,1.2-10,3.4c-3,2.2-5.7,5.6-6.5,9.5c-0.5,2.7-0.2,5.2,0.9,8h-0.1c-3.3,0-6,0.9-8.2,2.4c-2.2,1.6-3.5,3.8-4.3,6.5
			c-0.2,1.3-0.2,2.4-0.1,3.4c0.1,0.9,0.5,1.7,1.2,2.4c0.5,0.7,1.3,1.5,2.2,2.1c0.9,0.5,1.9,1.3,3.2,2.1c0.9,0.5,1.6,1.1,2.4,1.6
			c0.7,0.4,1.5,0.9,1.9,1.3c0.5,0.4,0.9,0.9,1.2,1.5c0.2,0.5,0.2,1.2,0.1,1.9c-0.4,1.9-1.2,3.2-2.3,3.7s-2.6,0.9-4.5,0.9
			c-1.2,0-2.4-0.2-3.8-0.9c-1.3-0.5-2.3-1.7-3.3-3.4l-3.9,3.4c1.1,1.7,2.3,3.2,3.8,3.9c1.6,0.9,3.7,1.3,6.1,1.3
			c3.3,0,6.1-0.7,8.4-2.3c2.4-1.6,4-3.9,4.9-7.3c0.2-1.3,0.2-2.4,0.1-3.4c-0.1-0.9-0.5-1.7-1.2-2.4c-0.5-0.7-1.3-1.3-2.3-1.9
			c-0.9-0.5-2.1-1.2-3.3-1.9c-0.5-0.4-1.3-0.9-2.1-1.2c-0.7-0.4-1.5-0.9-2.1-1.3c-0.5-0.4-1.1-1.1-1.5-1.5c-0.2-0.5-0.4-1.2-0.2-2.1
			c0.2-1.6,1.1-2.6,2.2-3.4c1.2-0.7,2.4-1.1,4.3-1.1c1.2,0,2.3,0.2,3.4,1.1c1.1,0.5,1.7,1.3,2.4,2.2l3.7-3.4
			c-0.2-0.2-0.5-0.7-0.9-1.1c-0.4-0.5-0.9-1.2-1.2-1.6l0,0c-4.6-6.3-6-12.8,1.3-16.7c5.1-2.6,8.4-1.5,10.4,0l0,0
			c0.1,0,0.1,0.1,0.1,0.1c0.1,0.1,0.2,0.2,0.4,0.4c0.9,1.1,1.3,2.4,0.7,5.2l-0.1,0.5l0,0l-2.1,9.2h-5.5l-0.9,3.9h5.4l-4.5,21.2
			c-0.5,2.7-0.4,4.9,0.4,6.2c0.9,1.3,2.7,2.1,5.8,2.1c1.3,0,2.6-0.2,4-0.7c1.5-0.4,2.7-0.9,3.9-1.5l-0.2-3.9
			C323.4,172.6,322.4,172.9,321.3,173.2"/>
	</g>
</g>
</svg>
