<?xml version="1.0" encoding="utf-8"?>
<!-- Generator: Adobe Illustrator 17.1.0, SVG Export Plug-In . SVG Version: 6.00 Build 0)  -->
<!DOCTYPE svg PUBLIC "-//W3C//DTD SVG 1.1//EN" "http://www.w3.org/Graphics/SVG/1.1/DTD/svg11.dtd">
<svg version="1.1" xmlns="http://www.w3.org/2000/svg" xmlns:xlink="http://www.w3.org/1999/xlink" x="0px" y="0px"
	 viewBox="-3985.9 -1380 918 918" enable-background="new -3985.9 -1380 918 918" xml:space="preserve">
<g id="Layer_2" display="none">
</g>
<g id="Layer_1">
	<circle fill="#343435" cx="-3515.2" cy="-666.1" r="23.4"/>
	<path d="M-3385.9-1185.9h-282.6c-13.1,0-23.6,10.6-23.6,23.6v518.1c0,13.1,10.6,23.6,23.6,23.6h282.6c13.1,0,23.6-10.6,23.6-23.6
		v-518.1C-3362.2-1175.4-3372.8-1185.9-3385.9-1185.9z M-3537.7-1165.6h45.6v6.7h-45.6V-1165.6z M-3515.2-647.2
		c-10.3,0-18.7-8.4-18.7-18.7s8.4-18.7,18.7-18.7c10.3,0,18.7,8.4,18.7,18.7C-3496.5-655.6-3504.9-647.2-3515.2-647.2z
		 M-3390.6-710.8h-272v-417.8h272V-710.8z"/>
	<path fill="none" stroke="#9E9E9E" stroke-width="6.8757" stroke-miterlimit="10" d="M-3385.3-1185.9h-282.6
		c-13.1,0-23.6,10.6-23.6,23.6v518.1c0,13.1,10.6,23.6,23.6,23.6h282.6c13.1,0,23.6-10.6,23.6-23.6v-518.1
		C-3361.6-1175.4-3372.2-1185.9-3385.3-1185.9z"/>
	<rect x="-3662.6" y="-1128.6" fill="#1C262D" width="272" height="422"/>
	<path fill="#FFFFFF" d="M-3492.6-871.7c-1.8,0.4-3.6,0.6-5.4,0.6c-1.6,0-2.9-0.7-3.8-2.1c-0.9-1.4-1.1-3.3-0.5-5.9l8.8-40.4h19.1
		l1.7-7.8h-19.1l4.2-19.4h-0.1c1.5-7.2,0.3-13.1-3.1-17c-3.4-4-8.8-5.7-14.3-5.7c-6.6,0-13.7,2.3-19.8,6.6
		c-6.1,4.2-11.2,10.8-12.9,18.6c-1.1,5.4-0.7,10.3,1.6,15.6c-0.1,0-0.2,0-0.3,0c-6.4,0-11.8,1.6-16,4.7c-4.3,3.2-7,7.5-8.2,12.9
		c-0.6,2.6-0.6,4.9-0.2,6.7c0.4,1.8,1.2,3.5,2.4,4.9c1.1,1.5,2.6,2.8,4.4,4c1.8,1.2,3.8,2.5,5.9,3.9c1.7,1.1,3.3,2.1,4.8,3
		c1.5,0.9,2.8,1.7,3.8,2.6c1,0.8,1.8,1.8,2.2,2.8c0.5,1,0.5,2.3,0.2,3.8c-0.8,3.6-2.3,6-4.6,7.2c-2.3,1.2-5.2,1.8-8.9,1.8
		c-2.4,0-4.9-0.6-7.3-1.7c-2.5-1.1-4.7-3.3-6.4-6.6l-7.8,6.6c1.9,3.4,4.5,5.9,7.5,7.7c3.1,1.8,7.1,2.7,12,2.7
		c6.3,0,11.9-1.5,16.7-4.5c4.8-3,7.9-7.8,9.3-14.3c0.6-2.6,0.7-4.9,0.4-6.6c-0.4-1.8-1.1-3.4-2.3-4.7c-1.1-1.4-2.6-2.6-4.4-3.8
		c-1.8-1.1-3.9-2.4-6.2-3.8c-1.2-0.8-2.5-1.6-4-2.4c-1.4-0.8-2.8-1.6-3.9-2.5c-1.2-0.9-2.1-1.9-2.8-3c-0.7-1.1-0.9-2.4-0.5-3.9
		c0.7-3.1,2.1-5.3,4.3-6.6c2.2-1.4,4.9-2.1,8.2-2.1c2.4,0,4.6,0.6,6.6,1.9c2,1.3,3.6,2.7,4.8,4.3l7.3-6.7c-0.5-0.7-1.2-1.4-1.8-2.1
		c-0.9-1.1-1.7-2.2-2.4-3.2l0,0c-9.1-12.7-11.7-25,2.5-32.5c9.9-5.2,16.7-2.8,20.2,0.1c0,0,0,0,0,0c0.2,0.1,0.3,0.3,0.4,0.4
		c0.3,0.3,0.7,0.5,1,0.9c1.6,1.9,2.6,4.9,1.5,10.2l-0.2,1.1h0l-3.9,18h-10.6l-1.7,7.8h10.5l-9,41.3c-1.2,5.4-0.9,9.5,0.9,12.2
		c1.8,2.7,5.5,4,11.3,4c2.5,0,5.1-0.4,7.9-1.3c2.7-0.8,5.3-1.8,7.6-2.9l-0.7-7.8C-3488.6-872.9-3490.8-872.1-3492.6-871.7"/>
</g>
</svg>
