<?xml version="1.0" encoding="utf-8"?>
<!-- Generator: Adobe Illustrator 17.1.0, SVG Export Plug-In . SVG Version: 6.00 Build 0)  -->
<!DOCTYPE svg PUBLIC "-//W3C//DTD SVG 1.1//EN" "http://www.w3.org/Graphics/SVG/1.1/DTD/svg11.dtd">
<svg version="1.1" id="Layer_1" xmlns="http://www.w3.org/2000/svg" xmlns:xlink="http://www.w3.org/1999/xlink" x="0px" y="0px"
	 viewBox="-54.2 -135.2 852.1 693.1" enable-background="new -54.2 -135.2 852.1 693.1" xml:space="preserve">
<g id="Layer_2" display="none">
</g>
<g id="Layer_1_1_">
	<path fill="#2B2B2B" d="M451.4,302.3H296l-13.9,107h183L451.4,302.3z M373.6,385.1c-16.2,0-29.4-13.1-29.4-29.4
		c0-16.2,13.1-29.4,29.4-29.4c16.3,0,29.4,13.1,29.4,29.4C403,371.9,389.9,385.1,373.6,385.1z"/>
	<path fill="#464747" d="M465.2,409.3l27.6,23.7c0,6.6-8.9,11.9-19.8,11.9H274.3c-11,0-19.8-5.3-19.8-11.9l27.6-23.7"/>
	<rect x="75.5" y="-30.5" fill="#494949" width="596.3" height="369.8"/>
	<rect x="96.3" y="-9.1" width="557.4" height="325"/>
	<g>
		<path fill="#FFFFFF" d="M435,140.3c-1.7,0-3.3,0.4-4.7,1.2c-1.4,0.8-2.8,1.8-3.7,3.1c-0.2-1.7-0.8-2.8-1.8-3.5c-1-0.6-2.4-1-4.2-1
			c-1.7,0-3.1,0.4-4.5,1.2c-1.3,0.8-2.5,1.9-3.6,3.3l0.6-3.9h-4l-5.9,27.2h4.5l3.6-16.5c0.1-0.8,0.5-1.7,1-2.5
			c0.5-0.8,1.1-1.7,1.7-2.4c0.7-0.7,1.4-1.3,2.3-1.8c0.8-0.5,1.7-0.7,2.5-0.7c1.7,0,2.7,0.5,3,1.4c0.4,1,0.4,2.2,0.1,3.7l-4.1,18.8
			h4.5l3.7-17.1c0.2-0.8,0.5-1.7,1-2.5c0.5-0.8,1-1.6,1.7-2.2c0.6-0.6,1.3-1.1,2.2-1.4s1.7-0.6,2.5-0.6c1.7,0,2.8,0.4,3.3,1.1
			c0.5,0.7,0.6,1.9,0.2,3.5l-4.2,19.3h4.5l4.3-19.9c0.6-2.8,0.5-4.8-0.5-6C439.8,140.9,437.9,140.3,435,140.3 M377.7,164.1
			c-0.7,0.1-1.6,0.2-2.3,0.2c-0.7,0-1.2-0.2-1.6-0.8c-0.4-0.6-0.5-1.4-0.2-2.5l3.7-17h6.3l0.7-3.3h-6.3l1.8-8.2h-4.3l-1.8,8.2h-4.5
			l-0.7,3.3h4.5l-3.7,17.5c-0.5,2.3-0.4,4,0.4,5.2c0.7,1.1,2.3,1.7,4.8,1.7c1.1,0,2.2-0.2,3.4-0.6c1.2-0.4,2.3-0.7,3.3-1.2l-0.2-3.3
			C379.4,163.7,378.5,164,377.7,164.1 M388.7,149.3c0.4-1.6,1.2-2.9,2.5-3.9c1.3-1,2.8-1.4,4.5-1.4c1.6,0,2.7,0.4,3.3,1.2
			c0.6,0.7,0.8,1.9,0.7,3.4l-0.4,2.4l-11.3,1.9L388.7,149.3z M395.4,164.1c-1.1,0.4-2.3,0.6-3.4,0.6c-1.9,0-3.5-0.5-4.5-1.6
			c-1-1-1.3-2.4-1-4.3l0.6-2.8l15.8-2.7l0.8-4.1c0.2-1.3,0.4-2.7,0.1-3.7c-0.2-1.1-0.7-2-1.3-2.9s-1.6-1.4-2.5-1.8
			c-1.1-0.4-2.3-0.6-3.7-0.6c-1.4,0-2.9,0.2-4.2,0.6c-1.3,0.5-2.5,1.1-3.6,1.8s-1.9,1.7-2.7,2.9c-0.7,1.1-1.3,2.4-1.6,3.9l-2,9.4
			c-0.7,3.3-0.2,5.7,1.3,7.2c1.6,1.7,4,2.5,7.4,2.5c1.8,0,3.5-0.2,5.1-0.8c1.6-0.5,3.3-1.4,4.8-2.8l-1.8-2.9
			C397.7,163.1,396.5,163.7,395.4,164.1 M501.4,163.3c-1.1,0.5-2,0.7-2.8,1c-0.7,0.1-1.6,0.2-2.3,0.2c-0.7,0-1.2-0.2-1.6-0.8
			c-0.4-0.6-0.5-1.4-0.2-2.5l3.7-17h6.3l0.7-3.3H499l1.8-8.2h-4.3l-1.8,8.2h-4.5l-0.7,3.3h4.5l-3.7,17.5c-0.5,2.3-0.4,4,0.4,5.2
			c0.7,1.1,2.3,1.7,4.8,1.7c1.1,0,2.2-0.2,3.3-0.6c1.2-0.4,2.3-0.7,3.3-1.2L501.4,163.3z M448.2,149.3c0.4-1.6,1.2-2.9,2.5-3.9
			c1.3-1,2.8-1.4,4.5-1.4c1.6,0,2.7,0.4,3.3,1.2c0.6,0.7,0.8,1.9,0.7,3.4l-0.4,2.4l-11.3,1.9L448.2,149.3z M455,164.1
			c-1.1,0.4-2.3,0.6-3.4,0.6c-1.9,0-3.5-0.5-4.5-1.6c-1-1-1.3-2.4-1-4.3l0.6-2.8l15.8-2.7l0.8-4.1c0.2-1.3,0.4-2.7,0.1-3.7
			c-0.2-1.1-0.6-2-1.3-2.9c-0.6-0.8-1.6-1.4-2.7-1.8s-2.3-0.6-3.7-0.6c-1.4,0-2.9,0.2-4.2,0.6c-1.3,0.5-2.5,1.1-3.6,1.8
			s-1.9,1.7-2.7,2.9c-0.7,1.1-1.2,2.4-1.6,3.9l-2,9.4c-0.7,3.3-0.2,5.7,1.3,7.2c1.6,1.7,4,2.5,7.4,2.5c1.8,0,3.5-0.2,5.1-0.8
			c1.6-0.5,3.3-1.4,4.8-2.8l-1.8-2.9C457.3,163.1,456.1,163.7,455,164.1 M480.7,140.1c-1.8,0-3.4,0.4-4.7,1.1
			c-1.3,0.7-2.5,1.8-3.9,3.1l0.5-3.6h-4.1l-5.9,27.2h4.5l3.6-16.8c0.2-0.8,0.6-1.7,1.1-2.5c0.6-0.8,1.2-1.6,2-2.3
			c0.7-0.7,1.6-1.2,2.5-1.7c1-0.5,1.8-0.6,2.8-0.6c1.8,0,2.9,0.5,3.4,1.6c0.5,1,0.5,2.4,0.1,4.1l-4,18.3h4.5l4.1-18.9
			c0.6-2.9,0.5-5.1-0.5-6.6C485.7,141,483.7,140.1,480.7,140.1 M359.8,159.3c-0.1,0.7-0.5,1.4-0.8,2.2c-0.5,0.6-1,1.2-1.6,1.7
			c-0.6,0.5-1.3,0.8-2,1.1c-0.7,0.2-1.4,0.4-2.3,0.4c-1.3,0-2.3-0.2-3.1-0.8c-0.7-0.5-1-1.4-0.7-2.7l1-4.5l10.6-2L359.8,159.3z
			 M359.5,140.3c-0.7,0-1.6,0.1-2.5,0.2c-1,0.2-1.9,0.5-2.8,0.8c-1,0.4-1.8,0.7-2.8,1.1c-0.8,0.4-1.7,0.7-2.3,1.1l1,3.3
			c0.5-0.2,1.2-0.6,1.9-1s1.4-0.6,2.3-1c0.7-0.2,1.6-0.5,2.3-0.6c0.7-0.1,1.3-0.2,1.8-0.2c1.8,0,2.9,0.4,3.5,1
			c0.5,0.7,0.6,1.9,0.2,3.6l-0.6,2.9l-15.3,2.9l-1.6,7c-0.5,2.4-0.2,4.1,1,5.3s3,1.8,5.5,1.8c1.6,0,3-0.4,4.5-1.2
			c1.3-0.8,2.5-1.8,3.5-3l-0.5,3.6h3.6l4.2-19.4c0.6-2.9,0.4-4.9-0.7-6.4C364.6,140.9,362.5,140.3,359.5,140.3 M300.1,159.4
			c-0.4,1.8-1.2,3.1-2.4,4c-1.2,0.8-2.7,1.3-4.5,1.3s-3.1-0.6-4-1.7s-1.1-2.5-0.7-4.3l1.9-8.7c0.4-1.7,1.2-3.1,2.7-4.2
			c1.3-1.1,2.9-1.7,4.7-1.7s3.1,0.5,4,1.3c0.8,0.8,1.1,2.2,0.6,3.9L300.1,159.4z M299.7,140.3c-1.6,0-3.1,0.4-4.6,1.1
			c-1.4,0.7-2.8,1.7-3.9,3l0.4-3.5H288l-9.8,44.8h4.5l4.5-20.5c0.5,1.2,1.3,2.2,2.4,2.7c1.2,0.5,2.4,0.7,3.9,0.7
			c3,0,5.4-0.8,7.2-2.4c1.9-1.6,3.1-3.9,3.7-6.8l2.2-10.2c0.6-3,0.4-5.2-0.7-6.8C304.9,141,302.9,140.3,299.7,140.3 M275.9,157.1
			c-0.5,2.5-1.7,4.3-3.6,5.7c-1.8,1.2-4,1.9-6.3,1.9c-1.2,0-2.2-0.1-3.1-0.4s-1.7-0.7-2.4-1.3c-0.6-0.6-1.1-1.3-1.3-2.3
			c-0.2-1-0.2-2.2,0.1-3.5l5.5-25.8h-4.5l-5.5,25.8c-0.7,3.5-0.2,6.3,1.4,8.3c1.7,2,4.7,3,8.9,3c1.8,0,3.5-0.2,5.2-0.7
			c1.7-0.5,3.1-1.1,4.5-2c1.3-1,2.5-2.2,3.5-3.5c1-1.4,1.7-3.1,2-5.1l5.5-25.8h-4.5L275.9,157.1z M338.2,164.1
			c-0.7,0.1-1.6,0.2-2.3,0.2c-0.7,0-1.2-0.2-1.6-0.8c-0.4-0.6-0.5-1.4-0.2-2.5l3.7-17h6.3l0.7-3.3h-6.3l1.8-8.2l0,0
			c0.6-3,0.1-5.5-1.3-7.1c-1.4-1.7-3.7-2.4-6-2.4c-2.8,0-5.8,1-8.3,2.8c-2.5,1.8-4.7,4.6-5.4,7.8c-0.5,2.3-0.4,4.3,0.7,6.6h-0.1
			c-2.7,0-4.9,0.7-6.8,2c-1.8,1.3-2.9,3.1-3.5,5.4c-0.2,1.1-0.2,2-0.1,2.8c0.1,0.7,0.5,1.4,1,2c0.5,0.6,1.1,1.2,1.8,1.7
			c0.7,0.5,1.6,1.1,2.5,1.7c0.7,0.5,1.3,0.8,2,1.3c0.6,0.4,1.2,0.7,1.6,1.1c0.5,0.4,0.7,0.7,1,1.2c0.2,0.5,0.2,1,0.1,1.6
			c-0.4,1.6-1,2.5-1.9,3c-1,0.5-2.2,0.7-3.7,0.7c-1,0-2-0.2-3.1-0.7c-1.1-0.5-1.9-1.4-2.7-2.8l-3.3,2.8c0.8,1.4,1.9,2.5,3.1,3.3
			c1.3,0.7,3,1.1,5.1,1.1c2.7,0,5.1-0.6,7-1.9c2-1.3,3.4-3.3,4-6c0.2-1.1,0.2-2,0.1-2.8c-0.1-0.7-0.5-1.4-1-2
			c-0.5-0.6-1.1-1.1-1.9-1.6c-0.7-0.5-1.7-1-2.7-1.6c-0.5-0.4-1.1-0.7-1.7-1c-0.6-0.4-1.2-0.7-1.7-1.1c-0.5-0.4-0.8-0.8-1.2-1.2
			c-0.2-0.5-0.4-1-0.2-1.7c0.2-1.3,0.8-2.2,1.8-2.8c1-0.6,2-0.8,3.5-0.8c1,0,1.9,0.2,2.8,0.8c0.8,0.5,1.4,1.1,2,1.8l3-2.8
			c-0.2-0.2-0.5-0.6-0.7-0.8c-0.4-0.5-0.7-1-1-1.3l0,0c-3.9-5.3-4.9-10.5,1.1-13.7c4.2-2.2,7-1.2,8.6,0l0,0c0.1,0,0.1,0.1,0.1,0.1
			c0.1,0.1,0.2,0.2,0.4,0.4c0.7,0.8,1.1,2,0.6,4.3l-0.1,0.5l0,0l-1.7,7.6h-4.5l-0.7,3.3h4.5l-3.7,17.5c-0.5,2.3-0.4,4,0.4,5.2
			c0.7,1.1,2.3,1.7,4.8,1.7c1.1,0,2.2-0.2,3.4-0.6s2.3-0.7,3.3-1.2l-0.2-3.3C339.9,163.7,338.9,164,338.2,164.1"/>
	</g>
</g>
</svg>
