<?xml version="1.0" encoding="utf-8"?>
<!-- Generator: Adobe Illustrator 17.1.0, SVG Export Plug-In . SVG Version: 6.00 Build 0)  -->
<!DOCTYPE svg PUBLIC "-//W3C//DTD SVG 1.1//EN" "http://www.w3.org/Graphics/SVG/1.1/DTD/svg11.dtd">
<svg version="1.1" id="Layer_1" xmlns="http://www.w3.org/2000/svg" xmlns:xlink="http://www.w3.org/1999/xlink" x="0px" y="0px"
	 viewBox="-54.2 -135.2 852.1 693.1" enable-background="new -54.2 -135.2 852.1 693.1" xml:space="preserve">
<g id="Layer_2" display="none">
</g>
<g id="Layer_1_1_">
	<polygon fill="#848484" points="471.7,407.1 275.8,407.1 290.6,292.6 456.8,292.6 	"/>
	<path fill="#C0C2C4" d="M471.7,407.1l29.5,25.4c0,7.1-9.5,12.8-21.1,12.8H267.6c-11.7,0-21.1-5.7-21.1-12.8l29.5-25.4"/>
	<path fill="#1C262D" stroke="#BABABA" stroke-width="27.1279" stroke-miterlimit="10" d="M706.5,364.4H41.1c-5.3,0-9.7-4.4-9.7-9.7
		V-12.6c0-5.3,4.4-9.7,9.7-9.7h665.3c5.3,0,9.7,4.4,9.7,9.7v367.3C716.1,360.1,711.7,364.4,706.5,364.4z"/>
	<g>
		<path fill="#FFFFFF" d="M427.8,161.5c-1.8,0-3.5,0.4-5,1.3c-1.5,0.9-3,1.9-4,3.4c-0.3-1.8-0.9-3-1.9-3.7c-1-0.6-2.6-1-4.5-1
			c-1.8,0-3.4,0.4-4.8,1.3c-1.4,0.9-2.7,2.1-3.9,3.5l0.6-4.1h-4.3l-6.3,29.1h4.8l3.9-17.7c0.1-0.9,0.5-1.8,1-2.7
			c0.5-0.9,1.2-1.8,1.8-2.6c0.8-0.8,1.5-1.4,2.4-1.9c0.9-0.5,1.8-0.8,2.7-0.8c1.8,0,2.8,0.5,3.2,1.5c0.4,1,0.4,2.3,0.1,4l-4.4,20.1
			h4.8l4-18.3c0.3-0.9,0.5-1.8,1-2.7c0.5-0.9,1-1.7,1.8-2.3c0.6-0.6,1.4-1.2,2.3-1.5s1.8-0.6,2.7-0.6c1.8,0,3,0.4,3.5,1.2
			c0.5,0.8,0.6,2.1,0.3,3.7l-4.5,20.6h4.8l4.6-21.3c0.6-3,0.5-5.2-0.5-6.4C433.1,162.1,431,161.5,427.8,161.5 M366.7,187
			c-0.8,0.1-1.7,0.3-2.4,0.3c-0.8,0-1.3-0.3-1.7-0.9c-0.4-0.6-0.5-1.5-0.3-2.7l4-18.2h6.7l0.8-3.5h-6.7l1.9-8.8h-4.6l-1.9,8.8h-4.8
			l-0.8,3.5h4.8l-4,18.7c-0.5,2.4-0.4,4.3,0.4,5.5c0.8,1.2,2.4,1.8,5.2,1.8c1.2,0,2.3-0.3,3.6-0.6c1.3-0.4,2.4-0.8,3.5-1.3l-0.3-3.5
			C368.4,186.5,367.5,186.9,366.7,187 M378.3,171.1c0.4-1.7,1.3-3.1,2.7-4.1c1.4-1,3-1.5,4.8-1.5c1.7,0,2.8,0.4,3.5,1.3
			c0.6,0.8,0.9,2.1,0.8,3.6l-0.4,2.6l-12.1,2.1L378.3,171.1z M385.5,187c-1.2,0.4-2.4,0.6-3.6,0.6c-2.1,0-3.7-0.5-4.8-1.7
			c-1-1-1.4-2.6-1-4.6l0.6-3l16.9-2.8l0.9-4.4c0.3-1.4,0.4-2.8,0.1-4c-0.3-1.2-0.8-2.2-1.4-3.1c-0.6-0.9-1.7-1.5-2.7-1.9
			c-1.2-0.4-2.4-0.6-4-0.6c-1.5,0-3.1,0.3-4.5,0.6c-1.4,0.5-2.7,1.2-3.9,1.9c-1.2,0.8-2.1,1.8-2.8,3.1c-0.8,1.2-1.4,2.6-1.7,4.1
			l-2.2,10.1c-0.8,3.5-0.3,6.1,1.4,7.7c1.7,1.8,4.3,2.7,7.9,2.7c1.9,0,3.7-0.3,5.4-0.9c1.7-0.5,3.5-1.5,5.2-3l-1.9-3.1
			C388.1,185.8,386.7,186.5,385.5,187 M499,186.1c-1.2,0.5-2.2,0.8-3,1c-0.8,0.1-1.7,0.3-2.4,0.3c-0.8,0-1.3-0.3-1.7-0.9
			c-0.4-0.6-0.5-1.5-0.3-2.7l4-18.2h6.7l0.8-3.5h-6.7l1.9-8.8h-4.6l-1.9,8.8H487l-0.8,3.5h4.8l-4,18.7c-0.5,2.4-0.4,4.3,0.4,5.5
			c0.8,1.2,2.4,1.8,5.2,1.8c1.2,0,2.3-0.3,3.5-0.6c1.3-0.4,2.4-0.8,3.5-1.3L499,186.1z M442,171.1c0.4-1.7,1.3-3.1,2.7-4.1
			c1.4-1,3-1.5,4.8-1.5c1.7,0,2.8,0.4,3.5,1.3c0.6,0.8,0.9,2.1,0.8,3.6l-0.4,2.6l-12.1,2.1L442,171.1z M449.2,187
			c-1.2,0.4-2.4,0.6-3.6,0.6c-2.1,0-3.7-0.5-4.8-1.7c-1-1-1.4-2.6-1-4.6l0.6-3l16.9-2.8l0.9-4.4c0.3-1.4,0.4-2.8,0.1-4
			c-0.3-1.2-0.6-2.2-1.4-3.1c-0.6-0.9-1.7-1.5-2.8-1.9s-2.4-0.6-4-0.6c-1.5,0-3.1,0.3-4.5,0.6c-1.4,0.5-2.7,1.2-3.9,1.9
			c-1.2,0.8-2.1,1.8-2.8,3.1c-0.8,1.2-1.3,2.6-1.7,4.1l-2.2,10.1c-0.8,3.5-0.3,6.1,1.4,7.7c1.7,1.8,4.3,2.7,7.9,2.7
			c1.9,0,3.7-0.3,5.4-0.9c1.7-0.5,3.5-1.5,5.2-3l-1.9-3.1C451.7,185.8,450.4,186.5,449.2,187 M476.8,161.3c-1.9,0-3.6,0.4-5,1.2
			c-1.4,0.8-2.7,1.9-4.1,3.4l0.5-3.9h-4.4l-6.3,29.1h4.8l3.9-17.9c0.3-0.9,0.6-1.8,1.2-2.7c0.6-0.9,1.3-1.7,2.2-2.4
			c0.8-0.8,1.7-1.3,2.7-1.8c1-0.5,1.9-0.6,3-0.6c1.9,0,3.1,0.5,3.6,1.7c0.5,1,0.5,2.6,0.1,4.4l-4.3,19.6h4.8l4.4-20.2
			c0.6-3.1,0.5-5.4-0.5-7.1C482.1,162.2,480,161.3,476.8,161.3 M347.4,181.8c-0.1,0.8-0.5,1.5-0.9,2.3c-0.5,0.6-1,1.3-1.7,1.8
			c-0.6,0.5-1.4,0.9-2.2,1.2c-0.8,0.3-1.5,0.4-2.4,0.4c-1.4,0-2.4-0.3-3.4-0.9c-0.8-0.5-1-1.5-0.8-2.8l1-4.8l11.3-2.2L347.4,181.8z
			 M347.2,161.5c-0.8,0-1.7,0.1-2.7,0.3c-1,0.3-2.1,0.5-3,0.9c-1,0.4-1.9,0.8-3,1.2c-0.9,0.4-1.8,0.8-2.4,1.2l1,3.5
			c0.5-0.3,1.3-0.6,2.1-1s1.5-0.6,2.4-1c0.8-0.3,1.7-0.5,2.4-0.6c0.8-0.1,1.4-0.3,1.9-0.3c1.9,0,3.1,0.4,3.7,1
			c0.5,0.8,0.6,2.1,0.3,3.9l-0.6,3.1l-16.4,3.1l-1.7,7.5c-0.5,2.6-0.3,4.4,1,5.7c1.3,1.3,3.2,1.9,5.9,1.9c1.7,0,3.2-0.4,4.8-1.3
			c1.4-0.9,2.7-1.9,3.7-3.2l-0.5,3.9h3.9l4.5-20.8c0.6-3.1,0.4-5.3-0.8-6.8C352.7,162.1,350.5,161.5,347.2,161.5 M283.7,182
			c-0.4,1.9-1.3,3.4-2.6,4.3c-1.3,0.9-2.8,1.4-4.8,1.4c-1.9,0-3.4-0.6-4.3-1.8c-0.9-1.2-1.2-2.7-0.8-4.6l2.1-9.3
			c0.4-1.8,1.3-3.4,2.8-4.5c1.4-1.2,3.1-1.8,5-1.8s3.4,0.5,4.3,1.4c0.9,0.9,1.2,2.3,0.6,4.1L283.7,182z M283.3,161.5
			c-1.7,0-3.4,0.4-4.9,1.2c-1.5,0.8-3,1.8-4.1,3.2l0.4-3.7h-3.9l-10.4,48h4.8l4.8-21.9c0.5,1.3,1.4,2.3,2.6,2.8
			c1.3,0.5,2.6,0.8,4.1,0.8c3.2,0,5.8-0.9,7.7-2.6c2.1-1.7,3.4-4.1,4-7.2l2.3-11c0.6-3.2,0.4-5.5-0.8-7.2
			C288.8,162.2,286.5,161.5,283.3,161.5 M257.8,179.5c-0.5,2.7-1.8,4.6-3.9,6.1c-1.9,1.3-4.3,2.1-6.7,2.1c-1.3,0-2.3-0.1-3.4-0.4
			c-1-0.3-1.8-0.8-2.6-1.4c-0.6-0.6-1.2-1.4-1.4-2.4c-0.3-1-0.3-2.3,0.1-3.7l5.9-27.6h-4.8l-5.9,27.6c-0.8,3.7-0.3,6.7,1.5,8.9
			s5,3.2,9.5,3.2c1.9,0,3.7-0.3,5.5-0.8c1.8-0.5,3.4-1.2,4.8-2.2c1.4-1,2.7-2.3,3.7-3.7c1-1.5,1.8-3.4,2.2-5.4l5.9-27.6h-4.8
			L257.8,179.5z M324.4,187c-0.8,0.1-1.7,0.3-2.4,0.3c-0.8,0-1.3-0.3-1.7-0.9c-0.4-0.6-0.5-1.5-0.3-2.7l4-18.2h6.7l0.8-3.5h-6.7
			l1.9-8.8l0,0c0.6-3.2,0.1-5.9-1.4-7.6c-1.5-1.8-4-2.6-6.4-2.6c-3,0-6.2,1-8.9,3c-2.7,1.9-5,4.9-5.8,8.4c-0.5,2.4-0.3,4.6,0.8,7.1
			h-0.1c-2.8,0-5.3,0.8-7.2,2.2c-1.9,1.4-3.1,3.4-3.7,5.8c-0.3,1.2-0.3,2.2-0.1,3c0.1,0.8,0.5,1.5,1,2.2c0.5,0.6,1.2,1.3,1.9,1.8
			c0.8,0.5,1.7,1.2,2.7,1.8c0.8,0.5,1.4,0.9,2.2,1.4c0.6,0.4,1.3,0.8,1.7,1.2c0.5,0.4,0.8,0.8,1,1.3c0.3,0.5,0.3,1,0.1,1.7
			c-0.4,1.7-1,2.7-2.1,3.2c-1,0.5-2.3,0.8-4,0.8c-1,0-2.2-0.3-3.4-0.8c-1.2-0.5-2.1-1.5-2.8-3l-3.5,3c0.9,1.5,2.1,2.7,3.4,3.5
			c1.4,0.8,3.2,1.2,5.4,1.2c2.8,0,5.4-0.6,7.5-2.1c2.2-1.4,3.6-3.5,4.3-6.4c0.3-1.2,0.3-2.2,0.1-3c-0.1-0.8-0.5-1.5-1-2.2
			c-0.5-0.6-1.2-1.2-2.1-1.7c-0.8-0.5-1.8-1-2.8-1.7c-0.5-0.4-1.2-0.8-1.8-1c-0.6-0.4-1.3-0.8-1.8-1.2c-0.5-0.4-0.9-0.9-1.3-1.3
			c-0.3-0.5-0.4-1-0.3-1.8c0.3-1.4,0.9-2.3,1.9-3c1-0.6,2.2-0.9,3.7-0.9c1,0,2.1,0.3,3,0.9c0.9,0.5,1.5,1.2,2.2,1.9l3.2-3
			c-0.3-0.3-0.5-0.6-0.8-0.9c-0.4-0.5-0.8-1-1-1.4l0,0c-4.1-5.7-5.3-11.2,1.2-14.7c4.5-2.3,7.5-1.3,9.2,0l0,0c0.1,0,0.1,0.1,0.1,0.1
			c0.1,0.1,0.3,0.3,0.4,0.4c0.8,0.9,1.2,2.2,0.6,4.6l-0.1,0.5l0,0l-1.8,8.1h-4.8l-0.8,3.5h4.8l-4,18.7c-0.5,2.4-0.4,4.3,0.4,5.5
			c0.8,1.2,2.4,1.8,5.2,1.8c1.2,0,2.3-0.3,3.6-0.6s2.4-0.8,3.5-1.3l-0.3-3.5C326.2,186.5,325.2,186.9,324.4,187"/>
	</g>
</g>
</svg>
