<?xml version="1.0" encoding="utf-8"?>
<!-- Generator: Adobe Illustrator 17.1.0, SVG Export Plug-In . SVG Version: 6.00 Build 0)  -->
<!DOCTYPE svg PUBLIC "-//W3C//DTD SVG 1.1//EN" "http://www.w3.org/Graphics/SVG/1.1/DTD/svg11.dtd">
<svg version="1.1" id="Layer_1" xmlns="http://www.w3.org/2000/svg" xmlns:xlink="http://www.w3.org/1999/xlink" x="0px" y="0px"
	 viewBox="-54.2 -135.2 852.1 693.1" enable-background="new -54.2 -135.2 852.1 693.1" xml:space="preserve">
<g id="Layer_2" display="none">
</g>
<g id="Layer_1_1_">
	<circle fill="#343435" cx="376.2" cy="425.6" r="21.7"/>
	<path d="M496.3-57.2H233.8c-12.2,0-21.9,9.8-21.9,21.9v481.2c0,12.2,9.8,21.9,21.9,21.9h262.5c12.2,0,21.9-9.8,21.9-21.9V-35.3
		C518.3-47.5,508.4-57.2,496.3-57.2z M355.3-38.4h42.4v6.2h-42.4V-38.4z M376.2,443.1c-9.6,0-17.4-7.8-17.4-17.4s7.8-17.4,17.4-17.4
		c9.6,0,17.4,7.8,17.4,17.4C393.5,435.3,385.7,443.1,376.2,443.1z M491.9,384.1H239.3V-4h252.6V384.1z"/>
	<path fill="none" stroke="#9E9E9E" stroke-width="11.725" stroke-miterlimit="10" d="M496.8-57.2H234.3c-12.2,0-21.9,9.8-21.9,21.9
		v481.2c0,12.2,9.8,21.9,21.9,21.9h262.5c12.2,0,21.9-9.8,21.9-21.9V-35.3C518.8-47.5,509-57.2,496.8-57.2z"/>
	<rect x="239.3" y="-4" fill="#1C262D" width="252.6" height="392"/>
	<path fill="#FFFFFF" d="M397.2,234.6c-1.7,0.4-3.3,0.6-5,0.6c-1.5,0-2.7-0.7-3.5-2c-0.8-1.3-1-3.1-0.5-5.5l8.2-37.5h17.7l1.6-7.2
		h-17.7l3.9-18h-0.1c1.4-6.7,0.3-12.2-2.9-15.8c-3.2-3.7-8.2-5.3-13.3-5.3c-6.1,0-12.7,2.1-18.4,6.1c-5.7,3.9-10.4,10-12,17.3
		c-1,5-0.7,9.6,1.5,14.5c-0.1,0-0.2,0-0.3,0c-5.9,0-11,1.5-14.9,4.4c-4,3-6.5,7-7.6,12c-0.6,2.4-0.6,4.6-0.2,6.2
		c0.4,1.7,1.1,3.3,2.2,4.6c1,1.4,2.4,2.6,4.1,3.7c1.7,1.1,3.5,2.3,5.5,3.6c1.6,1,3.1,2,4.5,2.8c1.4,0.8,2.6,1.6,3.5,2.4
		c0.9,0.7,1.7,1.7,2,2.6c0.5,0.9,0.5,2.1,0.2,3.5c-0.7,3.3-2.1,5.6-4.3,6.7s-4.8,1.7-8.3,1.7c-2.2,0-4.6-0.6-6.8-1.6
		c-2.3-1-4.4-3.1-5.9-6.1l-7.2,6.1c1.8,3.2,4.2,5.5,7,7.2c2.9,1.7,6.6,2.5,11.1,2.5c5.9,0,11.1-1.4,15.5-4.2
		c4.5-2.8,7.3-7.2,8.6-13.3c0.6-2.4,0.7-4.6,0.4-6.1c-0.4-1.7-1-3.2-2.1-4.4c-1-1.3-2.4-2.4-4.1-3.5c-1.7-1-3.6-2.2-5.8-3.5
		c-1.1-0.7-2.3-1.5-3.7-2.2c-1.3-0.7-2.6-1.5-3.6-2.3c-1.1-0.8-2-1.8-2.6-2.8c-0.7-1-0.8-2.2-0.5-3.6c0.7-2.9,2-4.9,4-6.1
		c2-1.3,4.6-2,7.6-2c2.2,0,4.3,0.6,6.1,1.8c1.9,1.2,3.3,2.5,4.5,4l6.8-6.2c-0.5-0.7-1.1-1.3-1.7-2c-0.8-1-1.6-2-2.2-3l0,0
		c-8.5-11.8-10.9-23.2,2.3-30.2c9.2-4.8,15.5-2.6,18.8,0.1l0,0c0.2,0.1,0.3,0.3,0.4,0.4c0.3,0.3,0.7,0.5,0.9,0.8
		c1.5,1.8,2.4,4.6,1.4,9.5l-0.2,1l0,0l-3.6,16.7h-9.8l-1.6,7.2h9.8l-8.4,38.4c-1.1,5-0.8,8.8,0.8,11.3c1.7,2.5,5.1,3.7,10.5,3.7
		c2.3,0,4.7-0.4,7.3-1.2c2.5-0.7,4.9-1.7,7.1-2.7l-0.7-7.2C400.9,233.5,398.8,234.2,397.2,234.6"/>
</g>
</svg>
