<?xml version="1.0" encoding="utf-8"?>
<!-- Generator: Adobe Illustrator 17.1.0, SVG Export Plug-In . SVG Version: 6.00 Build 0)  -->
<!DOCTYPE svg PUBLIC "-//W3C//DTD SVG 1.1//EN" "http://www.w3.org/Graphics/SVG/1.1/DTD/svg11.dtd">
<svg version="1.1" xmlns="http://www.w3.org/2000/svg" xmlns:xlink="http://www.w3.org/1999/xlink" x="0px" y="0px"
	 viewBox="-2749.4 192.6 918 918" enable-background="new -2749.4 192.6 918 918" xml:space="preserve">
<g id="Layer_2" display="none">
</g>
<g id="Layer_1">
	<path fill="#464747" d="M-2129.2,910.1h-304.3c-8,0-14.6-6.7-14.6-14.9V412.2c0-8.2,6.5-14.9,14.6-14.9h304.3
		c8,0,14.6,6.7,14.6,14.9v483.1C-2114.6,903.4-2121.1,910.1-2129.2,910.1z"/>
	<rect x="-2417.2" y="435.9" fill="#828282" width="274.7" height="386.2"/>
	<path fill="none" stroke="#828282" stroke-width="5.7298" stroke-miterlimit="10" d="M-2265,887.8h-29.6c-3.7,0-6.6-3-6.6-6.6
		v-29.6c0-3.7,3-6.6,6.6-6.6h29.6c3.7,0,6.6,3,6.6,6.6v29.6C-2258.4,884.8-2261.4,887.8-2265,887.8z"/>
	<path fill="#828282" d="M-2272.1,877.8h-15.4c-1.9,0-3.5-1.6-3.5-3.5v-15.4c0-1.9,1.6-3.5,3.5-3.5h15.4c1.9,0,3.5,1.5,3.5,3.5v15.4
		C-2268.6,876.2-2270.2,877.8-2272.1,877.8z"/>
	<circle fill="#828282" cx="-2220.6" cy="866.4" r="10.5"/>
	<circle fill="#828282" cx="-2180.4" cy="866.4" r="10.5"/>
	<circle fill="#828282" cx="-2381.1" cy="866.4" r="10.5"/>
	<circle fill="#828282" cx="-2340.9" cy="866.4" r="10.5"/>
	<path fill="#3A3A3A" d="M-2249.7,657.6c-1.8,0.4-3.6,0.6-5.4,0.6c-1.6,0-2.9-0.7-3.8-2.1c-0.9-1.4-1.1-3.3-0.5-5.9l8.8-40.5h19.1
		l1.7-7.8h-19.1l4.2-19.4h-0.1c1.5-7.2,0.3-13.1-3.1-17c-3.5-4-8.8-5.7-14.3-5.7c-6.6,0-13.7,2.3-19.8,6.6
		c-6.1,4.3-11.2,10.8-12.9,18.6c-1.2,5.4-0.7,10.3,1.6,15.6c-0.1,0-0.2,0-0.3,0c-6.4,0-11.8,1.6-16.1,4.7c-4.3,3.2-7,7.5-8.2,12.9
		c-0.6,2.6-0.6,4.9-0.2,6.7c0.4,1.8,1.2,3.5,2.4,4.9c1.2,1.5,2.6,2.8,4.4,4.1c1.8,1.2,3.8,2.5,6,3.9c1.7,1.2,3.3,2.1,4.8,3
		c1.5,0.9,2.8,1.7,3.8,2.6c1,0.9,1.8,1.8,2.2,2.8c0.5,1,0.5,2.3,0.2,3.8c-0.8,3.6-2.3,6-4.6,7.2c-2.3,1.2-5.2,1.8-8.9,1.8
		c-2.4,0-4.9-0.6-7.3-1.7c-2.5-1.1-4.7-3.3-6.5-6.6l-7.8,6.6c1.9,3.4,4.5,5.9,7.6,7.7c3.1,1.8,7.1,2.7,12,2.7
		c6.3,0,11.9-1.5,16.7-4.6c4.8-3,7.9-7.8,9.3-14.3c0.6-2.6,0.7-4.9,0.4-6.7c-0.4-1.8-1.1-3.4-2.3-4.7c-1.1-1.4-2.6-2.6-4.4-3.8
		c-1.8-1.1-3.9-2.4-6.2-3.8c-1.2-0.8-2.5-1.6-4-2.4c-1.4-0.8-2.8-1.6-3.9-2.5c-1.2-0.9-2.1-1.9-2.8-3c-0.7-1.1-0.9-2.4-0.5-3.9
		c0.7-3.1,2.1-5.3,4.3-6.7c2.2-1.4,4.9-2.1,8.2-2.1c2.4,0,4.6,0.6,6.6,1.9c2,1.3,3.6,2.7,4.8,4.3l7.3-6.7c-0.5-0.7-1.2-1.4-1.8-2.1
		c-0.9-1.1-1.7-2.2-2.4-3.2l0,0c-9.1-12.8-11.7-25,2.5-32.5c10-5.3,16.7-2.8,20.2,0.1c0,0,0,0,0,0c0.2,0.1,0.3,0.3,0.4,0.4
		c0.3,0.3,0.7,0.5,1,0.9c1.6,1.9,2.6,4.9,1.5,10.2l-0.2,1.1h0l-3.9,18h-10.7l-1.7,7.8h10.5l-9,41.4c-1.2,5.5-0.9,9.5,0.9,12.2
		c1.8,2.7,5.6,4,11.4,4c2.5,0,5.1-0.4,7.9-1.3c2.8-0.9,5.3-1.8,7.7-2.9l-0.7-7.8C-2245.7,656.5-2247.9,657.3-2249.7,657.6"/>
</g>
</svg>
