<?xml version="1.0" encoding="utf-8"?>
<!-- Generator: Adobe Illustrator 17.0.2, SVG Export Plug-In . SVG Version: 6.00 Build 0)  -->
<!DOCTYPE svg PUBLIC "-//W3C//DTD SVG 1.1//EN" "http://www.w3.org/Graphics/SVG/1.1/DTD/svg11.dtd">
<svg version="1.1" id="Layer_1" xmlns="http://www.w3.org/2000/svg" xmlns:xlink="http://www.w3.org/1999/xlink" x="0px" y="0px"
	 width="78.424px" height="78.424px" viewBox="0 0 78.424 78.424" enable-background="new 0 0 78.424 78.424" xml:space="preserve">
<circle fill="#8ED3D7" cx="39.212" cy="39.212" r="39.212"/>
<rect x="14.322" y="21.967" fill="#D7DEE0" width="50.667" height="33.672"/>
<path fill="#485259" d="M129.48,12.248h-26.664c-1.139,0-2.063,0.924-2.063,2.063v52.21c0,1.139,0.924,2.063,2.063,2.063h26.664
	c1.139,0,2.063-0.924,2.063-2.063v-52.21C131.543,13.172,130.619,12.248,129.48,12.248z M114.231,14.021h3.982v0.583h-3.982V14.021z
	 M116.193,66.258c-0.901,0-1.632-0.731-1.632-1.632c0-0.901,0.731-1.632,1.632-1.632c0.901,0,1.632,0.731,1.632,1.632
	C117.825,65.527,117.094,66.258,116.193,66.258z M129.07,61.712h-25.74V16.255h25.74V61.712z"/>
<circle fill="#C9C9C9" cx="114.2" cy="62.613" r="2.042"/>
<path fill="#FFFFFF" d="M127.48,10.248h-26.664c-1.139,0-2.063,0.924-2.063,2.063v52.21c0,1.139,0.924,2.063,2.063,2.063h26.664
	c1.139,0,2.063-0.924,2.063-2.063v-52.21C129.543,11.172,128.619,10.248,127.48,10.248z M112.231,12.021h3.982v0.583h-3.982V12.021z
	 M114.193,64.258c-0.901,0-1.632-0.731-1.632-1.632c0-0.901,0.731-1.632,1.632-1.632c0.901,0,1.632,0.731,1.632,1.632
	C115.825,63.527,115.094,64.258,114.193,64.258z M127.07,59.712h-25.74V14.255h25.74V59.712z"/>
<rect x="101.33" y="14.255" fill="#010203" width="25.74" height="45.457"/>
<path fill="#FFFFFF" d="M118.226,40.795c-0.202,0.045-0.407,0.068-0.615,0.068c-0.186,0-0.332-0.076-0.433-0.232
	c-0.101-0.155-0.121-0.378-0.059-0.663l0.991-4.572h2.157l0.189-0.88h-2.156l0.475-2.191h-0.006
	c0.174-0.811,0.035-1.482-0.352-1.925c-0.39-0.45-0.992-0.645-1.619-0.645c-0.743,0.001-1.547,0.262-2.239,0.749
	c-0.691,0.48-1.27,1.221-1.457,2.101c-0.13,0.61-0.08,1.164,0.183,1.765c-0.014,0-0.023-0.001-0.038-0.001
	c-0.728,0-1.332,0.176-1.815,0.535c-0.483,0.358-0.792,0.846-0.925,1.461c-0.065,0.296-0.073,0.551-0.023,0.759
	c0.047,0.207,0.138,0.395,0.269,0.558c0.13,0.166,0.297,0.318,0.501,0.458c0.203,0.136,0.428,0.287,0.673,0.444
	c0.194,0.13,0.372,0.242,0.544,0.343c0.17,0.099,0.313,0.195,0.427,0.289c0.116,0.096,0.198,0.202,0.251,0.321
	c0.053,0.118,0.058,0.263,0.022,0.432c-0.087,0.406-0.26,0.677-0.521,0.813c-0.255,0.134-0.592,0.202-1.009,0.202
	c-0.27,0-0.549-0.065-0.83-0.196c-0.286-0.128-0.528-0.374-0.729-0.744l-0.878,0.744c0.218,0.379,0.506,0.669,0.854,0.873
	c0.353,0.203,0.804,0.306,1.356,0.306c0.714,0,1.346-0.171,1.887-0.514c0.543-0.342,0.894-0.882,1.053-1.617
	c0.066-0.298,0.078-0.55,0.04-0.752c-0.042-0.204-0.126-0.382-0.256-0.536c-0.127-0.156-0.295-0.297-0.501-0.428
	c-0.206-0.127-0.442-0.27-0.701-0.429c-0.135-0.09-0.287-0.178-0.45-0.271c-0.161-0.09-0.312-0.181-0.446-0.28
	c-0.135-0.103-0.241-0.211-0.319-0.335c-0.079-0.125-0.098-0.27-0.061-0.44c0.074-0.349,0.235-0.601,0.482-0.751
	c0.247-0.154,0.558-0.232,0.931-0.232c0.272,0,0.517,0.073,0.741,0.217c0.226,0.143,0.404,0.304,0.541,0.485l0.825-0.762
	c-0.059-0.079-0.131-0.158-0.207-0.238c-0.102-0.127-0.194-0.244-0.271-0.361l-0.004,0.001c-1.031-1.44-1.323-2.823,0.286-3.674
	c1.124-0.593,1.888-0.32,2.282,0.011c0,0.001,0.002,0.003,0.003,0.003c0.017,0.014,0.033,0.03,0.05,0.042
	c0.039,0.031,0.079,0.062,0.111,0.097c0.183,0.217,0.29,0.555,0.165,1.15l-0.026,0.127h0.004l-0.441,2.037h-1.203l-0.19,0.88h1.186
	l-1.013,4.675c-0.135,0.616-0.101,1.075,0.097,1.38c0.201,0.303,0.627,0.455,1.283,0.455c0.281,0,0.577-0.05,0.891-0.151
	c0.311-0.096,0.6-0.206,0.865-0.327l-0.074-0.877C118.677,40.668,118.428,40.752,118.226,40.795"/>
<rect x="16.949" y="24.65" fill="#010203" width="45.406" height="25.323"/>
<circle fill="#C9C9C9" cx="40.033" cy="52.592" r="1.455"/>
<polygon fill="#A0AAAA" points="35.45,55.639 35.158,59.014 45.054,59.014 44.681,55.639 "/>
<rect x="30.646" y="59.014" fill="#D7DEE0" width="18.119" height="0.842"/>
<g>
	<path fill="#FFFFFF" d="M48.464,38.048l-0.047,0.273l-1.287,0.215l0.089-0.411c0.039-0.182,0.134-0.327,0.283-0.436
		c0.15-0.107,0.317-0.161,0.504-0.161c0.181,0,0.306,0.045,0.373,0.134C48.445,37.75,48.474,37.88,48.464,38.048 M48.971,37.697
		c-0.026-0.129-0.075-0.239-0.151-0.33c-0.076-0.091-0.174-0.161-0.297-0.209c-0.122-0.048-0.263-0.073-0.423-0.073
		c-0.168,0-0.329,0.025-0.481,0.073c-0.152,0.048-0.288,0.116-0.408,0.206c-0.119,0.088-0.221,0.198-0.307,0.325
		c-0.084,0.13-0.144,0.275-0.179,0.436l-0.234,1.078c-0.079,0.367-0.031,0.646,0.148,0.834c0.179,0.189,0.46,0.283,0.846,0.283
		c0.204,0,0.398-0.031,0.581-0.093c0.183-0.06,0.367-0.165,0.549-0.313l-0.206-0.336c-0.153,0.114-0.292,0.192-0.42,0.235
		c-0.126,0.043-0.256,0.063-0.388,0.063c-0.226,0-0.397-0.057-0.514-0.174c-0.116-0.116-0.151-0.282-0.104-0.499l0.067-0.31
		l1.804-0.298l0.101-0.469C48.991,37.969,48.997,37.826,48.971,37.697"/>
	<path fill="#FFFFFF" d="M41.659,38.048l-0.046,0.273l-1.289,0.215l0.09-0.411c0.038-0.182,0.134-0.327,0.283-0.436
		c0.15-0.107,0.317-0.161,0.503-0.161c0.182,0,0.306,0.045,0.373,0.134C41.641,37.75,41.669,37.88,41.659,38.048 M42.167,37.697
		c-0.025-0.129-0.076-0.239-0.151-0.33c-0.076-0.091-0.174-0.161-0.296-0.209c-0.123-0.048-0.263-0.073-0.423-0.073
		c-0.169,0-0.328,0.025-0.481,0.073c-0.152,0.048-0.288,0.116-0.408,0.206c-0.119,0.088-0.222,0.198-0.306,0.325
		c-0.085,0.13-0.145,0.275-0.179,0.436l-0.233,1.078c-0.08,0.367-0.031,0.646,0.149,0.834c0.178,0.189,0.46,0.283,0.844,0.283
		c0.204,0,0.397-0.031,0.581-0.093c0.183-0.06,0.367-0.165,0.549-0.313l-0.205-0.336c-0.154,0.114-0.293,0.192-0.419,0.235
		c-0.127,0.043-0.257,0.063-0.389,0.063c-0.226,0-0.397-0.057-0.513-0.174c-0.116-0.116-0.152-0.282-0.105-0.499l0.067-0.31
		l1.805-0.298l0.102-0.469C42.188,37.969,42.191,37.826,42.167,37.697"/>
	<path fill="#FFFFFF" d="M37.106,39.274c-0.019,0.088-0.053,0.17-0.103,0.244c-0.048,0.073-0.108,0.137-0.181,0.193
		c-0.072,0.054-0.15,0.098-0.233,0.13c-0.084,0.032-0.171,0.049-0.26,0.049c-0.151,0-0.269-0.031-0.352-0.091
		c-0.084-0.059-0.112-0.16-0.081-0.304l0.111-0.513l1.213-0.234L37.106,39.274z M37.793,37.317
		c-0.123-0.155-0.359-0.232-0.703-0.232c-0.085,0-0.18,0.011-0.286,0.034c-0.107,0.024-0.215,0.053-0.322,0.09
		c-0.107,0.035-0.211,0.076-0.311,0.12c-0.1,0.044-0.186,0.087-0.257,0.129l0.104,0.375c0.061-0.034,0.133-0.07,0.217-0.109
		c0.083-0.037,0.171-0.072,0.258-0.104c0.089-0.031,0.174-0.057,0.257-0.076c0.081-0.019,0.15-0.028,0.209-0.028
		c0.203,0,0.335,0.038,0.395,0.114c0.061,0.076,0.071,0.214,0.027,0.412l-0.071,0.329l-1.748,0.337l-0.172,0.799
		c-0.058,0.27-0.021,0.473,0.114,0.605c0.135,0.135,0.344,0.201,0.628,0.201c0.182,0,0.349-0.045,0.505-0.137
		c0.154-0.09,0.288-0.204,0.401-0.338l-0.057,0.418h0.412l0.479-2.214C37.943,37.713,37.916,37.471,37.793,37.317"/>
	<path fill="#FFFFFF" d="M30.547,38.123l-0.25,1.154c-0.044,0.202-0.134,0.352-0.27,0.452c-0.137,0.098-0.307,0.147-0.51,0.147
		c-0.204,0-0.357-0.063-0.457-0.189c-0.102-0.125-0.13-0.29-0.086-0.492l0.216-0.997c0.042-0.193,0.141-0.352,0.297-0.479
		c0.155-0.125,0.333-0.19,0.532-0.19c0.208,0,0.358,0.051,0.454,0.15C30.565,37.776,30.589,37.924,30.547,38.123 M30.973,37.339
		c-0.13-0.17-0.369-0.253-0.719-0.253c-0.182,0-0.358,0.039-0.528,0.124c-0.171,0.083-0.315,0.197-0.437,0.345l0.042-0.406h-0.418
		l-1.154,5.109h0.511l0.551-2.324c0.053,0.142,0.146,0.242,0.277,0.299c0.131,0.058,0.279,0.087,0.443,0.087
		c0.341,0,0.618-0.09,0.831-0.269c0.214-0.181,0.357-0.437,0.43-0.772l0.254-1.175C31.129,37.764,31.102,37.508,30.973,37.339"/>
	<path fill="#FFFFFF" d="M45.709,37.086c-0.186,0-0.365,0.045-0.538,0.136c-0.172,0.09-0.313,0.212-0.421,0.364
		c-0.03-0.19-0.1-0.321-0.211-0.392c-0.11-0.073-0.271-0.108-0.485-0.108c-0.19,0-0.362,0.046-0.515,0.14
		c-0.153,0.093-0.29,0.216-0.411,0.368l0.069-0.444h-0.452l-0.674,3.108h0.513l0.408-1.885c0.021-0.093,0.058-0.19,0.114-0.291
		c0.055-0.101,0.121-0.194,0.2-0.276c0.077-0.081,0.163-0.15,0.26-0.206c0.095-0.054,0.192-0.082,0.29-0.082
		c0.19,0,0.306,0.053,0.35,0.159c0.043,0.105,0.046,0.249,0.007,0.429l-0.466,2.152h0.511l0.423-1.954
		c0.023-0.102,0.06-0.199,0.113-0.292c0.054-0.093,0.117-0.175,0.19-0.247c0.074-0.072,0.157-0.129,0.25-0.171
		c0.093-0.042,0.188-0.064,0.286-0.064c0.189,0,0.312,0.043,0.366,0.127c0.055,0.085,0.063,0.216,0.024,0.393l-0.478,2.208h0.505
		l0.492-2.271c0.068-0.318,0.049-0.546-0.06-0.689C46.261,37.157,46.04,37.086,45.709,37.086"/>
	<path fill="#FFFFFF" d="M39.165,39.822c-0.087,0.019-0.174,0.029-0.263,0.029c-0.079,0-0.14-0.032-0.184-0.099
		c-0.043-0.066-0.051-0.161-0.025-0.282l0.422-1.946h0.829l0.08-0.375h-0.828l0.142-0.637h-0.5l-0.141,0.637h-0.512l-0.08,0.375
		h0.504l-0.431,1.99c-0.057,0.262-0.043,0.458,0.042,0.587c0.085,0.129,0.267,0.194,0.546,0.194c0.119,0,0.245-0.021,0.379-0.064
		c0.132-0.041,0.256-0.088,0.369-0.139l-0.032-0.373C39.357,39.768,39.25,39.803,39.165,39.822"/>
	<path fill="#FFFFFF" d="M53.158,39.717c-0.127,0.05-0.232,0.086-0.318,0.104c-0.087,0.019-0.174,0.029-0.261,0.029
		c-0.081,0-0.142-0.032-0.185-0.098c-0.043-0.066-0.052-0.161-0.025-0.283l0.422-1.946h0.888l0.081-0.375h-0.888l0.141-0.636h-0.499
		l-0.14,0.636h-0.392l-0.082,0.375h0.387l-0.432,1.99c-0.057,0.262-0.043,0.458,0.042,0.587c0.085,0.129,0.267,0.194,0.545,0.194
		c0.12,0,0.246-0.021,0.379-0.064c0.133-0.041,0.255-0.088,0.369-0.139L53.158,39.717z"/>
	<path fill="#FFFFFF" d="M50.933,37.079c-0.213,0-0.392,0.041-0.537,0.12c-0.147,0.081-0.292,0.201-0.438,0.362l0.056-0.412H49.55
		l-0.674,3.108h0.506l0.414-1.911c0.022-0.098,0.063-0.195,0.126-0.292c0.063-0.097,0.139-0.185,0.228-0.265
		c0.087-0.08,0.185-0.144,0.29-0.192c0.106-0.049,0.21-0.073,0.312-0.073c0.203,0,0.332,0.058,0.387,0.174
		c0.054,0.116,0.06,0.271,0.019,0.464l-0.454,2.095h0.505l0.468-2.157c0.071-0.33,0.052-0.582-0.058-0.757
		C51.507,37.168,51.279,37.079,50.933,37.079"/>
	<path fill="#FFFFFF" d="M27.528,39.019c-0.062,0.284-0.198,0.498-0.408,0.642c-0.21,0.143-0.451,0.215-0.721,0.215
		c-0.132,0-0.253-0.014-0.361-0.048c-0.109-0.031-0.198-0.081-0.27-0.148c-0.071-0.067-0.122-0.157-0.149-0.266
		c-0.026-0.11-0.024-0.241,0.009-0.394l0.638-2.943h-0.504l-0.638,2.943c-0.088,0.403-0.032,0.72,0.165,0.952
		c0.197,0.232,0.536,0.349,1.014,0.349c0.205,0,0.401-0.026,0.588-0.077c0.189-0.05,0.358-0.13,0.51-0.237
		c0.152-0.108,0.283-0.242,0.393-0.405c0.111-0.163,0.189-0.356,0.238-0.581l0.639-2.943h-0.505L27.528,39.019z"/>
	<path fill="#FFFFFF" d="M34.646,39.822c-0.086,0.019-0.173,0.029-0.262,0.029c-0.079,0-0.141-0.032-0.184-0.099
		c-0.043-0.066-0.051-0.161-0.025-0.282l0.422-1.946h0.918l0.08-0.375h-0.918l0.202-0.933h-0.002c0.074-0.345,0.015-0.631-0.15-0.82
		c-0.166-0.192-0.422-0.275-0.689-0.275c-0.316,0.001-0.659,0.112-0.953,0.319c-0.294,0.205-0.541,0.52-0.62,0.894
		c-0.055,0.26-0.034,0.495,0.078,0.751c-0.006,0-0.01,0-0.016,0c-0.31,0-0.567,0.075-0.773,0.228
		c-0.205,0.153-0.337,0.36-0.394,0.622c-0.028,0.126-0.031,0.234-0.01,0.323c0.02,0.088,0.059,0.168,0.115,0.238
		c0.055,0.071,0.126,0.135,0.213,0.195c0.086,0.058,0.182,0.122,0.287,0.189c0.082,0.055,0.158,0.103,0.232,0.146
		c0.073,0.042,0.133,0.083,0.182,0.123c0.049,0.041,0.084,0.086,0.107,0.137c0.023,0.05,0.025,0.112,0.01,0.184
		c-0.037,0.173-0.111,0.288-0.222,0.346c-0.109,0.057-0.252,0.086-0.43,0.086c-0.115,0-0.234-0.028-0.353-0.083
		c-0.122-0.055-0.225-0.159-0.31-0.317l-0.374,0.317c0.093,0.161,0.216,0.285,0.364,0.372c0.15,0.087,0.342,0.13,0.577,0.13
		c0.304,0,0.573-0.073,0.803-0.219c0.231-0.145,0.381-0.375,0.448-0.688c0.028-0.127,0.033-0.234,0.017-0.32
		c-0.018-0.087-0.053-0.163-0.109-0.228c-0.054-0.066-0.126-0.126-0.213-0.182c-0.088-0.054-0.188-0.115-0.298-0.182
		c-0.057-0.038-0.122-0.076-0.192-0.115c-0.069-0.038-0.133-0.077-0.19-0.119c-0.058-0.044-0.103-0.09-0.136-0.143
		c-0.034-0.053-0.042-0.115-0.026-0.187c0.031-0.149,0.1-0.256,0.205-0.32c0.105-0.066,0.237-0.099,0.396-0.099
		c0.116,0,0.22,0.031,0.316,0.092c0.096,0.061,0.172,0.13,0.23,0.206l0.351-0.324c-0.025-0.034-0.056-0.067-0.088-0.101
		c-0.043-0.054-0.082-0.104-0.116-0.154l-0.002,0c-0.439-0.613-0.563-1.202,0.122-1.564c0.479-0.252,0.804-0.136,0.971,0.005
		c0,0,0.001,0.001,0.001,0.001c0.007,0.006,0.014,0.013,0.021,0.018c0.016,0.013,0.034,0.026,0.047,0.041
		c0.078,0.092,0.123,0.236,0.07,0.49l-0.011,0.054h0.002l-0.188,0.867h-0.512l-0.081,0.375h0.505l-0.431,1.99
		c-0.057,0.262-0.043,0.458,0.041,0.587c0.086,0.129,0.267,0.194,0.546,0.194c0.12,0,0.246-0.021,0.379-0.064
		c0.132-0.041,0.255-0.088,0.368-0.139l-0.031-0.373C34.839,39.768,34.733,39.803,34.646,39.822"/>
</g>
</svg>
