<?xml version="1.0" encoding="utf-8"?>
<!-- Generator: Adobe Illustrator 17.1.0, SVG Export Plug-In . SVG Version: 6.00 Build 0)  -->
<!DOCTYPE svg PUBLIC "-//W3C//DTD SVG 1.1//EN" "http://www.w3.org/Graphics/SVG/1.1/DTD/svg11.dtd">
<svg version="1.1" xmlns="http://www.w3.org/2000/svg" xmlns:xlink="http://www.w3.org/1999/xlink" x="0px" y="0px"
	 viewBox="-2689.4 1753.2 918 918" enable-background="new -2689.4 1753.2 918 918" xml:space="preserve">
<g id="Layer_2" display="none">
</g>
<g id="Layer_1">
	<path fill="#2B2B2B" d="M-2156.1,2291.1H-2285l-11.5,88.8h151.8L-2156.1,2291.1z M-2220.6,2359.8c-13.4,0-24.4-10.9-24.4-24.4
		c0-13.4,10.9-24.4,24.4-24.4s24.4,10.9,24.4,24.4C-2196.2,2348.9-2207.1,2359.8-2220.6,2359.8z"/>
	<path fill="#464747" d="M-2144.6,2379.9l22.9,19.7c0,5.5-7.4,9.9-16.4,9.9H-2303c-9.1,0-16.4-4.4-16.4-9.9l22.9-19.7"/>
	<rect x="-2467.9" y="2015" fill="#494949" width="494.7" height="306.8"/>
	<rect x="-2450.7" y="2032.8" width="462.4" height="269.6"/>
	<g>
		<path fill="#FFFFFF" d="M-2169.7,2156.7c-1.4,0-2.7,0.3-3.9,1c-1.2,0.7-2.3,1.5-3.1,2.6c-0.2-1.4-0.7-2.3-1.5-2.9
			c-0.8-0.5-2-0.8-3.5-0.8c-1.4,0-2.6,0.3-3.7,1c-1.1,0.7-2.1,1.6-3,2.7l0.5-3.2h-3.3l-4.9,22.6h3.7l3-13.7c0.1-0.7,0.4-1.4,0.8-2.1
			c0.4-0.7,0.9-1.4,1.4-2c0.6-0.6,1.2-1.1,1.9-1.5c0.7-0.4,1.4-0.6,2.1-0.6c1.4,0,2.2,0.4,2.5,1.2c0.3,0.8,0.3,1.8,0.1,3.1
			l-3.4,15.6h3.7l3.1-14.2c0.2-0.7,0.4-1.4,0.8-2.1c0.4-0.7,0.8-1.3,1.4-1.8c0.5-0.5,1.1-0.9,1.8-1.2c0.7-0.3,1.4-0.5,2.1-0.5
			c1.4,0,2.3,0.3,2.7,0.9c0.4,0.6,0.5,1.6,0.2,2.9l-3.5,16h3.7l3.6-16.5c0.5-2.3,0.4-4-0.4-5
			C-2165.7,2157.2-2167.3,2156.7-2169.7,2156.7 M-2217.2,2176.5c-0.6,0.1-1.3,0.2-1.9,0.2c-0.6,0-1-0.2-1.3-0.7
			c-0.3-0.5-0.4-1.2-0.2-2.1l3.1-14.1h5.2l0.6-2.7h-5.2l1.5-6.8h-3.6l-1.5,6.8h-3.7l-0.6,2.7h3.7l-3.1,14.5
			c-0.4,1.9-0.3,3.3,0.3,4.3c0.6,0.9,1.9,1.4,4,1.4c0.9,0,1.8-0.2,2.8-0.5c1-0.3,1.9-0.6,2.7-1l-0.2-2.7
			C-2215.8,2176.1-2216.6,2176.4-2217.2,2176.5 M-2208.1,2164.2c0.3-1.3,1-2.4,2.1-3.2c1.1-0.8,2.3-1.2,3.7-1.2c1.3,0,2.2,0.3,2.7,1
			c0.5,0.6,0.7,1.6,0.6,2.8l-0.3,2l-9.4,1.6L-2208.1,2164.2z M-2202.5,2176.5c-0.9,0.3-1.9,0.5-2.8,0.5c-1.6,0-2.9-0.4-3.7-1.3
			c-0.8-0.8-1.1-2-0.8-3.6l0.5-2.3l13.1-2.2l0.7-3.4c0.2-1.1,0.3-2.2,0.1-3.1c-0.2-0.9-0.6-1.7-1.1-2.4c-0.5-0.7-1.3-1.2-2.1-1.5
			c-0.9-0.3-1.9-0.5-3.1-0.5c-1.2,0-2.4,0.2-3.5,0.5c-1.1,0.4-2.1,0.9-3,1.5c-0.9,0.6-1.6,1.4-2.2,2.4c-0.6,0.9-1.1,2-1.3,3.2
			l-1.7,7.8c-0.6,2.7-0.2,4.7,1.1,6c1.3,1.4,3.3,2.1,6.1,2.1c1.5,0,2.9-0.2,4.2-0.7c1.3-0.4,2.7-1.2,4-2.3l-1.5-2.4
			C-2200.6,2175.6-2201.6,2176.1-2202.5,2176.5 M-2114.6,2175.8c-0.9,0.4-1.7,0.6-2.3,0.8c-0.6,0.1-1.3,0.2-1.9,0.2
			c-0.6,0-1-0.2-1.3-0.7c-0.3-0.5-0.4-1.2-0.2-2.1l3.1-14.1h5.2l0.6-2.7h-5.2l1.5-6.8h-3.6l-1.5,6.8h-3.7l-0.6,2.7h3.7l-3.1,14.5
			c-0.4,1.9-0.3,3.3,0.3,4.3c0.6,0.9,1.9,1.4,4,1.4c0.9,0,1.8-0.2,2.7-0.5c1-0.3,1.9-0.6,2.7-1L-2114.6,2175.8z M-2158.7,2164.2
			c0.3-1.3,1-2.4,2.1-3.2c1.1-0.8,2.3-1.2,3.7-1.2c1.3,0,2.2,0.3,2.7,1c0.5,0.6,0.7,1.6,0.6,2.8l-0.3,2l-9.4,1.6L-2158.7,2164.2z
			 M-2153.1,2176.5c-0.9,0.3-1.9,0.5-2.8,0.5c-1.6,0-2.9-0.4-3.7-1.3c-0.8-0.8-1.1-2-0.8-3.6l0.5-2.3l13.1-2.2l0.7-3.4
			c0.2-1.1,0.3-2.2,0.1-3.1c-0.2-0.9-0.5-1.7-1.1-2.4c-0.5-0.7-1.3-1.2-2.2-1.5c-0.9-0.3-1.9-0.5-3.1-0.5c-1.2,0-2.4,0.2-3.5,0.5
			c-1.1,0.4-2.1,0.9-3,1.5c-0.9,0.6-1.6,1.4-2.2,2.4c-0.6,0.9-1,2-1.3,3.2l-1.7,7.8c-0.6,2.7-0.2,4.7,1.1,6c1.3,1.4,3.3,2.1,6.1,2.1
			c1.5,0,2.9-0.2,4.2-0.7c1.3-0.4,2.7-1.2,4-2.3l-1.5-2.4C-2151.2,2175.6-2152.2,2176.1-2153.1,2176.5 M-2131.8,2156.6
			c-1.5,0-2.8,0.3-3.9,0.9c-1.1,0.6-2.1,1.5-3.2,2.6l0.4-3h-3.4l-4.9,22.6h3.7l3-13.9c0.2-0.7,0.5-1.4,0.9-2.1
			c0.5-0.7,1-1.3,1.7-1.9c0.6-0.6,1.3-1,2.1-1.4c0.8-0.4,1.5-0.5,2.3-0.5c1.5,0,2.4,0.4,2.8,1.3c0.4,0.8,0.4,2,0.1,3.4l-3.3,15.2
			h3.7l3.4-15.7c0.5-2.4,0.4-4.2-0.4-5.5C-2127.6,2157.3-2129.3,2156.6-2131.8,2156.6 M-2232.1,2172.5c-0.1,0.6-0.4,1.2-0.7,1.8
			c-0.4,0.5-0.8,1-1.3,1.4c-0.5,0.4-1.1,0.7-1.7,0.9c-0.6,0.2-1.2,0.3-1.9,0.3c-1.1,0-1.9-0.2-2.6-0.7c-0.6-0.4-0.8-1.2-0.6-2.2
			l0.8-3.7l8.8-1.7L-2232.1,2172.5z M-2232.3,2156.7c-0.6,0-1.3,0.1-2.1,0.2c-0.8,0.2-1.6,0.4-2.3,0.7c-0.8,0.3-1.5,0.6-2.3,0.9
			c-0.7,0.3-1.4,0.6-1.9,0.9l0.8,2.7c0.4-0.2,1-0.5,1.6-0.8c0.6-0.3,1.2-0.5,1.9-0.8c0.6-0.2,1.3-0.4,1.9-0.5
			c0.6-0.1,1.1-0.2,1.5-0.2c1.5,0,2.4,0.3,2.9,0.8c0.4,0.6,0.5,1.6,0.2,3l-0.5,2.4l-12.7,2.4l-1.3,5.8c-0.4,2-0.2,3.4,0.8,4.4
			c1,1,2.5,1.5,4.6,1.5c1.3,0,2.5-0.3,3.7-1c1.1-0.7,2.1-1.5,2.9-2.5l-0.4,3h3l3.5-16.1c0.5-2.4,0.3-4.1-0.6-5.3
			C-2228.1,2157.2-2229.8,2156.7-2232.3,2156.7 M-2281.6,2172.6c-0.3,1.5-1,2.6-2,3.3c-1,0.7-2.2,1.1-3.7,1.1
			c-1.5,0-2.6-0.5-3.3-1.4c-0.7-0.9-0.9-2.1-0.6-3.6l1.6-7.2c0.3-1.4,1-2.6,2.2-3.5c1.1-0.9,2.4-1.4,3.9-1.4c1.5,0,2.6,0.4,3.3,1.1
			c0.7,0.7,0.9,1.8,0.5,3.2L-2281.6,2172.6z M-2281.9,2156.7c-1.3,0-2.6,0.3-3.8,0.9c-1.2,0.6-2.3,1.4-3.2,2.5l0.3-2.9h-3l-8.1,37.2
			h3.7l3.7-17c0.4,1,1.1,1.8,2,2.2c1,0.4,2,0.6,3.2,0.6c2.5,0,4.5-0.7,6-2c1.6-1.3,2.6-3.2,3.1-5.6l1.8-8.5c0.5-2.5,0.3-4.3-0.6-5.6
			C-2277.6,2157.3-2279.3,2156.7-2281.9,2156.7 M-2301.7,2170.7c-0.4,2.1-1.4,3.6-3,4.7c-1.5,1-3.3,1.6-5.2,1.6
			c-1,0-1.8-0.1-2.6-0.3c-0.8-0.2-1.4-0.6-2-1.1c-0.5-0.5-0.9-1.1-1.1-1.9c-0.2-0.8-0.2-1.8,0.1-2.9l4.6-21.4h-3.7l-4.6,21.4
			c-0.6,2.9-0.2,5.2,1.2,6.9c1.4,1.7,3.9,2.5,7.4,2.5c1.5,0,2.9-0.2,4.3-0.6c1.4-0.4,2.6-0.9,3.7-1.7c1.1-0.8,2.1-1.8,2.9-2.9
			c0.8-1.2,1.4-2.6,1.7-4.2l4.6-21.4h-3.7L-2301.7,2170.7z M-2250,2176.5c-0.6,0.1-1.3,0.2-1.9,0.2c-0.6,0-1-0.2-1.3-0.7
			c-0.3-0.5-0.4-1.2-0.2-2.1l3.1-14.1h5.2l0.6-2.7h-5.2l1.5-6.8h0c0.5-2.5,0.1-4.6-1.1-5.9c-1.2-1.4-3.1-2-5-2
			c-2.3,0-4.8,0.8-6.9,2.3c-2.1,1.5-3.9,3.8-4.5,6.5c-0.4,1.9-0.3,3.6,0.6,5.5c0,0-0.1,0-0.1,0c-2.2,0-4.1,0.6-5.6,1.7
			c-1.5,1.1-2.4,2.6-2.9,4.5c-0.2,0.9-0.2,1.7-0.1,2.3c0.1,0.6,0.4,1.2,0.8,1.7c0.4,0.5,0.9,1,1.5,1.4c0.6,0.4,1.3,0.9,2.1,1.4
			c0.6,0.4,1.1,0.7,1.7,1.1c0.5,0.3,1,0.6,1.3,0.9c0.4,0.3,0.6,0.6,0.8,1c0.2,0.4,0.2,0.8,0.1,1.3c-0.3,1.3-0.8,2.1-1.6,2.5
			c-0.8,0.4-1.8,0.6-3.1,0.6c-0.8,0-1.7-0.2-2.6-0.6c-0.9-0.4-1.6-1.2-2.2-2.3l-2.7,2.3c0.7,1.2,1.6,2.1,2.6,2.7
			c1.1,0.6,2.5,0.9,4.2,0.9c2.2,0,4.2-0.5,5.8-1.6c1.7-1.1,2.8-2.7,3.3-5c0.2-0.9,0.2-1.7,0.1-2.3c-0.1-0.6-0.4-1.2-0.8-1.7
			c-0.4-0.5-0.9-0.9-1.6-1.3c-0.6-0.4-1.4-0.8-2.2-1.3c-0.4-0.3-0.9-0.6-1.4-0.8c-0.5-0.3-1-0.6-1.4-0.9c-0.4-0.3-0.7-0.7-1-1
			c-0.2-0.4-0.3-0.8-0.2-1.4c0.2-1.1,0.7-1.8,1.5-2.3c0.8-0.5,1.7-0.7,2.9-0.7c0.8,0,1.6,0.2,2.3,0.7c0.7,0.4,1.2,0.9,1.7,1.5
			l2.5-2.3c-0.2-0.2-0.4-0.5-0.6-0.7c-0.3-0.4-0.6-0.8-0.8-1.1l0,0c-3.2-4.4-4.1-8.7,0.9-11.4c3.5-1.8,5.8-1,7.1,0c0,0,0,0,0,0
			c0.1,0,0.1,0.1,0.1,0.1c0.1,0.1,0.2,0.2,0.3,0.3c0.6,0.7,0.9,1.7,0.5,3.6l-0.1,0.4h0l-1.4,6.3h-3.7l-0.6,2.7h3.7l-3.1,14.5
			c-0.4,1.9-0.3,3.3,0.3,4.3c0.6,0.9,1.9,1.4,4,1.4c0.9,0,1.8-0.2,2.8-0.5c1-0.3,1.9-0.6,2.7-1l-0.2-2.7
			C-2248.6,2176.1-2249.4,2176.4-2250,2176.5"/>
	</g>
</g>
</svg>
