<?xml version="1.0" encoding="utf-8"?>
<!-- Generator: Adobe Illustrator 17.1.0, SVG Export Plug-In . SVG Version: 6.00 Build 0)  -->
<!DOCTYPE svg PUBLIC "-//W3C//DTD SVG 1.1//EN" "http://www.w3.org/Graphics/SVG/1.1/DTD/svg11.dtd">
<svg version="1.1" xmlns="http://www.w3.org/2000/svg" xmlns:xlink="http://www.w3.org/1999/xlink" x="0px" y="0px"
	 viewBox="-5198.4 192.6 918 918" enable-background="new -5198.4 192.6 918 918" xml:space="preserve">
<g id="Layer_2" display="none">
</g>
<g id="Layer_1">
	<rect x="-4785.9" y="342.8" fill="#494949" width="143.1" height="617.7"/>
	<circle fill="#343435" cx="-4785.9" cy="916.9" r="22.4"/>
	<path d="M-4519.7,342.8h-412.9c-12.5,0-22.6,10.1-22.6,22.6v572.4c0,12.5,10.1,22.6,22.6,22.6h412.9c12.5,0,22.6-10.1,22.6-22.6
		V365.4C-4497.1,352.9-4507.2,342.8-4519.7,342.8z M-4741.7,362.2h43.7v6.4h-43.7V362.2z M-4720.2,934.9c-9.9,0-17.9-8-17.9-17.9
		s8-17.9,17.9-17.9c9.9,0,17.9,8,17.9,17.9C-4702.3,926.9-4710.3,934.9-4720.2,934.9z M-4524.2,885.1H-4927V386.7h402.8V885.1z"/>
	<rect x="-4927" y="386.7" fill="#1C262D" width="402.8" height="498.4"/>
	<path fill="#FFFFFF" d="M-4691.5,677.6c-1.7,0.4-3.4,0.6-5.2,0.6c-1.6,0-2.8-0.6-3.7-2c-0.9-1.3-1-3.2-0.5-5.6l8.4-38.7h18.2
		l1.6-7.4h-18.2l4-18.5h-0.1c1.5-6.9,0.3-12.5-3-16.3c-3.3-3.8-8.4-5.5-13.7-5.5c-6.3,0-13.1,2.2-18.9,6.3
		c-5.8,4.1-10.7,10.3-12.3,17.8c-1.1,5.2-0.7,9.8,1.5,14.9c-0.1,0-0.2,0-0.3,0c-6.2,0-11.3,1.5-15.4,4.5c-4.1,3-6.7,7.2-7.8,12.4
		c-0.5,2.5-0.6,4.7-0.2,6.4c0.4,1.8,1.2,3.3,2.3,4.7c1.1,1.4,2.5,2.7,4.2,3.9c1.7,1.2,3.6,2.4,5.7,3.8c1.6,1.1,3.1,2,4.6,2.9
		c1.4,0.8,2.6,1.6,3.6,2.4c1,0.8,1.7,1.7,2.1,2.7c0.4,1,0.5,2.2,0.2,3.7c-0.7,3.4-2.2,5.7-4.4,6.9c-2.2,1.1-5,1.7-8.5,1.7
		c-2.3,0-4.6-0.5-7-1.7c-2.4-1.1-4.5-3.2-6.2-6.3l-7.4,6.3c1.8,3.2,4.3,5.7,7.2,7.4c3,1.7,6.8,2.6,11.5,2.6c6,0,11.4-1.4,16-4.3
		c4.6-2.9,7.6-7.5,8.9-13.7c0.6-2.5,0.7-4.7,0.3-6.4c-0.4-1.7-1.1-3.2-2.2-4.5c-1.1-1.3-2.5-2.5-4.2-3.6c-1.7-1.1-3.7-2.3-5.9-3.6
		c-1.1-0.8-2.4-1.5-3.8-2.3c-1.4-0.8-2.6-1.5-3.8-2.4c-1.1-0.9-2-1.8-2.7-2.8c-0.7-1.1-0.8-2.3-0.5-3.7c0.6-3,2-5.1,4.1-6.4
		c2.1-1.3,4.7-2,7.9-2c2.3,0,4.4,0.6,6.3,1.8c1.9,1.2,3.4,2.6,4.6,4.1l7-6.4c-0.5-0.7-1.1-1.3-1.8-2c-0.9-1.1-1.6-2.1-2.3-3.1l0,0
		c-8.7-12.2-11.2-23.9,2.4-31.1c9.5-5,16-2.7,19.3,0.1c0,0,0,0,0,0c0.1,0.1,0.3,0.3,0.4,0.4c0.3,0.3,0.7,0.5,0.9,0.8
		c1.5,1.8,2.5,4.7,1.4,9.7l-0.2,1.1h0l-3.7,17.2h-10.2l-1.6,7.4h10l-8.6,39.5c-1.1,5.2-0.9,9.1,0.8,11.7c1.7,2.6,5.3,3.8,10.9,3.8
		c2.4,0,4.9-0.4,7.5-1.3c2.6-0.8,5.1-1.7,7.3-2.8l-0.6-7.4C-4687.7,676.6-4689.8,677.3-4691.5,677.6"/>
</g>
</svg>
