<?xml version="1.0" encoding="utf-8"?>
<!-- Generator: Adobe Illustrator 17.1.0, SVG Export Plug-In . SVG Version: 6.00 Build 0)  -->
<!DOCTYPE svg PUBLIC "-//W3C//DTD SVG 1.1//EN" "http://www.w3.org/Graphics/SVG/1.1/DTD/svg11.dtd">
<svg version="1.1" id="Layer_1" xmlns="http://www.w3.org/2000/svg" xmlns:xlink="http://www.w3.org/1999/xlink" x="0px" y="0px"
	 viewBox="-54.2 -135.2 852.1 693.1" enable-background="new -54.2 -135.2 852.1 693.1" xml:space="preserve">
<g id="Layer_2" display="none">
</g>
<g id="Layer_1_1_">
	<path d="M528,410.3c0,29.2-23.6,52.8-52.8,52.8H265.9c-29.2,0-52.8-23.6-52.8-52.8V-4.4c0-29.2,23.6-52.8,52.8-52.8h209.3
		c29.2,0,52.8,23.6,52.8,52.8V410.3z"/>
	<rect x="226.3" y="-17.6" fill="#1C262D" width="289.8" height="420.7"/>
	<path fill="#686868" d="M407.4,428.1c0,2.3-1.9,4.1-4.1,4.1H343c-2.3,0-4.1-1.9-4.1-4.1l0,0c0-2.3,1.9-4.1,4.1-4.1h60.2
		C405.5,424,407.4,425.9,407.4,428.1L407.4,428.1z"/>
	<path fill="#1C262D" d="M407.4-39.6c0,2.3-1.9,4.1-4.1,4.1H343c-2.3,0-4.1-1.9-4.1-4.1l0,0c0-2.3,1.9-4.1,4.1-4.1h60.2
		C405.5-43.7,407.4-41.8,407.4-39.6L407.4-39.6z"/>
	<circle fill="#1C262D" cx="463.4" cy="428.1" r="5.9"/>
	<circle fill="#1C262D" cx="276.9" cy="428.1" r="5.9"/>
	<path fill="#FFFFFF" d="M417,232.2c-2.2,0.5-4.3,0.7-6.5,0.7c-2,0-3.5-0.8-4.5-2.5c-1-1.6-1.2-4-0.6-7l10.4-48.3h22.8l2-9.3h-22.8
		l5.1-23.1h-0.1c1.9-8.6,0.4-15.7-3.7-20.3c-4.1-4.7-10.4-6.8-17.1-6.8c-7.8,0-16.3,2.8-23.6,7.9c-7.3,5.1-13.4,12.9-15.4,22.2
		c-1.3,6.4-0.8,12.3,2,18.7c-0.1,0-0.2,0-0.4,0c-7.6,0-14,1.9-19.2,5.7c-5.1,3.8-8.4,9-9.8,15.4c-0.7,3.1-0.7,5.8-0.2,8
		c0.5,2.2,1.4,4.1,2.9,5.9c1.3,1.8,3.1,3.4,5.3,4.8c2.2,1.4,4.5,3,7.1,4.6c2.1,1.3,3.9,2.6,5.8,3.6c1.8,1,3.3,2.1,4.5,3.1
		c1.2,1,2.1,2.2,2.7,3.4c0.5,1.2,0.6,2.8,0.2,4.5c-0.9,4.3-2.8,7.1-5.5,8.6c-2.7,1.4-6.3,2.2-10.6,2.2c-2.9,0-5.8-0.7-8.8-2.1
		c-3-1.3-5.6-3.9-7.7-7.8l-9.3,7.8c2.3,4,5.4,7,9,9.2c3.7,2.2,8.5,3.2,14.3,3.2c7.5,0,14.2-1.8,19.9-5.5c5.8-3.6,9.4-9.3,11.1-17
		c0.7-3.1,0.8-5.8,0.4-7.9c-0.4-2.2-1.3-4-2.7-5.7c-1.3-1.6-3.1-3.1-5.3-4.5c-2.2-1.3-4.6-2.9-7.4-4.5c-1.4-0.9-3-1.9-4.7-2.9
		c-1.6-0.9-3.3-2-4.7-3c-1.4-1.1-2.6-2.3-3.4-3.5c-0.8-1.3-1-2.9-0.6-4.6c0.8-3.7,2.5-6.3,5.1-7.9c2.6-1.6,5.9-2.5,9.8-2.5
		c2.9,0,5.5,0.7,7.8,2.3s4.2,3.2,5.7,5.2l8.7-8c-0.6-0.8-1.3-1.6-2.2-2.5c-1-1.3-2.1-2.6-2.9-3.8l0,0c-10.8-15.2-13.9-29.8,3-38.8
		c11.9-6.3,19.9-3.4,24,0.1l0,0c0.2,0.1,0.3,0.3,0.5,0.4c0.4,0.3,0.8,0.6,1.1,1c2,2.3,3.1,5.9,1.8,12.2l-0.3,1.3l0,0l-4.6,21.4
		h-12.4l-2,9.3h12.5l-10.7,49.3c-1.4,6.5-1,11.3,1,14.5c2.2,3.2,6.6,4.8,13.5,4.8c3,0,6.1-0.5,9.4-1.5c3.3-1,6.3-2.2,9.1-3.4
		l-0.8-9.3C421.7,230.9,419,231.8,417,232.2"/>
</g>
</svg>
