<?xml version="1.0" encoding="utf-8"?>
<!-- Generator: Adobe Illustrator 17.1.0, SVG Export Plug-In . SVG Version: 6.00 Build 0)  -->
<!DOCTYPE svg PUBLIC "-//W3C//DTD SVG 1.1//EN" "http://www.w3.org/Graphics/SVG/1.1/DTD/svg11.dtd">
<svg version="1.1" xmlns="http://www.w3.org/2000/svg" xmlns:xlink="http://www.w3.org/1999/xlink" x="0px" y="0px"
	 viewBox="-5198.4 -1380 918 918" enable-background="new -5198.4 -1380 918 918" xml:space="preserve">
<g id="Layer_2" display="none">
</g>
<g id="Layer_1">
	<circle fill="#343435" cx="-4702.8" cy="-644.8" r="23.4"/>
	<path d="M-4550.6-1244.9h-305.6c-13.1,0-23.6,10.6-23.6,23.6v598.3c0,13.1,10.6,23.6,23.6,23.6h305.6c13.1,0,23.6-10.6,23.6-23.6
		v-598.3C-4527-1234.3-4537.5-1244.9-4550.6-1244.9z M-4725.3-1224.6h45.6v6.7h-45.6V-1224.6z M-4702.8-626
		c-10.3,0-18.7-8.4-18.7-18.7s8.4-18.7,18.7-18.7c10.3,0,18.7,8.4,18.7,18.7C-4684.2-634.3-4692.5-626-4702.8-626z M-4555.3-678
		h-295V-1199h295V-678z"/>
	<rect x="-4850.3" y="-1199" fill="#1C262D" width="295" height="520.9"/>
	<path fill="#FFFFFF" d="M-4665.5-907.8c-1.8,0.4-3.6,0.6-5.4,0.6c-1.6,0-2.9-0.7-3.8-2.1c-0.9-1.4-1.1-3.3-0.5-5.9l8.8-40.4h19.1
		l1.7-7.8h-19.1l4.2-19.4h-0.1c1.5-7.2,0.3-13.1-3.1-17c-3.4-4-8.8-5.7-14.3-5.7c-6.6,0-13.7,2.3-19.8,6.6
		c-6.1,4.2-11.2,10.8-12.9,18.6c-1.1,5.4-0.7,10.3,1.6,15.6c-0.1,0-0.2,0-0.3,0c-6.4,0-11.8,1.6-16,4.7c-4.3,3.2-7,7.5-8.2,12.9
		c-0.6,2.6-0.6,4.9-0.2,6.7c0.4,1.8,1.2,3.5,2.4,4.9c1.1,1.5,2.6,2.8,4.4,4c1.8,1.2,3.8,2.5,5.9,3.9c1.7,1.1,3.3,2.1,4.8,3
		c1.5,0.9,2.8,1.7,3.8,2.6c1,0.8,1.8,1.8,2.2,2.8c0.5,1,0.5,2.3,0.2,3.8c-0.8,3.6-2.3,6-4.6,7.2c-2.3,1.2-5.2,1.8-8.9,1.8
		c-2.4,0-4.9-0.6-7.3-1.7c-2.5-1.1-4.7-3.3-6.4-6.6l-7.8,6.6c1.9,3.4,4.5,5.9,7.5,7.7c3.1,1.8,7.1,2.7,12,2.7
		c6.3,0,11.9-1.5,16.7-4.5c4.8-3,7.9-7.8,9.3-14.3c0.6-2.6,0.7-4.9,0.4-6.6c-0.4-1.8-1.1-3.4-2.3-4.7c-1.1-1.4-2.6-2.6-4.4-3.8
		c-1.8-1.1-3.9-2.4-6.2-3.8c-1.2-0.8-2.5-1.6-4-2.4c-1.4-0.8-2.8-1.6-3.9-2.5c-1.2-0.9-2.1-1.9-2.8-3c-0.7-1.1-0.9-2.4-0.5-3.9
		c0.7-3.1,2.1-5.3,4.3-6.6c2.2-1.4,4.9-2.1,8.2-2.1c2.4,0,4.6,0.6,6.6,1.9c2,1.3,3.6,2.7,4.8,4.3l7.3-6.7c-0.5-0.7-1.2-1.4-1.8-2.1
		c-0.9-1.1-1.7-2.2-2.4-3.2l0,0c-9.1-12.7-11.7-25,2.5-32.5c9.9-5.2,16.7-2.8,20.2,0.1c0,0,0,0,0,0c0.2,0.1,0.3,0.3,0.4,0.4
		c0.3,0.3,0.7,0.5,1,0.9c1.6,1.9,2.6,4.9,1.5,10.2l-0.2,1.1h0l-3.9,18h-10.6l-1.7,7.8h10.5l-9,41.3c-1.2,5.4-0.9,9.5,0.9,12.2
		c1.8,2.7,5.5,4,11.3,4c2.5,0,5.1-0.4,7.9-1.3c2.7-0.8,5.3-1.8,7.6-2.9l-0.7-7.8C-4661.5-908.9-4663.7-908.1-4665.5-907.8"/>
</g>
</svg>
