<?xml version="1.0" encoding="utf-8"?>
<!-- Generator: Adobe Illustrator 17.1.0, SVG Export Plug-In . SVG Version: 6.00 Build 0)  -->
<!DOCTYPE svg PUBLIC "-//W3C//DTD SVG 1.1//EN" "http://www.w3.org/Graphics/SVG/1.1/DTD/svg11.dtd">
<svg version="1.1" id="Layer_1" xmlns="http://www.w3.org/2000/svg" xmlns:xlink="http://www.w3.org/1999/xlink" x="0px" y="0px"
	 viewBox="0 0 747.1 500" enable-background="new 0 0 747.1 500" xml:space="preserve">
<g id="Layer_2" display="none">
</g>
<g id="Layer_1_1_">
	<path fill="#848484" d="M705.3,458c0,5.8-4.7,10.5-10.5,10.5H49.4c-5.8,0-10.5-4.7-10.5-10.5"/>
	<path fill="#848484" d="M637.4,366.8H106.9c-5.8,0-10.5-4.7-10.5-10.5V28.9c-0.1-5.8,4.7-10.5,10.5-10.5h530.6
		c5.8,0,10.5,4.7,10.5,10.5v327.4C648,362.2,643.2,366.8,637.4,366.8z"/>
	<path fill="#C0C2C4" d="M699.9,461H44.3c-4.9,0-8-5.4-5.4-9.7L94.5,361c1.1-2,3.2-3.1,5.4-3.1h544.7c2.2,0,4.3,1.1,5.4,3.1
		l55.6,90.2C707.9,455.7,705,461,699.9,461z"/>
	<rect x="109.5" y="33.1" fill="#1C262D" width="525.2" height="315.3"/>
	<path fill="#9B9D9E" d="M632.4,404.7H107.2c-1.8,0-3-2-2-3.6l20.3-33c0.4-0.7,1.1-1.1,2-1.1h484.5c0.9,0,1.5,0.4,2,1.1l20.3,33
		C635.2,402.7,634.1,404.7,632.4,404.7z"/>
	<g>
		<path fill="#FFFFFF" d="M435.2,183.7c-2,0-3.7,0.4-5.4,1.4c-1.6,1-3.2,2.1-4.3,3.6c-0.2-2-1-3.2-2.1-4.1c-1.1-0.7-2.7-1.1-4.8-1.1
			c-2,0-3.6,0.4-5.1,1.4c-1.5,1-3,2.2-4.2,3.7l0.7-4.4h-4.6l-6.8,31.2h5.1l4.2-19c0.1-1,0.5-2,1.1-3c0.5-1,1.2-2,2-2.7
			c0.9-0.9,1.6-1.5,2.6-2.1c1-0.5,2-0.9,3-0.9c2,0,3.1,0.5,3.5,1.6c0.4,1.1,0.4,2.5,0.1,4.3l-4.7,21.6h5.1l4.3-19.2
			c0.2-1,0.5-2,1.1-3c0.5-1,1.1-1.8,2-2.5c0.7-0.7,1.5-1.2,2.5-1.6s2-0.7,3-0.7c2,0,3.2,0.4,3.7,1.2s0.7,2.2,0.2,4.1l-4.8,22.1h5.1
			l4.9-22.8c0.7-3.2,0.5-5.5-0.5-6.9C440.9,184.5,438.6,183.7,435.2,183.7 M369.7,211.3c-0.9,0.1-1.8,0.2-2.6,0.2
			c-0.9,0-1.4-0.2-1.8-1c-0.4-0.7-0.5-1.6-0.2-3l4.3-19.5h7.1l0.9-3.7h-7.1l2.1-9.4h-4.9l-2.1,9.4h-5.1l-0.9,3.7h5.1l-4.3,20.1
			c-0.5,2.6-0.4,4.6,0.4,5.9c0.9,1.2,2.6,2,5.5,2c1.2,0,2.5-0.2,3.8-0.7c1.4-0.4,2.6-0.9,3.7-1.4l-0.2-3.7
			C371.5,210.7,370.7,211,369.7,211.3 M382.2,194.3c0.4-1.8,1.4-3.3,3-4.4c1.5-1.1,3.2-1.6,5.2-1.6c1.8,0,3.1,0.4,3.7,1.4
			c0.7,0.9,1,2.2,0.9,3.8l-0.4,2.7l-12.9,2.2L382.2,194.3z M390,211.1c-1.2,0.4-2.6,0.7-3.8,0.7c-2.2,0-4.1-0.5-5.2-1.8
			c-1.1-1.1-1.5-2.7-1.1-4.9l0.7-3.2l18.1-3.1l1-4.7c0.2-1.5,0.4-3.1,0.1-4.3c-0.2-1.2-0.9-2.3-1.5-3.3c-0.7-1-1.8-1.6-3-2.1
			c-1.2-0.4-2.6-0.7-4.3-0.7s-3.3,0.2-4.8,0.7c-1.5,0.5-3,1.2-4.2,2.1c-1.2,0.9-2.2,2-3.1,3.3c-0.9,1.2-1.5,2.7-1.8,4.4l-2.3,10.7
			c-0.9,3.7-0.2,6.5,1.5,8.3c1.8,2,4.6,3,8.4,3c2.1,0,4.1-0.2,5.8-1c1.8-0.5,3.7-1.6,5.5-3.2l-2.1-3.3
			C392.7,209.8,391.2,210.7,390,211.1 M511.6,210.2c-1.2,0.5-2.3,0.9-3.2,1.1c-0.9,0.1-1.8,0.2-2.6,0.2c-0.9,0-1.4-0.2-1.8-1
			c-0.4-0.7-0.5-1.6-0.2-3l4.3-19.5h7.1l0.9-3.7h-7.1l2.1-9.4h-4.9l-2.1,9.4h-5.2l-0.9,3.7h5.1l-4.3,20.1c-0.5,2.6-0.4,4.6,0.4,5.9
			c0.9,1.2,2.6,2,5.5,2c1.2,0,2.5-0.2,3.7-0.7c1.4-0.4,2.6-0.9,3.7-1.4L511.6,210.2z M450.5,194.3c0.4-1.8,1.4-3.3,3-4.4
			s3.2-1.6,5.2-1.6c1.8,0,3.1,0.4,3.7,1.4c0.7,0.9,1,2.2,0.9,3.8l-0.4,2.7l-12.9,2.2L450.5,194.3z M458.3,211.1
			c-1.2,0.4-2.6,0.7-3.8,0.7c-2.2,0-4.1-0.5-5.1-1.8c-1.1-1.1-1.5-2.7-1.1-4.9l0.7-3.2l18.1-3.1l1-4.7c0.2-1.5,0.4-3.1,0.1-4.3
			c-0.2-1.2-0.7-2.3-1.5-3.3c-0.7-1-1.8-1.6-3-2.1c-1.2-0.4-2.6-0.7-4.3-0.7s-3.3,0.2-4.8,0.7c-1.5,0.5-3,1.2-4.2,2.1
			c-1.2,0.9-2.2,2-3.1,3.3c-0.9,1.2-1.4,2.7-1.8,4.4l-2.3,10.7c-0.9,3.7-0.2,6.5,1.5,8.3c1.8,2,4.6,3,8.4,3c2.1,0,4.1-0.2,5.8-1
			c1.8-0.5,3.7-1.6,5.5-3.2l-2.1-3.3C460.9,209.8,459.5,210.7,458.3,211.1 M487.8,183.7c-2.1,0-3.8,0.4-5.4,1.2
			c-1.5,0.9-3,2.1-4.4,3.6l0.5-4.2h-4.7l-6.8,31.2h5.2l4.2-19.2c0.2-1,0.7-2,1.2-3c0.7-1,1.4-1.8,2.3-2.6c0.9-0.9,1.8-1.4,3-2
			c1.1-0.5,2.1-0.7,3.2-0.7c2.1,0,3.3,0.5,3.8,1.8c0.5,1.1,0.5,2.7,0.1,4.7l-4.6,20.9h5.1l4.7-21.7c0.7-3.3,0.5-5.8-0.5-7.6
			C493.5,184.6,491.3,183.7,487.8,183.7 M349.1,205.8c-0.1,0.9-0.5,1.6-1,2.5c-0.5,0.7-1.1,1.4-1.8,2c-0.7,0.5-1.5,1-2.3,1.2
			c-0.9,0.2-1.6,0.4-2.6,0.4c-1.5,0-2.6-0.2-3.6-1c-0.9-0.5-1.1-1.6-0.9-3.1l1.1-5.1l12.2-2.3L349.1,205.8z M348.8,183.7
			c-0.9,0-1.8,0.1-3,0.2c-1.1,0.2-2.2,0.5-3.2,1c-1.1,0.4-2.1,0.9-3.2,1.2c-1,0.4-2,0.9-2.6,1.2l1.1,3.7c0.5-0.2,1.4-0.7,2.2-1.1
			c0.9-0.4,1.6-0.7,2.6-1.1c0.9-0.2,1.8-0.5,2.6-0.7c0.9-0.1,1.5-0.2,2.1-0.2c2.1,0,3.3,0.4,4.1,1.1c0.5,0.9,0.7,2.2,0.2,4.2
			l-0.7,3.3l-17.5,3.3l-1.8,8c-0.5,2.7-0.2,4.7,1.1,6s3.5,2.1,6.4,2.1c1.8,0,3.5-0.4,5.2-1.4c1.5-1,3-2.1,4.1-3.5l-0.5,4.2h4.2
			l4.8-22.3c0.7-3.3,0.4-5.7-0.9-7.3C354.8,184.6,352.4,183.7,348.8,183.7 M280.8,205.8c-0.4,2.1-1.4,3.6-2.7,4.6
			c-1.4,1-3.1,1.5-5.1,1.5c-2.1,0-3.6-0.7-4.6-2c-1-1.2-1.2-3-0.9-4.9l2.2-10c0.4-2,1.4-3.6,3.1-4.8c1.5-1.2,3.3-2,5.4-2
			s3.6,0.5,4.6,1.5c1,1,1.2,2.5,0.7,4.4L280.8,205.8z M280.3,183.7c-1.8,0-3.6,0.4-5.3,1.2c-1.6,0.9-3.2,2-4.4,3.5l0.4-4.1h-4.2
			l-11.2,51.4h5.1l5.2-23.5c0.5,1.4,1.5,2.5,2.7,3.1c1.4,0.5,2.7,0.9,4.4,0.9c3.5,0,6.2-1,8.3-2.7c2.2-1.8,3.6-4.4,4.3-7.8l2.5-11.7
			c0.7-3.5,0.4-5.9-0.9-7.8C286.1,184.6,283.8,183.7,280.3,183.7 M253,203.3c-0.5,3-2,4.9-4.2,6.5c-2.1,1.4-4.6,2.2-7.1,2.2
			c-1.4,0-2.5-0.1-3.6-0.4c-1.1-0.2-2-0.9-2.7-1.5c-0.7-0.7-1.2-1.5-1.5-2.6c-0.2-1.1-0.2-2.5,0.1-4.1l6.4-29.6h-5.3l-6.4,29.6
			c-0.9,4.1-0.2,7.1,1.6,9.5c2,2.3,5.4,3.5,10.2,3.5c2.1,0,4.1-0.2,5.9-0.9c2-0.5,3.6-1.2,5.2-2.3c1.5-1.1,3-2.5,4.1-4.1
			c1.1-1.6,2-3.6,2.3-5.8l6.4-29.6h-5.2L253,203.3z M324.3,211.3c-0.9,0.1-1.8,0.2-2.6,0.2s-1.4-0.2-1.8-1c-0.4-0.7-0.5-1.6-0.2-3
			l4.3-19.5h7.1l0.9-3.7h-7.1l2.1-9.4l0,0c0.7-3.5,0.1-6.4-1.5-8.1c-1.6-2-4.3-2.7-6.9-2.7c-3.2,0-6.7,1.1-9.5,3.2
			c-2.8,2.1-5.4,5.3-6.2,9c-0.5,2.6-0.2,4.9,0.9,7.6h-0.1c-3.1,0-5.7,0.9-7.8,2.3c-2.1,1.5-3.3,3.6-4.1,6.2
			c-0.2,1.2-0.2,2.3-0.1,3.2c0.1,0.9,0.5,1.6,1.1,2.3c0.5,0.7,1.2,1.4,2.1,2c0.9,0.5,1.8,1.2,3,2c0.9,0.5,1.5,1,2.3,1.5
			c0.7,0.4,1.4,0.9,1.8,1.2c0.5,0.4,0.9,0.9,1.1,1.4c0.2,0.5,0.2,1.1,0.1,1.8c-0.4,1.8-1.1,3-2.2,3.5c-1.1,0.5-2.5,0.9-4.3,0.9
			c-1.1,0-2.3-0.2-3.6-0.9c-1.2-0.5-2.2-1.6-3.1-3.2l-3.7,3.2c1,1.6,2.2,3,3.6,3.7c1.5,0.9,3.5,1.2,5.8,1.2c3.1,0,5.8-0.7,8-2.2
			c2.3-1.5,3.8-3.7,4.6-6.9c0.2-1.2,0.2-2.3,0.1-3.2c-0.1-0.9-0.5-1.6-1.1-2.3c-0.5-0.7-1.2-1.2-2.2-1.8c-0.9-0.5-2-1.1-3.1-1.8
			c-0.5-0.4-1.2-0.9-2-1.1c-0.7-0.4-1.4-0.9-2-1.2c-0.5-0.4-1-1-1.4-1.4c-0.2-0.5-0.4-1.1-0.2-2c0.2-1.5,1-2.5,2.1-3.2
			c1.1-0.7,2.3-1,4.1-1c1.1,0,2.2,0.2,3.2,1c1,0.5,1.6,1.2,2.3,2.1l3.5-3.2c-0.2-0.2-0.5-0.7-0.9-1c-0.4-0.5-0.9-1.1-1.1-1.5l0,0
			c-4.4-6-5.7-12.1,1.2-15.8c4.8-2.5,8-1.4,9.9,0l0,0c0.1,0,0.1,0.1,0.1,0.1c0.1,0.1,0.2,0.2,0.4,0.4c0.9,1,1.2,2.3,0.7,4.9
			l-0.1,0.5l0,0l-2,8.7h-5.2l-0.9,3.7h5.1l-4.3,20.1c-0.5,2.6-0.4,4.6,0.4,5.9c0.9,1.2,2.6,2,5.5,2c1.2,0,2.5-0.2,3.8-0.7
			c1.4-0.4,2.6-0.9,3.7-1.4l-0.2-3.7C326.3,210.7,325.3,211,324.3,211.3"/>
	</g>
</g>
</svg>
