<?xml version="1.0" encoding="utf-8"?>
<!-- Generator: Adobe Illustrator 17.1.0, SVG Export Plug-In . SVG Version: 6.00 Build 0)  -->
<!DOCTYPE svg PUBLIC "-//W3C//DTD SVG 1.1//EN" "http://www.w3.org/Graphics/SVG/1.1/DTD/svg11.dtd">
<svg version="1.1" id="Layer_1" xmlns="http://www.w3.org/2000/svg" xmlns:xlink="http://www.w3.org/1999/xlink" x="0px" y="0px"
	 viewBox="-54.2 -135.2 852.1 693.1" enable-background="new -54.2 -135.2 852.1 693.1" xml:space="preserve">
<rect x="237.1" y="104.1" fill="#9B9383" width="271.5" height="299.2"/>
<rect x="207.1" y="12.8" fill="#DDD7CA" width="331.5" height="376.1"/>
<path fill="#81AA97" d="M496.8,269.6H251.9c-8.2,0-14.8-6.6-14.8-14.8V55.3c0-8.2,6.6-14.8,14.8-14.8h244.9
	c8.2,0,14.8,6.6,14.8,14.8v199.5C511.6,263,505,269.6,496.8,269.6z"/>
<g id="Layer_2" display="none">
</g>
<g>
	<path fill="#3C5B4E" d="M414.3,148.3c-1.3,0-2.5,0.3-3.6,0.9c-1.1,0.7-2.2,1.4-2.9,2.4c-0.2-1.3-0.7-2.2-1.4-2.7
		c-0.7-0.5-1.9-0.7-3.3-0.7c-1.3,0-2.4,0.3-3.5,0.9c-1,0.7-2,1.5-2.8,2.5l0.5-3h-3.1l-4.6,21.1h3.5l2.8-12.8c0.1-0.7,0.4-1.3,0.7-2
		c0.4-0.7,0.8-1.3,1.3-1.9c0.6-0.6,1.1-1,1.8-1.4s1.3-0.6,2-0.6c1.3,0,2.1,0.4,2.3,1.1c0.3,0.7,0.3,1.7,0.1,2.9l-3.2,14.6h3.5
		l2.9-13.3c0.2-0.7,0.4-1.3,0.7-2c0.4-0.7,0.7-1.2,1.3-1.7c0.5-0.5,1-0.8,1.7-1.1s1.3-0.5,2-0.5c1.3,0,2.2,0.3,2.5,0.8
		c0.4,0.6,0.5,1.5,0.2,2.7l-3.3,15h3.5l3.4-15.4c0.5-2.2,0.4-3.7-0.4-4.7C418.1,148.7,416.6,148.3,414.3,148.3 M369.9,166.8
		c-0.6,0.1-1.2,0.2-1.8,0.2c-0.6,0-0.9-0.2-1.2-0.7c-0.3-0.5-0.4-1.1-0.2-2l2.9-13.2h4.9l0.6-2.5h-4.9l1.4-6.4h-3.4l-1.4,6.4h-3.5
		l-0.6,2.5h3.5l-2.9,13.6c-0.4,1.8-0.3,3.1,0.3,4c0.6,0.8,1.8,1.3,3.7,1.3c0.8,0,1.7-0.2,2.6-0.5c0.9-0.3,1.8-0.6,2.5-0.9l-0.2-2.5
		C371.2,166.4,370.5,166.7,369.9,166.8 M378.4,155.3c0.3-1.2,0.9-2.2,2-3s2.2-1.1,3.5-1.1c1.2,0,2.1,0.3,2.5,0.9
		c0.5,0.6,0.7,1.5,0.6,2.6l-0.3,1.9l-8.8,1.5L378.4,155.3z M383.7,166.8c-0.8,0.3-1.8,0.5-2.6,0.5c-1.5,0-2.7-0.4-3.5-1.2
		c-0.7-0.7-1-1.9-0.7-3.4l0.5-2.2l12.2-2.1l0.7-3.2c0.2-1,0.3-2.1,0.1-2.9c-0.2-0.8-0.6-1.6-1-2.2c-0.5-0.7-1.2-1.1-2-1.4
		c-0.8-0.3-1.8-0.5-2.9-0.5c-1.1,0-2.2,0.2-3.3,0.5c-1,0.4-2,0.8-2.8,1.4c-0.8,0.6-1.5,1.3-2.1,2.2c-0.6,0.8-1,1.9-1.2,3l-1.6,7.3
		c-0.6,2.5-0.2,4.4,1,5.6c1.2,1.3,3.1,2,5.7,2c1.4,0,2.7-0.2,3.9-0.7c1.2-0.4,2.5-1.1,3.7-2.2l-1.4-2.2
		C385.4,165.9,384.5,166.4,383.7,166.8 M465.9,166.1c-0.8,0.4-1.6,0.6-2.2,0.7c-0.6,0.1-1.2,0.2-1.8,0.2c-0.6,0-0.9-0.2-1.2-0.7
		c-0.3-0.5-0.4-1.1-0.2-2l2.9-13.2h4.9l0.6-2.5H464l1.4-6.4H462l-1.4,6.4h-3.5l-0.6,2.5h3.5l-2.9,13.6c-0.4,1.8-0.3,3.1,0.3,4
		c0.6,0.8,1.8,1.3,3.7,1.3c0.8,0,1.7-0.2,2.5-0.5c0.9-0.3,1.8-0.6,2.5-0.9L465.9,166.1z M424.6,155.3c0.3-1.2,0.9-2.2,2-3
		s2.2-1.1,3.5-1.1c1.2,0,2.1,0.3,2.5,0.9c0.5,0.6,0.7,1.5,0.6,2.6l-0.3,1.9l-8.8,1.5L424.6,155.3z M429.9,166.8
		c-0.8,0.3-1.8,0.5-2.6,0.5c-1.5,0-2.7-0.4-3.5-1.2c-0.7-0.7-1-1.9-0.7-3.4l0.5-2.2l12.2-2.1l0.7-3.2c0.2-1,0.3-2.1,0.1-2.9
		c-0.2-0.8-0.5-1.6-1-2.2c-0.5-0.7-1.2-1.1-2.1-1.4c-0.8-0.3-1.8-0.5-2.9-0.5c-1.1,0-2.2,0.2-3.3,0.5c-1,0.4-2,0.8-2.8,1.4
		c-0.8,0.6-1.5,1.3-2.1,2.2c-0.6,0.8-0.9,1.9-1.2,3l-1.6,7.3c-0.6,2.5-0.2,4.4,1,5.6c1.2,1.3,3.1,2,5.7,2c1.4,0,2.7-0.2,3.9-0.7
		c1.2-0.4,2.5-1.1,3.7-2.2l-1.4-2.2C431.6,165.9,430.7,166.4,429.9,166.8 M449.8,148.2c-1.4,0-2.6,0.3-3.6,0.8c-1,0.6-2,1.4-3,2.4
		l0.4-2.8h-3.2l-4.6,21.1h3.5l2.8-13c0.2-0.7,0.5-1.3,0.8-2c0.5-0.7,0.9-1.2,1.6-1.8c0.6-0.6,1.2-0.9,2-1.3s1.4-0.5,2.2-0.5
		c1.4,0,2.2,0.4,2.6,1.2c0.4,0.7,0.4,1.9,0.1,3.2l-3.1,14.2h3.5l3.2-14.7c0.5-2.2,0.4-3.9-0.4-5.1
		C453.7,148.8,452.1,148.2,449.8,148.2 M356,163c-0.1,0.6-0.4,1.1-0.7,1.7c-0.4,0.5-0.7,0.9-1.2,1.3c-0.5,0.4-1,0.7-1.6,0.8
		c-0.6,0.2-1.1,0.3-1.8,0.3c-1,0-1.8-0.2-2.4-0.7c-0.6-0.4-0.7-1.1-0.6-2.1l0.7-3.5l8.2-1.6L356,163z M355.8,148.3
		c-0.6,0-1.2,0.1-2,0.2c-0.7,0.2-1.5,0.4-2.2,0.7c-0.7,0.3-1.4,0.6-2.2,0.8c-0.7,0.3-1.3,0.6-1.8,0.8l0.7,2.5
		c0.4-0.2,0.9-0.5,1.5-0.7c0.6-0.3,1.1-0.5,1.8-0.7c0.6-0.2,1.2-0.4,1.8-0.5c0.6-0.1,1-0.2,1.4-0.2c1.4,0,2.2,0.3,2.7,0.7
		c0.4,0.6,0.5,1.5,0.2,2.8l-0.5,2.2l-11.9,2.2l-1.2,5.4c-0.4,1.9-0.2,3.2,0.7,4.1c0.9,0.9,2.3,1.4,4.3,1.4c1.2,0,2.3-0.3,3.5-0.9
		c1-0.7,2-1.4,2.7-2.3l-0.4,2.8h2.8l3.3-15.1c0.5-2.2,0.3-3.8-0.6-5C359.7,148.7,358.1,148.3,355.8,148.3 M309.7,163.1
		c-0.3,1.4-0.9,2.4-1.9,3.1s-2.1,1-3.5,1s-2.4-0.5-3.1-1.3c-0.7-0.8-0.8-2-0.6-3.4l1.5-6.7c0.3-1.3,0.9-2.4,2.1-3.3
		c1-0.8,2.2-1.3,3.6-1.3s2.4,0.4,3.1,1c0.7,0.7,0.8,1.7,0.5,3L309.7,163.1z M309.4,148.3c-1.2,0-2.4,0.3-3.6,0.8
		c-1.1,0.6-2.2,1.3-3,2.3l0.3-2.7h-2.8l-7.6,34.8h3.5l3.5-15.9c0.4,0.9,1,1.7,1.9,2.1c0.9,0.4,1.9,0.6,3,0.6c2.3,0,4.2-0.7,5.6-1.9
		c1.5-1.2,2.4-3,2.9-5.2l1.7-7.9c0.5-2.3,0.3-4-0.6-5.2C313.4,148.8,311.9,148.3,309.4,148.3 M290.9,161.4c-0.4,2-1.3,3.4-2.8,4.4
		c-1.4,0.9-3.1,1.5-4.9,1.5c-0.9,0-1.7-0.1-2.4-0.3s-1.3-0.6-1.9-1c-0.5-0.5-0.8-1-1-1.8c-0.2-0.7-0.2-1.7,0.1-2.7l4.3-20h-3.5
		l-4.3,20c-0.6,2.7-0.2,4.9,1.1,6.5c1.3,1.6,3.6,2.3,6.9,2.3c1.4,0,2.7-0.2,4-0.6c1.3-0.4,2.4-0.8,3.5-1.6c1-0.7,2-1.7,2.7-2.7
		c0.7-1.1,1.3-2.4,1.6-3.9l4.3-20h-3.5L290.9,161.4z M339.3,166.8c-0.6,0.1-1.2,0.2-1.8,0.2c-0.6,0-0.9-0.2-1.2-0.7s-0.4-1.1-0.2-2
		l2.9-13.2h4.9l0.6-2.5h-4.9l1.4-6.4l0,0c0.5-2.3,0.1-4.3-1-5.5c-1.1-1.3-2.9-1.9-4.7-1.9c-2.2,0-4.5,0.7-6.5,2.2
		c-2,1.4-3.6,3.6-4.2,6.1c-0.4,1.8-0.3,3.4,0.6,5.1H325c-2.1,0-3.8,0.6-5.2,1.6c-1.4,1-2.2,2.4-2.7,4.2c-0.2,0.8-0.2,1.6-0.1,2.2
		c0.1,0.6,0.4,1.1,0.7,1.6c0.4,0.5,0.8,0.9,1.4,1.3c0.6,0.4,1.2,0.8,2,1.3c0.6,0.4,1,0.7,1.6,1c0.5,0.3,0.9,0.6,1.2,0.8
		c0.4,0.3,0.6,0.6,0.7,0.9c0.2,0.4,0.2,0.7,0.1,1.2c-0.3,1.2-0.7,2-1.5,2.3c-0.7,0.4-1.7,0.6-2.9,0.6c-0.7,0-1.6-0.2-2.4-0.6
		c-0.8-0.4-1.5-1.1-2.1-2.2l-2.5,2.2c0.7,1.1,1.5,2,2.4,2.5c1,0.6,2.3,0.8,3.9,0.8c2.1,0,3.9-0.5,5.4-1.5c1.6-1,2.6-2.5,3.1-4.7
		c0.2-0.8,0.2-1.6,0.1-2.2c-0.1-0.6-0.4-1.1-0.7-1.6c-0.4-0.5-0.8-0.8-1.5-1.2c-0.6-0.4-1.3-0.7-2.1-1.2c-0.4-0.3-0.8-0.6-1.3-0.7
		c-0.5-0.3-0.9-0.6-1.3-0.8c-0.4-0.3-0.7-0.7-0.9-0.9c-0.2-0.4-0.3-0.7-0.2-1.3c0.2-1,0.7-1.7,1.4-2.2c0.7-0.5,1.6-0.7,2.7-0.7
		c0.7,0,1.5,0.2,2.2,0.7c0.7,0.4,1.1,0.8,1.6,1.4l2.3-2.2c-0.2-0.2-0.4-0.5-0.6-0.7c-0.3-0.4-0.6-0.7-0.7-1l0,0
		c-3-4.1-3.8-8.1,0.8-10.7c3.3-1.7,5.4-0.9,6.6,0l0,0c0.1,0,0.1,0.1,0.1,0.1c0.1,0.1,0.2,0.2,0.3,0.3c0.6,0.7,0.8,1.6,0.5,3.4
		l-0.1,0.4l0,0l-1.3,5.9h-3.5l-0.6,2.5h3.5l-2.9,13.6c-0.4,1.8-0.3,3.1,0.3,4c0.6,0.8,1.8,1.3,3.7,1.3c0.8,0,1.7-0.2,2.6-0.5
		c0.9-0.3,1.8-0.6,2.5-0.9l-0.2-2.5C340.6,166.4,339.8,166.7,339.3,166.8"/>
</g>
<rect x="397.6" y="307.1" fill="#9B9383" width="114" height="6"/>
<rect x="467.6" y="305.4" fill="#9B9383" width="32" height="11.2"/>
<circle fill="#9B9383" cx="242.1" cy="306.1" r="9"/>
</svg>
