<?xml version="1.0" encoding="utf-8"?>
<!-- Generator: Adobe Illustrator 17.1.0, SVG Export Plug-In . SVG Version: 6.00 Build 0)  -->
<!DOCTYPE svg PUBLIC "-//W3C//DTD SVG 1.1//EN" "http://www.w3.org/Graphics/SVG/1.1/DTD/svg11.dtd">
<svg version="1.1" xmlns="http://www.w3.org/2000/svg" xmlns:xlink="http://www.w3.org/1999/xlink" x="0px" y="0px"
	 viewBox="-300.4 -1380 918 918" enable-background="new -300.4 -1380 918 918" xml:space="preserve">
<g id="Layer_2" display="none">
</g>
<g id="Layer_1">
	<path d="M311.2-712.5c0,28.3-22.9,51.2-51.2,51.2h-203c-28.3,0-51.2-22.9-51.2-51.2v-402.2c0-28.3,22.9-51.2,51.2-51.2h203
		c28.3,0,51.2,22.9,51.2,51.2V-712.5z"/>
	<rect x="18.6" y="-1127.5" fill="#1C262D" width="281.1" height="408"/>
	<path fill="#686868" d="M194.2-695.2c0,2.2-1.8,4-4,4h-58.4c-2.2,0-4-1.8-4-4l0,0c0-2.2,1.8-4,4-4h58.4
		C192.4-699.2,194.2-697.4,194.2-695.2L194.2-695.2z"/>
	<path fill="#1C262D" d="M194.2-1148.8c0,2.2-1.8,4-4,4h-58.4c-2.2,0-4-1.8-4-4l0,0c0-2.2,1.8-4,4-4h58.4
		C192.4-1152.8,194.2-1151,194.2-1148.8L194.2-1148.8z"/>
	<circle fill="#1C262D" cx="248.5" cy="-695.2" r="5.7"/>
	<circle fill="#1C262D" cx="67.7" cy="-695.2" r="5.7"/>
	<path fill="#FFFFFF" d="M203.5-885.2c-2.1,0.5-4.2,0.7-6.3,0.7c-1.9,0-3.4-0.8-4.4-2.4c-1-1.6-1.2-3.9-0.6-6.8l10.1-46.8h22.1
		l1.9-9h-22.1l4.9-22.4H209c1.8-8.3,0.4-15.2-3.6-19.7c-4-4.6-10.1-6.6-16.6-6.6c-7.6,0-15.8,2.7-22.9,7.7
		c-7.1,4.9-13,12.5-14.9,21.5c-1.3,6.2-0.8,11.9,1.9,18.1c-0.1,0-0.2,0-0.4,0c-7.4,0-13.6,1.8-18.6,5.5c-4.9,3.7-8.1,8.7-9.5,14.9
		c-0.7,3-0.7,5.6-0.2,7.8c0.5,2.1,1.4,4,2.8,5.7c1.3,1.7,3,3.3,5.1,4.7c2.1,1.4,4.4,2.9,6.9,4.5c2,1.3,3.8,2.5,5.6,3.5
		c1.7,1,3.2,2,4.4,3c1.2,1,2,2.1,2.6,3.3c0.5,1.2,0.6,2.7,0.2,4.4c-0.9,4.2-2.7,6.9-5.3,8.3c-2.6,1.4-6.1,2.1-10.3,2.1
		c-2.8,0-5.6-0.7-8.5-2c-2.9-1.3-5.4-3.8-7.5-7.6l-9,7.6c2.2,3.9,5.2,6.8,8.7,8.9c3.6,2.1,8.2,3.1,13.9,3.1c7.3,0,13.8-1.7,19.3-5.3
		c5.6-3.5,9.1-9,10.8-16.5c0.7-3,0.8-5.6,0.4-7.7c-0.4-2.1-1.3-3.9-2.6-5.5c-1.3-1.6-3-3-5.1-4.4c-2.1-1.3-4.5-2.8-7.2-4.4
		c-1.4-0.9-2.9-1.8-4.6-2.8c-1.6-0.9-3.2-1.9-4.6-2.9c-1.4-1.1-2.5-2.2-3.3-3.4c-0.8-1.3-1-2.8-0.6-4.5c0.8-3.6,2.4-6.1,4.9-7.7
		c2.5-1.6,5.7-2.4,9.5-2.4c2.8,0,5.3,0.7,7.6,2.2c2.3,1.5,4.1,3.1,5.5,5l8.4-7.8c-0.6-0.8-1.3-1.6-2.1-2.4c-1-1.3-2-2.5-2.8-3.7l0,0
		c-10.5-14.7-13.5-28.9,2.9-37.6c11.5-6.1,19.3-3.3,23.3,0.1c0,0,0,0,0,0c0.2,0.1,0.3,0.3,0.5,0.4c0.4,0.3,0.8,0.6,1.1,1
		c1.9,2.2,3,5.7,1.7,11.8l-0.3,1.3h0l-4.5,20.8H180l-1.9,9h12.1l-10.4,47.8c-1.4,6.3-1,11,1,14.1c2.1,3.1,6.4,4.7,13.1,4.7
		c2.9,0,5.9-0.5,9.1-1.5c3.2-1,6.1-2.1,8.8-3.3l-0.8-9C208.1-886.5,205.5-885.6,203.5-885.2"/>
</g>
</svg>
