<?xml version="1.0" encoding="utf-8"?>
<!-- Generator: Adobe Illustrator 17.1.0, SVG Export Plug-In . SVG Version: 6.00 Build 0)  -->
<!DOCTYPE svg PUBLIC "-//W3C//DTD SVG 1.1//EN" "http://www.w3.org/Graphics/SVG/1.1/DTD/svg11.dtd">
<svg version="1.1" id="Layer_1" xmlns="http://www.w3.org/2000/svg" xmlns:xlink="http://www.w3.org/1999/xlink" x="0px" y="0px"
	 viewBox="-54.2 -135.2 852.1 693.1" enable-background="new -54.2 -135.2 852.1 693.1" xml:space="preserve">
<g id="Layer_2" display="none">
</g>
<g id="Layer_1_1_">
	<path fill="#C9C9C9" d="M497.9,462.1H252.4c-12.6,0-22.8-10.3-22.8-22.8V-36.6c0-12.6,10.3-22.8,22.8-22.8h245.5
		c12.6,0,22.8,10.3,22.8,22.8v475.9C520.8,451.9,510.5,462.1,497.9,462.1z"/>
	<circle fill="#C9C9C9" cx="375.6" cy="415.3" r="18.2"/>
	<path fill="#FFFFFF" d="M493.9-51H256.4c-10.2,0-18.3,8.2-18.3,18.3v464.9c0,10.2,8.2,18.3,18.3,18.3h237.5
		c10.2,0,18.3-8.2,18.3-18.3V-32.7C512.2-42.8,504-51,493.9-51z M358.1-35.2h35.4v5.2h-35.4V-35.2z M375.5,429.9
		c-8,0-14.5-6.5-14.5-14.5c0-8,6.5-14.5,14.5-14.5c8,0,14.5,6.5,14.5,14.5C390.1,423.5,383.6,429.9,375.5,429.9z M490.2,389.5H261
		V-15.3h229.2V389.5z"/>
	<rect x="261" y="-15.3" fill="#1C262D" width="229.2" height="404.8"/>
	<path fill="#FFFFFF" d="M402,211c-1.4,0.3-2.8,0.5-4.2,0.5c-1.2,0-2.3-0.5-3-1.6c-0.7-1.1-0.9-2.6-0.4-4.6l6.8-31.4h14.8l1.3-6.1
		h-14.8l3.3-15.1h-0.1c1.2-5.6,0.2-10.2-2.4-13.2c-2.6-3.1-6.8-4.4-11.1-4.4c-5.1,0-10.6,1.8-15.4,5.1c-4.7,3.3-8.7,8.4-10,14.5
		c-0.9,4.2-0.5,8,1.2,12.1c-0.1,0-0.2,0-0.2,0c-5,0-9.2,1.2-12.4,3.7c-3.3,2.5-5.4,5.8-6.4,10c-0.5,2-0.5,3.8-0.2,5.2
		c0.3,1.4,0.9,2.7,1.9,3.8c0.9,1.2,2,2.2,3.4,3.1c1.4,0.9,3,1.9,4.6,3c1.3,0.9,2.6,1.6,3.7,2.3c1.2,0.7,2.2,1.3,3,2
		c0.8,0.6,1.4,1.4,1.7,2.2c0.4,0.8,0.4,1.8,0.2,3c-0.6,2.8-1.8,4.7-3.6,5.6c-1.8,0.9-4,1.4-6.9,1.4c-1.9,0-3.8-0.5-5.7-1.3
		c-1.9-0.9-3.7-2.6-5-5.1l-6.1,5.1c1.5,2.6,3.5,4.6,5.8,6c2.4,1.4,5.5,2.1,9.3,2.1c4.9,0,9.2-1.2,13-3.5c3.7-2.3,6.1-6.1,7.2-11.1
		c0.5-2,0.5-3.8,0.3-5.1c-0.3-1.4-0.9-2.6-1.8-3.7c-0.9-1.1-2-2-3.4-3c-1.4-0.9-3-1.9-4.8-3c-0.9-0.6-1.9-1.2-3.1-1.9
		c-1.1-0.6-2.2-1.2-3-1.9c-0.9-0.7-1.6-1.5-2.2-2.3c-0.5-0.9-0.7-1.9-0.4-3c0.5-2.4,1.6-4.1,3.3-5.1c1.7-1.1,3.8-1.6,6.4-1.6
		c1.9,0,3.6,0.5,5.1,1.5c1.6,1,2.8,2.1,3.7,3.3l5.7-5.2c-0.4-0.5-0.9-1.1-1.4-1.6c-0.7-0.9-1.3-1.7-1.9-2.5l0,0
		c-7.1-9.9-9.1-19.4,1.9-25.3c7.7-4,13-2.2,15.7,0.1l0,0c0.2,0.1,0.2,0.2,0.3,0.3c0.2,0.2,0.5,0.4,0.8,0.7c1.2,1.5,2,3.8,1.2,7.9
		l-0.2,0.9l0,0l-3,14h-8.2l-1.3,6.1h8.2l-7,32.1c-0.9,4.2-0.7,7.4,0.7,9.5c1.4,2.1,4.3,3.1,8.8,3.1c1.9,0,4-0.3,6.1-1
		c2.1-0.6,4.1-1.4,5.9-2.3l-0.5-6.1C405.1,210.1,403.4,210.7,402,211"/>
</g>
</svg>
