<?xml version="1.0" encoding="utf-8"?>
<!-- Generator: Adobe Illustrator 17.1.0, SVG Export Plug-In . SVG Version: 6.00 Build 0)  -->
<!DOCTYPE svg PUBLIC "-//W3C//DTD SVG 1.1//EN" "http://www.w3.org/Graphics/SVG/1.1/DTD/svg11.dtd">
<svg version="1.1" id="Layer_1" xmlns="http://www.w3.org/2000/svg" xmlns:xlink="http://www.w3.org/1999/xlink" x="0px" y="0px"
	 viewBox="-54.2 -135.2 852.1 693.1" enable-background="new -54.2 -135.2 852.1 693.1" xml:space="preserve">
<g id="Layer_2" display="none">
</g>
<g id="Layer_1_1_">
	<path fill="#464747" d="M522.6,452.8H224.8c-7.8,0-14.3-6.6-14.3-14.6V-34.5c0-8,6.4-14.6,14.3-14.6h297.8
		c7.8,0,14.3,6.6,14.3,14.6v472.9C536.9,446.3,530.5,452.8,522.6,452.8z"/>
	<rect x="240.7" y="-11.3" fill="#828282" width="268.9" height="378"/>
	<path fill="none" stroke="#828282" stroke-width="10.2968" stroke-miterlimit="10" d="M389.7,431h-29c-3.6,0-6.5-2.9-6.5-6.5v-29
		c0-3.6,2.9-6.5,6.5-6.5h29c3.6,0,6.5,2.9,6.5,6.5v29C396.2,428.1,393.2,431,389.7,431z"/>
	<path fill="#828282" d="M382.7,421.2h-15.1c-1.9,0-3.4-1.6-3.4-3.4v-15.1c0-1.9,1.6-3.4,3.4-3.4h15.1c1.9,0,3.4,1.5,3.4,3.4v15.1
		C386.2,419.7,384.6,421.2,382.7,421.2z"/>
	<circle fill="#828282" cx="433.2" cy="410.1" r="10.3"/>
	<circle fill="#828282" cx="472.5" cy="410.1" r="10.3"/>
	<circle fill="#828282" cx="276.1" cy="410.1" r="10.3"/>
	<circle fill="#828282" cx="315.4" cy="410.1" r="10.3"/>
	<path fill="#3A3A3A" d="M404.7,205.7c-1.8,0.4-3.5,0.6-5.3,0.6c-1.6,0-2.8-0.7-3.7-2.1c-0.9-1.4-1.1-3.2-0.5-5.8l8.6-39.6h18.7
		l1.7-7.6h-18.7l4.1-19h-0.1c1.5-7,0.3-12.8-3-16.6c-3.4-3.9-8.6-5.6-14-5.6c-6.5,0-13.4,2.3-19.4,6.5c-6,4.2-11,10.6-12.6,18.2
		c-1.2,5.3-0.7,10.1,1.6,15.3c-0.1,0-0.2,0-0.3,0c-6.3,0-11.5,1.6-15.8,4.6c-4.2,3.1-6.9,7.3-8,12.6c-0.6,2.5-0.6,4.8-0.2,6.6
		c0.4,1.8,1.2,3.4,2.3,4.8c1.2,1.5,2.5,2.7,4.3,4c1.8,1.2,3.7,2.4,5.9,3.8c1.7,1.2,3.2,2.1,4.7,2.9c1.5,0.9,2.7,1.7,3.7,2.5
		c1,0.9,1.8,1.8,2.2,2.7c0.5,1,0.5,2.3,0.2,3.7c-0.8,3.5-2.3,5.9-4.5,7c-2.3,1.2-5.1,1.8-8.7,1.8c-2.3,0-4.8-0.6-7.1-1.7
		c-2.4-1.1-4.6-3.2-6.4-6.5l-7.6,6.5c1.9,3.3,4.4,5.8,7.4,7.5c3,1.8,6.9,2.6,11.7,2.6c6.2,0,11.6-1.5,16.3-4.5
		c4.7-2.9,7.7-7.6,9.1-14c0.6-2.5,0.7-4.8,0.4-6.6c-0.4-1.8-1.1-3.3-2.3-4.6c-1.1-1.4-2.5-2.5-4.3-3.7c-1.8-1.1-3.8-2.3-6.1-3.7
		c-1.2-0.8-2.4-1.6-3.9-2.3c-1.4-0.8-2.7-1.6-3.8-2.4c-1.2-0.9-2.1-1.9-2.7-2.9c-0.7-1.1-0.9-2.3-0.5-3.8c0.7-3,2.1-5.2,4.2-6.6
		c2.2-1.4,4.8-2.1,8-2.1c2.3,0,4.5,0.6,6.5,1.9c2,1.3,3.5,2.6,4.7,4.2l7.1-6.6c-0.5-0.7-1.2-1.4-1.8-2.1c-0.9-1.1-1.7-2.2-2.3-3.1
		l0,0c-8.9-12.5-11.5-24.5,2.4-31.8c9.8-5.2,16.3-2.7,19.8,0.1l0,0c0.2,0.1,0.3,0.3,0.4,0.4c0.3,0.3,0.7,0.5,1,0.9
		c1.6,1.9,2.5,4.8,1.5,10l-0.2,1.1l0,0l-3.8,17.6h-10.5l-1.7,7.6h10.3l-8.8,40.5c-1.2,5.4-0.9,9.3,0.9,11.9
		c1.8,2.6,5.5,3.9,11.2,3.9c2.4,0,5-0.4,7.7-1.3c2.7-0.9,5.2-1.8,7.5-2.8l-0.7-7.6C408.6,204.6,406.4,205.4,404.7,205.7"/>
</g>
</svg>
