<?xml version="1.0" encoding="utf-8"?>
<!-- Generator: Adobe Illustrator 17.1.0, SVG Export Plug-In . SVG Version: 6.00 Build 0)  -->
<!DOCTYPE svg PUBLIC "-//W3C//DTD SVG 1.1//EN" "http://www.w3.org/Graphics/SVG/1.1/DTD/svg11.dtd">
<svg version="1.1" id="Layer_1" xmlns="http://www.w3.org/2000/svg" xmlns:xlink="http://www.w3.org/1999/xlink" x="0px" y="0px"
	 viewBox="-54.2 -135.2 852.1 693.1" enable-background="new -54.2 -135.2 852.1 693.1" xml:space="preserve">
<g id="Layer_2" display="none">
</g>
<g id="Layer_1_1_">
	<rect x="226" y="-57.6" width="305.7" height="525.4"/>
	<rect x="254.8" y="-10" fill="#283035" width="248.1" height="423.6"/>
	<rect x="365.9" y="425.2" fill="#464849" width="20.5" height="20.5"/>
	<g>
		<g>
			<defs>
				<rect id="SVGID_1_" x="170.6" y="21.6" width="330.8" height="385.3"/>
			</defs>
			<clipPath id="SVGID_2_">
				<use xlink:href="#SVGID_1_"  overflow="visible"/>
			</clipPath>
			<path clip-path="url(#SVGID_2_)" fill="#FFFFFF" d="M556.7,380.3c-6.7,1.5-13.6,2.3-20.5,2.3c-6.1,0-11-2.5-14.4-7.8
				c-3.3-5.2-4-12.6-1.9-22.1l33-152.1h71.8l6.3-29.3h-71.7L575,98.5h-0.2c5.8-26.9,1.2-49.3-11.7-64c-12.9-15-33-21.4-53.9-21.4
				c-24.7,0-51.4,8.7-74.5,24.9c-23,16-42.2,40.6-48.5,69.8c-4.3,20.3-2.7,38.7,6,58.7c-0.4,0-0.8,0-1.3,0
				c-24.2,0-44.3,5.8-60.4,17.8c-16.1,11.9-26.3,28.1-30.7,48.6c-2.2,9.8-2.5,18.3-0.8,25.2c1.6,6.9,4.6,13.1,8.9,18.5
				c4.3,5.5,9.9,10.6,16.7,15.2c6.8,4.5,14.2,9.6,22.4,14.8c6.5,4.3,12.4,8.1,18.1,11.4c5.6,3.3,10.5,6.5,14.2,9.6
				c3.9,3.2,6.6,6.7,8.3,10.7c1.7,3.9,1.9,8.7,0.8,14.3c-2.9,13.5-8.6,22.5-17.4,27.1c-8.5,4.4-19.7,6.7-33.5,6.7
				c-8.9,0-18.2-2.2-27.6-6.5c-9.5-4.3-17.6-12.4-24.2-24.8l-29.2,24.8c7.2,12.6,16.8,22.2,28.5,29c11.7,6.8,26.7,10.1,45.1,10.1
				c23.7,0,44.7-5.7,62.7-17.1c18.1-11.4,29.7-29.3,35-53.8c2.2-9.9,2.6-18.3,1.3-25c-1.4-6.8-4.2-12.7-8.5-17.8
				c-4.2-5.2-9.8-9.9-16.7-14.2c-6.9-4.2-14.7-8.9-23.3-14.2c-4.5-3-9.6-5.9-15-9.1c-5.4-3-10.3-6-14.9-9.3c-4.5-3.4-8-7-10.6-11.1
				c-2.6-4.2-3.2-8.9-2-14.7c2.5-11.6,7.9-19.9,16.1-25c8.2-5.2,18.5-7.8,30.9-7.8c9.1,0,17.2,2.5,24.7,7.2
				c7.5,4.7,13.5,10.1,18,16.2l27.5-25.3c-1.9-2.6-4.3-5.3-6.9-7.9c-3.3-4.2-6.5-8.1-9.1-12h-0.1c-34.3-47.9-44-93.9,9.5-122.2
				c37.4-19.7,62.8-10.7,75.9,0.3l0.1,0.1c0.5,0.4,1.1,1,1.6,1.4c1.3,1.1,2.6,2,3.7,3.2c6,7.2,9.6,18.4,5.5,38.3l-0.9,4.2h0.1
				l-14.7,67.8h-40l-6.4,29.3h39.4l-33.7,155.5c-4.5,20.5-3.3,35.8,3.2,45.9c6.7,10.1,20.8,15.1,42.7,15.1c9.4,0,19.2-1.6,29.6-5.1
				c10.3-3.2,19.9-6.9,28.8-10.9l-2.5-29.2C571.8,376,563.5,378.8,556.7,380.3"/>
		</g>
	</g>
</g>
</svg>
