<?xml version="1.0" encoding="utf-8"?>
<!-- Generator: Adobe Illustrator 17.1.0, SVG Export Plug-In . SVG Version: 6.00 Build 0)  -->
<!DOCTYPE svg PUBLIC "-//W3C//DTD SVG 1.1//EN" "http://www.w3.org/Graphics/SVG/1.1/DTD/svg11.dtd">
<svg version="1.1" xmlns="http://www.w3.org/2000/svg" xmlns:xlink="http://www.w3.org/1999/xlink" x="0px" y="0px"
	 viewBox="-3985.9 1753.2 918 918" enable-background="new -3985.9 1753.2 918 918" xml:space="preserve">
<g id="Layer_2" display="none">
</g>
<g id="Layer_1">
	<polygon fill="#848484" points="-3446.7,2363.9 -3598.6,2363.9 -3587.1,2275.1 -3458.2,2275.1 	"/>
	<path fill="#C0C2C4" d="M-3446.7,2363.9l22.9,19.7c0,5.5-7.4,9.9-16.4,9.9H-3605c-9.1,0-16.4-4.4-16.4-9.9l22.9-19.7"/>
	<path fill="#1C262D" stroke="#BABABA" stroke-width="11.4596" stroke-miterlimit="10" d="M-3264.6,2330.8h-516
		c-4.1,0-7.5-3.4-7.5-7.5v-284.9c0-4.1,3.4-7.5,7.5-7.5h516c4.1,0,7.5,3.4,7.5,7.5v284.9
		C-3257.1,2327.5-3260.5,2330.8-3264.6,2330.8z"/>
	<g>
		<path fill="#FFFFFF" d="M-3480.7,2173.4c-1.4,0-2.7,0.3-3.9,1c-1.2,0.7-2.3,1.5-3.1,2.6c-0.2-1.4-0.7-2.3-1.5-2.9
			c-0.8-0.5-2-0.8-3.5-0.8c-1.4,0-2.6,0.3-3.7,1c-1.1,0.7-2.1,1.6-3,2.7l0.5-3.2h-3.3l-4.9,22.6h3.7l3-13.7c0.1-0.7,0.4-1.4,0.8-2.1
			c0.4-0.7,0.9-1.4,1.4-2c0.6-0.6,1.2-1.1,1.9-1.5c0.7-0.4,1.4-0.6,2.1-0.6c1.4,0,2.2,0.4,2.5,1.2c0.3,0.8,0.3,1.8,0.1,3.1
			l-3.4,15.6h3.7l3.1-14.2c0.2-0.7,0.4-1.4,0.8-2.1c0.4-0.7,0.8-1.3,1.4-1.8c0.5-0.5,1.1-0.9,1.8-1.2c0.7-0.3,1.4-0.5,2.1-0.5
			c1.4,0,2.3,0.3,2.7,0.9c0.4,0.6,0.5,1.6,0.2,2.9l-3.5,16h3.7l3.6-16.5c0.5-2.3,0.4-4-0.4-5
			C-3476.6,2173.9-3478.2,2173.4-3480.7,2173.4 M-3528.1,2193.2c-0.6,0.1-1.3,0.2-1.9,0.2c-0.6,0-1-0.2-1.3-0.7
			c-0.3-0.5-0.4-1.2-0.2-2.1l3.1-14.1h5.2l0.6-2.7h-5.2l1.5-6.8h-3.6l-1.5,6.8h-3.7l-0.6,2.7h3.7l-3.1,14.5
			c-0.4,1.9-0.3,3.3,0.3,4.3c0.6,0.9,1.9,1.4,4,1.4c0.9,0,1.8-0.2,2.8-0.5c1-0.3,1.9-0.6,2.7-1l-0.2-2.7
			C-3526.8,2192.8-3527.5,2193.1-3528.1,2193.2 M-3519.1,2180.9c0.3-1.3,1-2.4,2.1-3.2c1.1-0.8,2.3-1.2,3.7-1.2c1.3,0,2.2,0.3,2.7,1
			c0.5,0.6,0.7,1.6,0.6,2.8l-0.3,2l-9.4,1.6L-3519.1,2180.9z M-3513.5,2193.2c-0.9,0.3-1.9,0.5-2.8,0.5c-1.6,0-2.9-0.4-3.7-1.3
			c-0.8-0.8-1.1-2-0.8-3.6l0.5-2.3l13.1-2.2l0.7-3.4c0.2-1.1,0.3-2.2,0.1-3.1c-0.2-0.9-0.6-1.7-1.1-2.4c-0.5-0.7-1.3-1.2-2.1-1.5
			c-0.9-0.3-1.9-0.5-3.1-0.5c-1.2,0-2.4,0.2-3.5,0.5c-1.1,0.4-2.1,0.9-3,1.5c-0.9,0.6-1.6,1.4-2.2,2.4c-0.6,0.9-1.1,2-1.3,3.2
			l-1.7,7.8c-0.6,2.7-0.2,4.7,1.1,6c1.3,1.4,3.3,2.1,6.1,2.1c1.5,0,2.9-0.2,4.2-0.7c1.3-0.4,2.7-1.2,4-2.3l-1.5-2.4
			C-3511.5,2192.3-3512.6,2192.8-3513.5,2193.2 M-3425.5,2192.5c-0.9,0.4-1.7,0.6-2.3,0.8c-0.6,0.1-1.3,0.2-1.9,0.2
			c-0.6,0-1-0.2-1.3-0.7c-0.3-0.5-0.4-1.2-0.2-2.1l3.1-14.1h5.2l0.6-2.7h-5.2l1.5-6.8h-3.6l-1.5,6.8h-3.7l-0.6,2.7h3.7l-3.1,14.5
			c-0.4,1.9-0.3,3.3,0.3,4.3c0.6,0.9,1.9,1.4,4,1.4c0.9,0,1.8-0.2,2.7-0.5c1-0.3,1.9-0.6,2.7-1L-3425.5,2192.5z M-3469.7,2180.9
			c0.3-1.3,1-2.4,2.1-3.2c1.1-0.8,2.3-1.2,3.7-1.2c1.3,0,2.2,0.3,2.7,1c0.5,0.6,0.7,1.6,0.6,2.8l-0.3,2l-9.4,1.6L-3469.7,2180.9z
			 M-3464.1,2193.2c-0.9,0.3-1.9,0.5-2.8,0.5c-1.6,0-2.9-0.4-3.7-1.3c-0.8-0.8-1.1-2-0.8-3.6l0.5-2.3l13.1-2.2l0.7-3.4
			c0.2-1.1,0.3-2.2,0.1-3.1c-0.2-0.9-0.5-1.7-1.1-2.4c-0.5-0.7-1.3-1.2-2.2-1.5c-0.9-0.3-1.9-0.5-3.1-0.5c-1.2,0-2.4,0.2-3.5,0.5
			c-1.1,0.4-2.1,0.9-3,1.5c-0.9,0.6-1.6,1.4-2.2,2.4c-0.6,0.9-1,2-1.3,3.2l-1.7,7.8c-0.6,2.7-0.2,4.7,1.1,6c1.3,1.4,3.3,2.1,6.1,2.1
			c1.5,0,2.9-0.2,4.2-0.7c1.3-0.4,2.7-1.2,4-2.3l-1.5-2.4C-3462.2,2192.3-3463.2,2192.8-3464.1,2193.2 M-3442.7,2173.3
			c-1.5,0-2.8,0.3-3.9,0.9c-1.1,0.6-2.1,1.5-3.2,2.6l0.4-3h-3.4l-4.9,22.6h3.7l3-13.9c0.2-0.7,0.5-1.4,0.9-2.1
			c0.5-0.7,1-1.3,1.7-1.9c0.6-0.6,1.3-1,2.1-1.4c0.8-0.4,1.5-0.5,2.3-0.5c1.5,0,2.4,0.4,2.8,1.3c0.4,0.8,0.4,2,0.1,3.4l-3.3,15.2
			h3.7l3.4-15.7c0.5-2.4,0.4-4.2-0.4-5.5C-3438.6,2174-3440.2,2173.3-3442.7,2173.3 M-3543.1,2189.2c-0.1,0.6-0.4,1.2-0.7,1.8
			c-0.4,0.5-0.8,1-1.3,1.4c-0.5,0.4-1.1,0.7-1.7,0.9c-0.6,0.2-1.2,0.3-1.9,0.3c-1.1,0-1.9-0.2-2.6-0.7c-0.6-0.4-0.8-1.2-0.6-2.2
			l0.8-3.7l8.8-1.7L-3543.1,2189.2z M-3543.2,2173.4c-0.6,0-1.3,0.1-2.1,0.2c-0.8,0.2-1.6,0.4-2.3,0.7c-0.8,0.3-1.5,0.6-2.3,0.9
			c-0.7,0.3-1.4,0.6-1.9,0.9l0.8,2.7c0.4-0.2,1-0.5,1.6-0.8c0.6-0.3,1.2-0.5,1.9-0.8c0.6-0.2,1.3-0.4,1.9-0.5
			c0.6-0.1,1.1-0.2,1.5-0.2c1.5,0,2.4,0.3,2.9,0.8c0.4,0.6,0.5,1.6,0.2,3l-0.5,2.4l-12.7,2.4l-1.3,5.8c-0.4,2-0.2,3.4,0.8,4.4
			c1,1,2.5,1.5,4.6,1.5c1.3,0,2.5-0.3,3.7-1c1.1-0.7,2.1-1.5,2.9-2.5l-0.4,3h3l3.5-16.1c0.5-2.4,0.3-4.1-0.6-5.3
			C-3539,2173.9-3540.7,2173.4-3543.2,2173.4 M-3592.5,2189.3c-0.3,1.5-1,2.6-2,3.3c-1,0.7-2.2,1.1-3.7,1.1c-1.5,0-2.6-0.5-3.3-1.4
			c-0.7-0.9-0.9-2.1-0.6-3.6l1.6-7.2c0.3-1.4,1-2.6,2.2-3.5c1.1-0.9,2.4-1.4,3.9-1.4c1.5,0,2.6,0.4,3.3,1.1c0.7,0.7,0.9,1.8,0.5,3.2
			L-3592.5,2189.3z M-3592.8,2173.4c-1.3,0-2.6,0.3-3.8,0.9c-1.2,0.6-2.3,1.4-3.2,2.5l0.3-2.9h-3l-8.1,37.2h3.7l3.7-17
			c0.4,1,1.1,1.8,2,2.2c1,0.4,2,0.6,3.2,0.6c2.5,0,4.5-0.7,6-2c1.6-1.3,2.6-3.2,3.1-5.6l1.8-8.5c0.5-2.5,0.3-4.3-0.6-5.6
			C-3588.5,2174-3590.3,2173.4-3592.8,2173.4 M-3612.6,2187.4c-0.4,2.1-1.4,3.6-3,4.7c-1.5,1-3.3,1.6-5.2,1.6c-1,0-1.8-0.1-2.6-0.3
			c-0.8-0.2-1.4-0.6-2-1.1c-0.5-0.5-0.9-1.1-1.1-1.9c-0.2-0.8-0.2-1.8,0.1-2.9l4.6-21.4h-3.7l-4.6,21.4c-0.6,2.9-0.2,5.2,1.2,6.9
			c1.4,1.7,3.9,2.5,7.4,2.5c1.5,0,2.9-0.2,4.3-0.6c1.4-0.4,2.6-0.9,3.7-1.7c1.1-0.8,2.1-1.8,2.9-2.9c0.8-1.2,1.4-2.6,1.7-4.2
			l4.6-21.4h-3.7L-3612.6,2187.4z M-3560.9,2193.2c-0.6,0.1-1.3,0.2-1.9,0.2c-0.6,0-1-0.2-1.3-0.7c-0.3-0.5-0.4-1.2-0.2-2.1
			l3.1-14.1h5.2l0.6-2.7h-5.2l1.5-6.8h0c0.5-2.5,0.1-4.6-1.1-5.9c-1.2-1.4-3.1-2-5-2c-2.3,0-4.8,0.8-6.9,2.3
			c-2.1,1.5-3.9,3.8-4.5,6.5c-0.4,1.9-0.2,3.6,0.6,5.5c0,0-0.1,0-0.1,0c-2.2,0-4.1,0.6-5.6,1.7c-1.5,1.1-2.4,2.6-2.9,4.5
			c-0.2,0.9-0.2,1.7-0.1,2.3c0.1,0.6,0.4,1.2,0.8,1.7c0.4,0.5,0.9,1,1.5,1.4c0.6,0.4,1.3,0.9,2.1,1.4c0.6,0.4,1.1,0.7,1.7,1.1
			c0.5,0.3,1,0.6,1.3,0.9c0.4,0.3,0.6,0.6,0.8,1c0.2,0.4,0.2,0.8,0.1,1.3c-0.3,1.3-0.8,2.1-1.6,2.5c-0.8,0.4-1.8,0.6-3.1,0.6
			c-0.8,0-1.7-0.2-2.6-0.6c-0.9-0.4-1.6-1.2-2.2-2.3l-2.7,2.3c0.7,1.2,1.6,2.1,2.6,2.7c1.1,0.6,2.5,0.9,4.2,0.9
			c2.2,0,4.2-0.5,5.8-1.6c1.7-1.1,2.8-2.7,3.3-5c0.2-0.9,0.2-1.7,0.1-2.3c-0.1-0.6-0.4-1.2-0.8-1.7c-0.4-0.5-0.9-0.9-1.6-1.3
			c-0.6-0.4-1.4-0.8-2.2-1.3c-0.4-0.3-0.9-0.6-1.4-0.8c-0.5-0.3-1-0.6-1.4-0.9c-0.4-0.3-0.7-0.7-1-1c-0.2-0.4-0.3-0.8-0.2-1.4
			c0.2-1.1,0.7-1.8,1.5-2.3c0.8-0.5,1.7-0.7,2.9-0.7c0.8,0,1.6,0.2,2.3,0.7c0.7,0.4,1.2,0.9,1.7,1.5l2.5-2.3
			c-0.2-0.2-0.4-0.5-0.6-0.7c-0.3-0.4-0.6-0.8-0.8-1.1l0,0c-3.2-4.4-4.1-8.7,0.9-11.4c3.5-1.8,5.8-1,7.1,0c0,0,0,0,0,0
			c0.1,0,0.1,0.1,0.1,0.1c0.1,0.1,0.2,0.2,0.3,0.3c0.6,0.7,0.9,1.7,0.5,3.6l-0.1,0.4h0l-1.4,6.3h-3.7l-0.6,2.7h3.7l-3.1,14.5
			c-0.4,1.9-0.3,3.3,0.3,4.3c0.6,0.9,1.9,1.4,4,1.4c0.9,0,1.8-0.2,2.8-0.5c1-0.3,1.9-0.6,2.7-1l-0.2-2.7
			C-3559.5,2192.8-3560.3,2193.1-3560.9,2193.2"/>
	</g>
</g>
</svg>
