<?xml version="1.0" encoding="utf-8"?>
<!-- Generator: Adobe Illustrator 17.1.0, SVG Export Plug-In . SVG Version: 6.00 Build 0)  -->
<!DOCTYPE svg PUBLIC "-//W3C//DTD SVG 1.1//EN" "http://www.w3.org/Graphics/SVG/1.1/DTD/svg11.dtd">
<svg version="1.1" id="Layer_1" xmlns="http://www.w3.org/2000/svg" xmlns:xlink="http://www.w3.org/1999/xlink" x="0px" y="0px"
	 viewBox="-54.2 -135.2 852.1 693.1" enable-background="new -54.2 -135.2 852.1 693.1" xml:space="preserve">
<g id="Layer_2" display="none">
</g>
<g id="Layer_1_1_">
	<rect x="333.9" y="0.6" fill="#494949" width="90.7" height="391.6"/>
	<circle fill="#343435" cx="333.9" cy="364.6" r="14.2"/>
	<path d="M502.7,0.6H240.9c-7.9,0-14.3,6.4-14.3,14.3v362.9c0,7.9,6.4,14.3,14.3,14.3h261.8c7.9,0,14.3-6.4,14.3-14.3V14.9
		C517,7,510.6,0.6,502.7,0.6z M361.9,12.9h27.7V17h-27.7V12.9z M375.6,376c-6.3,0-11.3-5.1-11.3-11.3c0-6.3,5.1-11.3,11.3-11.3
		s11.3,5.1,11.3,11.3C386.9,370.9,381.8,376,375.6,376z M499.8,344.4H244.5v-316h255.4V344.4z"/>
	<rect x="244.5" y="28.4" fill="#1C262D" width="255.4" height="316"/>
	<path fill="#FFFFFF" d="M393.8,212.8c-1.1,0.3-2.2,0.4-3.3,0.4c-1,0-1.8-0.4-2.3-1.3c-0.6-0.8-0.6-2-0.3-3.6l5.3-24.5h11.5l1-4.7
		h-11.5l2.5-11.7h-0.1c1-4.4,0.2-7.9-1.9-10.3s-5.3-3.5-8.7-3.5c-4,0-8.3,1.4-12,4c-3.7,2.6-6.8,6.5-7.8,11.3
		c-0.7,3.3-0.4,6.2,1,9.4c-0.1,0-0.1,0-0.2,0c-3.9,0-7.2,1-9.8,2.9c-2.6,1.9-4.2,4.6-4.9,7.9c-0.3,1.6-0.4,3-0.1,4.1
		c0.3,1.1,0.8,2.1,1.5,3c0.7,0.9,1.6,1.7,2.7,2.5c1.1,0.8,2.3,1.5,3.6,2.4c1,0.7,2,1.3,2.9,1.8c0.9,0.5,1.6,1,2.3,1.5
		c0.6,0.5,1.1,1.1,1.3,1.7c0.3,0.6,0.3,1.4,0.1,2.3c-0.4,2.2-1.4,3.6-2.8,4.4c-1.4,0.7-3.2,1.1-5.4,1.1c-1.5,0-2.9-0.3-4.4-1.1
		c-1.5-0.7-2.9-2-3.9-4l-4.7,4c1.1,2,2.7,3.6,4.6,4.7c1.9,1.1,4.3,1.6,7.3,1.6c3.8,0,7.2-0.9,10.1-2.7c2.9-1.8,4.8-4.8,5.6-8.7
		c0.4-1.6,0.4-3,0.2-4.1c-0.3-1.1-0.7-2-1.4-2.9s-1.6-1.6-2.7-2.3s-2.3-1.5-3.7-2.3c-0.7-0.5-1.5-1-2.4-1.5c-0.9-0.5-1.6-1-2.4-1.5
		c-0.7-0.6-1.3-1.1-1.7-1.8c-0.4-0.7-0.5-1.5-0.3-2.3c0.4-1.9,1.3-3.2,2.6-4.1c1.3-0.8,3-1.3,5-1.3c1.5,0,2.8,0.4,4,1.1
		c1.2,0.8,2.2,1.6,2.9,2.6l4.4-4.1c-0.3-0.4-0.7-0.8-1.1-1.3c-0.6-0.7-1-1.3-1.5-2l0,0c-5.5-7.7-7.1-15.2,1.5-19.7
		c6-3.2,10.1-1.7,12.2,0.1l0,0c0.1,0.1,0.2,0.2,0.3,0.3c0.2,0.2,0.4,0.3,0.6,0.5c1,1.1,1.6,3,0.9,6.1l-0.1,0.7l0,0l-2.3,10.9h-6.5
		l-1,4.7h6.3l-5.5,25c-0.7,3.3-0.6,5.8,0.5,7.4c1.1,1.6,3.4,2.4,6.9,2.4c1.5,0,3.1-0.3,4.8-0.8c1.6-0.5,3.2-1.1,4.6-1.8l-0.4-4.7
		C396.2,212.2,394.8,212.7,393.8,212.8"/>
</g>
</svg>
