<?xml version="1.0" encoding="utf-8"?>
<!-- Generator: Adobe Illustrator 17.1.0, SVG Export Plug-In . SVG Version: 6.00 Build 0)  -->
<!DOCTYPE svg PUBLIC "-//W3C//DTD SVG 1.1//EN" "http://www.w3.org/Graphics/SVG/1.1/DTD/svg11.dtd">
<svg version="1.1" xmlns="http://www.w3.org/2000/svg" xmlns:xlink="http://www.w3.org/1999/xlink" x="0px" y="0px"
	 viewBox="-6374.9 1753.2 918 918" enable-background="new -6374.9 1753.2 918 918" xml:space="preserve">
<g id="Layer_2" display="none">
</g>
<g id="Layer_1">
	<path fill="#848484" d="M-5706.2,2367.4c0,4.2-3.4,7.6-7.6,7.6h-467c-4.2,0-7.6-3.4-7.6-7.6"/>
	<path fill="#848484" d="M-5755.3,2301.5h-383.9c-4.2,0-7.6-3.4-7.6-7.6v-236.9c0-4.2,3.4-7.6,7.6-7.6h383.9c4.2,0,7.6,3.4,7.6,7.6
		v236.9C-5747.7,2298.1-5751.1,2301.5-5755.3,2301.5z"/>
	<path fill="#C0C2C4" d="M-5710.1,2369.6h-474.4c-3.6,0-5.8-3.9-3.9-7l40.2-65.3c0.8-1.4,2.3-2.2,3.9-2.2h394.1
		c1.6,0,3.1,0.8,3.9,2.2l40.2,65.3C-5704.3,2365.7-5706.5,2369.6-5710.1,2369.6z"/>
	<rect x="-6137.3" y="2060" fill="#1C262D" width="380" height="228.2"/>
	<path fill="#9B9D9E" d="M-5759,2328.8h-380c-1.3,0-2.1-1.4-1.4-2.6l14.7-23.9c0.3-0.5,0.8-0.8,1.4-0.8h350.6c0.6,0,1.1,0.3,1.4,0.8
		l14.7,23.9C-5756.9,2327.4-5757.7,2328.8-5759,2328.8z"/>
	<g>
		<path fill="#FFFFFF" d="M-5901.6,2169c-1.4,0-2.7,0.3-3.9,1c-1.2,0.7-2.3,1.5-3.1,2.6c-0.2-1.4-0.7-2.3-1.5-2.9
			c-0.8-0.5-2-0.8-3.5-0.8c-1.4,0-2.6,0.3-3.7,1c-1.1,0.7-2.1,1.6-3,2.7l0.5-3.2h-3.3l-4.9,22.6h3.7l3-13.7c0.1-0.7,0.4-1.4,0.8-2.1
			c0.4-0.7,0.9-1.4,1.4-2c0.6-0.6,1.2-1.1,1.9-1.5c0.7-0.4,1.4-0.6,2.1-0.6c1.4,0,2.2,0.4,2.5,1.2c0.3,0.8,0.3,1.8,0.1,3.1
			l-3.4,15.6h3.7l3.1-14.2c0.2-0.7,0.4-1.4,0.8-2.1c0.4-0.7,0.8-1.3,1.4-1.8c0.5-0.5,1.1-0.9,1.8-1.2c0.7-0.3,1.4-0.5,2.1-0.5
			c1.4,0,2.3,0.3,2.7,0.9c0.4,0.6,0.5,1.6,0.2,2.9l-3.5,16h3.7l3.6-16.5c0.5-2.3,0.4-4-0.4-5
			C-5897.5,2169.5-5899.2,2169-5901.6,2169 M-5949.1,2188.9c-0.6,0.1-1.3,0.2-1.9,0.2c-0.6,0-1-0.2-1.3-0.7
			c-0.3-0.5-0.4-1.2-0.2-2.1l3.1-14.1h5.2l0.6-2.7h-5.2l1.5-6.8h-3.6l-1.5,6.8h-3.7l-0.6,2.7h3.7l-3.1,14.5
			c-0.4,1.9-0.3,3.3,0.3,4.3c0.6,0.9,1.9,1.4,4,1.4c0.9,0,1.8-0.2,2.8-0.5c1-0.3,1.9-0.6,2.7-1l-0.2-2.7
			C-5947.7,2188.5-5948.4,2188.7-5949.1,2188.9 M-5940,2176.6c0.3-1.3,1-2.4,2.1-3.2c1.1-0.8,2.3-1.2,3.7-1.2c1.3,0,2.2,0.3,2.7,1
			c0.5,0.6,0.7,1.6,0.6,2.8l-0.3,2l-9.4,1.6L-5940,2176.6z M-5934.4,2188.8c-0.9,0.3-1.9,0.5-2.8,0.5c-1.6,0-2.9-0.4-3.7-1.3
			c-0.8-0.8-1.1-2-0.8-3.6l0.5-2.3l13.1-2.2l0.7-3.4c0.2-1.1,0.3-2.2,0.1-3.1c-0.2-0.9-0.6-1.7-1.1-2.4c-0.5-0.7-1.3-1.2-2.1-1.5
			c-0.9-0.3-1.9-0.5-3.1-0.5c-1.2,0-2.4,0.2-3.5,0.5c-1.1,0.4-2.1,0.9-3,1.5c-0.9,0.6-1.6,1.4-2.2,2.4c-0.6,0.9-1.1,2-1.3,3.2
			l-1.7,7.8c-0.6,2.7-0.2,4.7,1.1,6c1.3,1.4,3.3,2.1,6.1,2.1c1.5,0,2.9-0.2,4.2-0.7c1.3-0.4,2.7-1.2,4-2.3l-1.5-2.4
			C-5932.4,2187.9-5933.5,2188.5-5934.4,2188.8 M-5846.4,2188.1c-0.9,0.4-1.7,0.6-2.3,0.8c-0.6,0.1-1.3,0.2-1.9,0.2
			c-0.6,0-1-0.2-1.3-0.7c-0.3-0.5-0.4-1.2-0.2-2.1l3.1-14.1h5.2l0.6-2.7h-5.2l1.5-6.8h-3.6l-1.5,6.8h-3.7l-0.6,2.7h3.7l-3.1,14.5
			c-0.4,1.9-0.3,3.3,0.3,4.3c0.6,0.9,1.9,1.4,4,1.4c0.9,0,1.8-0.2,2.7-0.5c1-0.3,1.9-0.6,2.7-1L-5846.4,2188.1z M-5890.6,2176.6
			c0.3-1.3,1-2.4,2.1-3.2c1.1-0.8,2.3-1.2,3.7-1.2c1.3,0,2.2,0.3,2.7,1c0.5,0.6,0.7,1.6,0.6,2.8l-0.3,2l-9.4,1.6L-5890.6,2176.6z
			 M-5885,2188.8c-0.9,0.3-1.9,0.5-2.8,0.5c-1.6,0-2.9-0.4-3.7-1.3c-0.8-0.8-1.1-2-0.8-3.6l0.5-2.3l13.1-2.2l0.7-3.4
			c0.2-1.1,0.3-2.2,0.1-3.1c-0.2-0.9-0.5-1.7-1.1-2.4c-0.5-0.7-1.3-1.2-2.1-1.5c-0.9-0.3-1.9-0.5-3.1-0.5c-1.2,0-2.4,0.2-3.5,0.5
			c-1.1,0.4-2.1,0.9-3,1.5c-0.9,0.6-1.6,1.4-2.2,2.4c-0.6,0.9-1,2-1.3,3.2l-1.7,7.8c-0.6,2.7-0.2,4.7,1.1,6c1.3,1.4,3.3,2.1,6.1,2.1
			c1.5,0,2.9-0.2,4.2-0.7c1.3-0.4,2.7-1.2,4-2.3l-1.5-2.4C-5883.1,2187.9-5884.1,2188.5-5885,2188.8 M-5863.6,2169
			c-1.5,0-2.8,0.3-3.9,0.9c-1.1,0.6-2.1,1.5-3.2,2.6l0.4-3h-3.4l-4.9,22.6h3.7l3-13.9c0.2-0.7,0.5-1.4,0.9-2.1
			c0.5-0.7,1-1.3,1.7-1.9c0.6-0.6,1.3-1,2.1-1.4c0.8-0.4,1.5-0.5,2.3-0.5c1.5,0,2.4,0.4,2.8,1.3c0.4,0.8,0.4,2,0.1,3.4l-3.3,15.2
			h3.7l3.4-15.7c0.5-2.4,0.4-4.2-0.4-5.5C-5859.5,2169.6-5861.1,2169-5863.6,2169 M-5964,2184.9c-0.1,0.6-0.4,1.2-0.7,1.8
			c-0.4,0.5-0.8,1-1.3,1.4c-0.5,0.4-1.1,0.7-1.7,0.9c-0.6,0.2-1.2,0.3-1.9,0.3c-1.1,0-1.9-0.2-2.6-0.7c-0.6-0.4-0.8-1.2-0.6-2.2
			l0.8-3.7l8.8-1.7L-5964,2184.9z M-5964.1,2169c-0.6,0-1.3,0.1-2.1,0.2c-0.8,0.2-1.6,0.4-2.3,0.7c-0.8,0.3-1.5,0.6-2.3,0.9
			c-0.7,0.3-1.4,0.6-1.9,0.9l0.8,2.7c0.4-0.2,1-0.5,1.6-0.8c0.6-0.3,1.2-0.5,1.9-0.8c0.6-0.2,1.3-0.4,1.9-0.5
			c0.6-0.1,1.1-0.2,1.5-0.2c1.5,0,2.4,0.3,2.9,0.8c0.4,0.6,0.5,1.6,0.2,3l-0.5,2.4l-12.7,2.4l-1.3,5.8c-0.4,2-0.2,3.4,0.8,4.4
			c1,1,2.5,1.5,4.6,1.5c1.3,0,2.5-0.3,3.7-1c1.1-0.7,2.1-1.5,2.9-2.5l-0.4,3h3l3.5-16.1c0.5-2.4,0.3-4.1-0.6-5.3
			C-5959.9,2169.6-5961.6,2169-5964.1,2169 M-6013.4,2184.9c-0.3,1.5-1,2.6-2,3.3c-1,0.7-2.2,1.1-3.7,1.1c-1.5,0-2.6-0.5-3.3-1.4
			c-0.7-0.9-0.9-2.1-0.6-3.6l1.6-7.2c0.3-1.4,1-2.6,2.2-3.5c1.1-0.9,2.4-1.4,3.9-1.4c1.5,0,2.6,0.4,3.3,1.1c0.7,0.7,0.9,1.8,0.5,3.2
			L-6013.4,2184.9z M-6013.7,2169c-1.3,0-2.6,0.3-3.8,0.9c-1.2,0.6-2.3,1.4-3.2,2.5l0.3-2.9h-3l-8.1,37.2h3.7l3.7-17
			c0.4,1,1.1,1.8,2,2.2c1,0.4,2,0.6,3.2,0.6c2.5,0,4.5-0.7,6-2c1.6-1.3,2.6-3.2,3.1-5.6l1.8-8.5c0.5-2.5,0.3-4.3-0.6-5.6
			C-6009.5,2169.6-6011.2,2169-6013.7,2169 M-6033.5,2183.1c-0.4,2.1-1.4,3.6-3,4.7c-1.5,1-3.3,1.6-5.2,1.6c-1,0-1.8-0.1-2.6-0.3
			c-0.8-0.2-1.4-0.6-2-1.1c-0.5-0.5-0.9-1.1-1.1-1.9c-0.2-0.8-0.2-1.8,0.1-2.9l4.6-21.4h-3.7l-4.6,21.4c-0.6,2.9-0.2,5.2,1.2,6.9
			c1.4,1.7,3.9,2.5,7.4,2.5c1.5,0,2.9-0.2,4.3-0.6c1.4-0.4,2.6-0.9,3.7-1.7c1.1-0.8,2.1-1.8,2.9-2.9c0.8-1.2,1.4-2.6,1.7-4.2
			l4.6-21.4h-3.7L-6033.5,2183.1z M-5981.9,2188.9c-0.6,0.1-1.3,0.2-1.9,0.2c-0.6,0-1-0.2-1.3-0.7c-0.3-0.5-0.4-1.2-0.2-2.1
			l3.1-14.1h5.2l0.6-2.7h-5.2l1.5-6.8h0c0.5-2.5,0.1-4.6-1.1-5.9c-1.2-1.4-3.1-2-5-2c-2.3,0-4.8,0.8-6.9,2.3
			c-2.1,1.5-3.9,3.8-4.5,6.5c-0.4,1.9-0.2,3.6,0.6,5.5c0,0-0.1,0-0.1,0c-2.2,0-4.1,0.6-5.6,1.7c-1.5,1.1-2.4,2.6-2.9,4.5
			c-0.2,0.9-0.2,1.7-0.1,2.3c0.1,0.6,0.4,1.2,0.8,1.7c0.4,0.5,0.9,1,1.5,1.4c0.6,0.4,1.3,0.9,2.1,1.4c0.6,0.4,1.1,0.7,1.7,1.1
			c0.5,0.3,1,0.6,1.3,0.9c0.4,0.3,0.6,0.6,0.8,1c0.2,0.4,0.2,0.8,0.1,1.3c-0.3,1.3-0.8,2.1-1.6,2.5c-0.8,0.4-1.8,0.6-3.1,0.6
			c-0.8,0-1.7-0.2-2.6-0.6c-0.9-0.4-1.6-1.2-2.2-2.3l-2.7,2.3c0.7,1.2,1.6,2.1,2.6,2.7c1.1,0.6,2.5,0.9,4.2,0.9
			c2.2,0,4.2-0.5,5.8-1.6c1.7-1.1,2.8-2.7,3.3-5c0.2-0.9,0.2-1.7,0.1-2.3c-0.1-0.6-0.4-1.2-0.8-1.7c-0.4-0.5-0.9-0.9-1.6-1.3
			c-0.6-0.4-1.4-0.8-2.2-1.3c-0.4-0.3-0.9-0.6-1.4-0.8c-0.5-0.3-1-0.6-1.4-0.9c-0.4-0.3-0.7-0.7-1-1c-0.2-0.4-0.3-0.8-0.2-1.4
			c0.2-1.1,0.7-1.8,1.5-2.3c0.8-0.5,1.7-0.7,2.9-0.7c0.8,0,1.6,0.2,2.3,0.7c0.7,0.4,1.2,0.9,1.7,1.5l2.5-2.3
			c-0.2-0.2-0.4-0.5-0.6-0.7c-0.3-0.4-0.6-0.8-0.8-1.1l0,0c-3.2-4.4-4.1-8.7,0.9-11.4c3.5-1.8,5.8-1,7.1,0c0,0,0,0,0,0
			c0.1,0,0.1,0.1,0.1,0.1c0.1,0.1,0.2,0.2,0.3,0.3c0.6,0.7,0.9,1.7,0.5,3.6l-0.1,0.4h0l-1.4,6.3h-3.7l-0.6,2.7h3.7l-3.1,14.5
			c-0.4,1.9-0.3,3.3,0.3,4.3c0.6,0.9,1.9,1.4,4,1.4c0.9,0,1.8-0.2,2.8-0.5c1-0.3,1.9-0.6,2.7-1l-0.2-2.7
			C-5980.5,2188.5-5981.2,2188.7-5981.9,2188.9"/>
	</g>
</g>
</svg>
