<?xml version="1.0" encoding="utf-8"?>
<!-- Generator: Adobe Illustrator 17.1.0, SVG Export Plug-In . SVG Version: 6.00 Build 0)  -->
<!DOCTYPE svg PUBLIC "-//W3C//DTD SVG 1.1//EN" "http://www.w3.org/Graphics/SVG/1.1/DTD/svg11.dtd">
<svg version="1.1" id="Layer_1" xmlns="http://www.w3.org/2000/svg" xmlns:xlink="http://www.w3.org/1999/xlink" x="0px" y="0px"
	 viewBox="-54.2 -135.2 852.1 693.1" enable-background="new -54.2 -135.2 852.1 693.1" xml:space="preserve">
<g id="Layer_2" display="none">
</g>
<rect x="269.1" y="122.6" fill="#494949" width="214.5" height="142.5"/>
<ellipse transform="matrix(0.9248 -0.3805 0.3805 0.9248 -48.5956 212.617)" fill="#494949" cx="513.4" cy="229.2" rx="56.2" ry="134.2"/>
<ellipse transform="matrix(-0.9248 -0.3805 0.3805 -0.9248 380.6885 533.6824)" fill="#494949" cx="243.1" cy="229.2" rx="56.2" ry="134.2"/>
<g id="Layer_1_1_">
	<path fill="#2B2B2B" d="M1098.5,223.1H986.7l-10,77h131.6L1098.5,223.1z M1042.5,282.6c-11.6,0-21.2-9.5-21.2-21.2
		c0-11.6,9.5-21.2,21.2-21.2c11.7,0,21.2,9.5,21.2,21.2C1063.7,273.2,1054.2,282.6,1042.5,282.6z"/>
	<path fill="#464747" d="M1108.4,300.1l19.9,17.1c0,4.8-6.4,8.6-14.2,8.6h-143c-7.9,0-14.2-3.8-14.2-8.6l19.9-17.1"/>
	<rect x="828.1" y="-16.4" fill="#494949" width="429" height="266"/>
	<rect x="843" y="-0.9" width="401" height="233.8"/>
	<g>
		<path fill="#FFFFFF" d="M1086.7,106.5c-1.2,0-2.3,0.3-3.4,0.9c-1,0.6-2,1.3-2.7,2.3c-0.2-1.2-0.6-2-1.3-2.5
			c-0.7-0.4-1.7-0.7-3-0.7c-1.2,0-2.3,0.3-3.2,0.9c-1,0.6-1.8,1.4-2.6,2.3l0.4-2.8h-2.9l-4.2,19.6h3.2l2.6-11.9
			c0.1-0.6,0.3-1.2,0.7-1.8c0.3-0.6,0.8-1.2,1.2-1.7c0.5-0.5,1-1,1.6-1.3c0.6-0.3,1.2-0.5,1.8-0.5c1.2,0,1.9,0.3,2.2,1
			c0.3,0.7,0.3,1.6,0.1,2.7l-2.9,13.5h3.2l2.7-12.3c0.2-0.6,0.3-1.2,0.7-1.8c0.3-0.6,0.7-1.1,1.2-1.6c0.4-0.4,1-0.8,1.6-1
			c0.6-0.3,1.2-0.4,1.8-0.4c1.2,0,2,0.3,2.3,0.8c0.3,0.5,0.4,1.4,0.2,2.5l-3,13.9h3.2l3.1-14.3c0.4-2,0.3-3.5-0.3-4.3
			C1090.1,107,1088.7,106.5,1086.7,106.5 M1045.5,123.7c-0.5,0.1-1.1,0.2-1.6,0.2c-0.5,0-0.9-0.2-1.1-0.6c-0.3-0.4-0.3-1-0.2-1.8
			l2.7-12.2h4.5l0.5-2.3h-4.5l1.3-5.9h-3.1l-1.3,5.9h-3.2l-0.5,2.3h3.2l-2.7,12.6c-0.3,1.6-0.3,2.9,0.3,3.7c0.5,0.8,1.6,1.2,3.5,1.2
			c0.8,0,1.6-0.2,2.4-0.4c0.9-0.3,1.6-0.5,2.3-0.9l-0.2-2.3C1046.7,123.3,1046,123.6,1045.5,123.7 M1053.4,113
			c0.3-1.1,0.9-2.1,1.8-2.8c1-0.7,2-1,3.2-1c1.1,0,1.9,0.3,2.3,0.9c0.4,0.5,0.6,1.4,0.5,2.4l-0.3,1.7l-8.2,1.4L1053.4,113z
			 M1058.2,123.7c-0.8,0.3-1.6,0.4-2.4,0.4c-1.4,0-2.5-0.3-3.2-1.1c-0.7-0.7-1-1.7-0.7-3.1l0.4-2l11.4-1.9l0.6-2.9
			c0.2-1,0.3-1.9,0.1-2.7c-0.2-0.8-0.5-1.5-1-2.1c-0.4-0.6-1.1-1-1.8-1.3c-0.8-0.3-1.6-0.4-2.7-0.4c-1,0-2.1,0.2-3,0.4
			c-1,0.3-1.8,0.8-2.6,1.3c-0.8,0.5-1.4,1.2-1.9,2.1c-0.5,0.8-1,1.7-1.1,2.8l-1.5,6.8c-0.5,2.3-0.2,4.1,1,5.2
			c1.1,1.2,2.9,1.8,5.3,1.8c1.3,0,2.5-0.2,3.6-0.6c1.1-0.3,2.3-1,3.5-2l-1.3-2.1C1059.9,122.9,1059,123.3,1058.2,123.7
			 M1134.4,123.1c-0.8,0.3-1.5,0.5-2,0.7c-0.5,0.1-1.1,0.2-1.6,0.2c-0.5,0-0.9-0.2-1.1-0.6c-0.3-0.4-0.3-1-0.2-1.8l2.7-12.2h4.5
			l0.5-2.3h-4.5l1.3-5.9h-3.1l-1.3,5.9h-3.2l-0.5,2.3h3.2l-2.7,12.6c-0.3,1.6-0.3,2.9,0.3,3.7c0.5,0.8,1.6,1.2,3.5,1.2
			c0.8,0,1.6-0.2,2.3-0.4c0.9-0.3,1.6-0.5,2.3-0.9L1134.4,123.1z M1096.2,113c0.3-1.1,0.9-2.1,1.8-2.8c1-0.7,2-1,3.2-1
			c1.1,0,1.9,0.3,2.3,0.9c0.4,0.5,0.6,1.4,0.5,2.4l-0.3,1.7l-8.2,1.4L1096.2,113z M1101.1,123.7c-0.8,0.3-1.6,0.4-2.4,0.4
			c-1.4,0-2.5-0.3-3.2-1.1c-0.7-0.7-1-1.7-0.7-3.1l0.4-2l11.4-1.9l0.6-2.9c0.2-1,0.3-1.9,0.1-2.7c-0.2-0.8-0.4-1.5-1-2.1
			c-0.4-0.6-1.1-1-1.9-1.3c-0.8-0.3-1.6-0.4-2.7-0.4c-1,0-2.1,0.2-3,0.4c-1,0.3-1.8,0.8-2.6,1.3c-0.8,0.5-1.4,1.2-1.9,2.1
			c-0.5,0.8-0.9,1.7-1.1,2.8l-1.5,6.8c-0.5,2.3-0.2,4.1,1,5.2c1.1,1.2,2.9,1.8,5.3,1.8c1.3,0,2.5-0.2,3.6-0.6c1.1-0.3,2.3-1,3.5-2
			l-1.3-2.1C1102.7,122.9,1101.8,123.3,1101.1,123.7 M1119.5,106.4c-1.3,0-2.4,0.3-3.4,0.8c-1,0.5-1.8,1.3-2.8,2.3l0.3-2.6h-2.9
			l-4.2,19.6h3.2l2.6-12.1c0.2-0.6,0.4-1.2,0.8-1.8c0.4-0.6,0.9-1.1,1.5-1.6c0.5-0.5,1.1-0.9,1.8-1.2c0.7-0.3,1.3-0.4,2-0.4
			c1.3,0,2.1,0.3,2.4,1.1c0.3,0.7,0.3,1.7,0.1,2.9l-2.9,13.2h3.2l2.9-13.6c0.4-2.1,0.3-3.6-0.3-4.8
			C1123.2,107,1121.7,106.4,1119.5,106.4 M1032.5,120.2c-0.1,0.5-0.3,1-0.6,1.6c-0.3,0.4-0.7,0.9-1.1,1.2s-1,0.6-1.5,0.8
			c-0.5,0.2-1,0.3-1.6,0.3c-1,0-1.6-0.2-2.3-0.6c-0.5-0.3-0.7-1-0.5-1.9l0.7-3.2l7.6-1.5L1032.5,120.2z M1032.4,106.5
			c-0.5,0-1.1,0.1-1.8,0.2c-0.7,0.2-1.4,0.3-2,0.6c-0.7,0.3-1.3,0.5-2,0.8c-0.6,0.3-1.2,0.5-1.6,0.8l0.7,2.3
			c0.3-0.2,0.9-0.4,1.4-0.7c0.5-0.3,1-0.4,1.6-0.7c0.5-0.2,1.1-0.3,1.6-0.4c0.5-0.1,1-0.2,1.3-0.2c1.3,0,2.1,0.3,2.5,0.7
			c0.3,0.5,0.4,1.4,0.2,2.6l-0.4,2.1l-11,2.1l-1.1,5c-0.3,1.7-0.2,2.9,0.7,3.8s2.2,1.3,4,1.3c1.1,0,2.2-0.3,3.2-0.9
			c1-0.6,1.8-1.3,2.5-2.2l-0.3,2.6h2.6l3-14c0.4-2.1,0.3-3.6-0.5-4.6C1036,107,1034.5,106.5,1032.4,106.5 M989.6,120.3
			c-0.3,1.3-0.9,2.3-1.7,2.9c-0.9,0.6-1.9,1-3.2,1c-1.3,0-2.3-0.4-2.9-1.2c-0.6-0.8-0.8-1.8-0.5-3.1l1.4-6.2c0.3-1.2,0.9-2.3,1.9-3
			c1-0.8,2.1-1.2,3.4-1.2s2.3,0.3,2.9,1c0.6,0.6,0.8,1.6,0.4,2.8L989.6,120.3z M989.4,106.5c-1.1,0-2.3,0.3-3.3,0.8
			c-1,0.5-2,1.2-2.8,2.2l0.3-2.5H981l-7,32.3h3.2l3.2-14.7c0.3,0.9,1,1.6,1.7,1.9c0.9,0.3,1.7,0.5,2.8,0.5c2.2,0,3.9-0.6,5.2-1.7
			c1.4-1.1,2.3-2.8,2.7-4.9l1.6-7.4c0.4-2.2,0.3-3.7-0.5-4.9C993.1,107,991.6,106.5,989.4,106.5 M972.2,118.7
			c-0.3,1.8-1.2,3.1-2.6,4.1c-1.3,0.9-2.9,1.4-4.5,1.4c-0.9,0-1.6-0.1-2.3-0.3c-0.7-0.2-1.2-0.5-1.7-1c-0.4-0.4-0.8-1-1-1.6
			c-0.2-0.7-0.2-1.6,0.1-2.5l4-18.6H961l-4,18.6c-0.5,2.5-0.2,4.5,1,6c1.2,1.5,3.4,2.2,6.4,2.2c1.3,0,2.5-0.2,3.7-0.5
			c1.2-0.3,2.3-0.8,3.2-1.5c1-0.7,1.8-1.6,2.5-2.5c0.7-1,1.2-2.3,1.5-3.6l4-18.6h-3.2L972.2,118.7z M1017,123.7
			c-0.5,0.1-1.1,0.2-1.6,0.2c-0.5,0-0.9-0.2-1.1-0.6s-0.3-1-0.2-1.8l2.7-12.2h4.5l0.5-2.3h-4.5l1.3-5.9l0,0c0.4-2.2,0.1-4-1-5.1
			c-1-1.2-2.7-1.7-4.3-1.7c-2,0-4.2,0.7-6,2c-1.8,1.3-3.4,3.3-3.9,5.6c-0.3,1.6-0.3,3.1,0.5,4.8h-0.1c-1.9,0-3.6,0.5-4.9,1.5
			c-1.3,1-2.1,2.3-2.5,3.9c-0.2,0.8-0.2,1.5-0.1,2c0.1,0.5,0.3,1,0.7,1.5c0.3,0.4,0.8,0.9,1.3,1.2s1.1,0.8,1.8,1.2
			c0.5,0.3,1,0.6,1.5,1c0.4,0.3,0.9,0.5,1.1,0.8c0.3,0.3,0.5,0.5,0.7,0.9s0.2,0.7,0.1,1.1c-0.3,1.1-0.7,1.8-1.4,2.2
			c-0.7,0.3-1.6,0.5-2.7,0.5c-0.7,0-1.5-0.2-2.3-0.5c-0.8-0.3-1.4-1-1.9-2l-2.3,2c0.6,1,1.4,1.8,2.3,2.3c1,0.5,2.2,0.8,3.6,0.8
			c1.9,0,3.6-0.4,5-1.4c1.5-1,2.4-2.3,2.9-4.3c0.2-0.8,0.2-1.5,0.1-2c-0.1-0.5-0.3-1-0.7-1.5c-0.3-0.4-0.8-0.8-1.4-1.1
			c-0.5-0.3-1.2-0.7-1.9-1.1c-0.3-0.3-0.8-0.5-1.2-0.7c-0.4-0.3-0.9-0.5-1.2-0.8c-0.3-0.3-0.6-0.6-0.9-0.9c-0.2-0.3-0.3-0.7-0.2-1.2
			c0.2-1,0.6-1.6,1.3-2s1.5-0.6,2.5-0.6c0.7,0,1.4,0.2,2,0.6c0.6,0.3,1,0.8,1.5,1.3l2.2-2c-0.2-0.2-0.3-0.4-0.5-0.6
			c-0.3-0.3-0.5-0.7-0.7-1l0,0c-2.8-3.8-3.6-7.5,0.8-9.9c3-1.6,5-0.9,6.2,0l0,0c0.1,0,0.1,0.1,0.1,0.1c0.1,0.1,0.2,0.2,0.3,0.3
			c0.5,0.6,0.8,1.5,0.4,3.1l-0.1,0.3l0,0l-1.2,5.5h-3.2l-0.5,2.3h3.2l-2.7,12.6c-0.3,1.6-0.3,2.9,0.3,3.7c0.5,0.8,1.6,1.2,3.5,1.2
			c0.8,0,1.6-0.2,2.4-0.4c0.9-0.3,1.6-0.5,2.3-0.9l-0.2-2.3C1018.2,123.3,1017.5,123.6,1017,123.7"/>
	</g>
</g>
</svg>
