<?xml version="1.0" encoding="utf-8"?>
<!-- Generator: Adobe Illustrator 17.1.0, SVG Export Plug-In . SVG Version: 6.00 Build 0)  -->
<!DOCTYPE svg PUBLIC "-//W3C//DTD SVG 1.1//EN" "http://www.w3.org/Graphics/SVG/1.1/DTD/svg11.dtd">
<svg version="1.1" xmlns="http://www.w3.org/2000/svg" xmlns:xlink="http://www.w3.org/1999/xlink" x="0px" y="0px"
	 viewBox="205.8 203.5 78.4 78.4" enable-background="new 205.8 203.5 78.4 78.4" xml:space="preserve">
<g id="Layer_2" display="none">
	<rect x="0" y="0" display="inline" fill="#58646D" width="78.4" height="78.4"/>
	<rect x="104.5" y="0" display="inline" fill="#58646D" width="78.4" height="78.4"/>
	<rect x="206" y="0" display="inline" fill="#58646D" width="78.4" height="78.4"/>
	<rect x="0" y="101.5" display="inline" fill="#58646D" width="78.4" height="78.4"/>
	<rect x="104.5" y="101.5" display="inline" fill="#58646D" width="78.4" height="78.4"/>
	<rect x="206" y="101.5" display="inline" fill="#58646D" width="78.4" height="78.4"/>
	<rect x="0" y="203.5" display="inline" fill="#58646D" width="78.4" height="78.4"/>
	<rect x="104.5" y="203.5" display="inline" fill="#58646D" width="78.4" height="78.4"/>
</g>
<g id="Layer_1">
	<rect x="142" y="215.8" fill="#494949" width="12.5" height="53.9"/>
	<rect x="34.7" y="218.9" fill="#484849" width="12.5" height="42.2"/>
	<path fill="#494949" d="M260.8,262.7v-40.8c0-0.7-0.5-1.2-1.2-1.2h-28.4c-0.7,0-1.2,0.5-1.2,1.2v40.8c0,0.7,0.5,1.2,1.2,1.2h28.4
		C260.3,263.9,260.8,263.4,260.8,262.7z"/>
	<rect x="231.7" y="226.4" width="27.5" height="30.8"/>
	<path fill="#C9C9C9" d="M52.6,67.9H25c-1.4,0-2.6-1.1-2.6-2.6V11.9c0-1.4,1.1-2.6,2.6-2.6h27.6c1.4,0,2.6,1.1,2.6,2.6v53.4
		C55.2,66.7,54,67.9,52.6,67.9z"/>
	<path fill="#848484" d="M166.2,362.5c0,0.4-0.3,0.7-0.7,0.7h-40.8c-0.4,0-0.7-0.3-0.7-0.7"/>
	<polygon fill="#848484" points="46.5,464 33.2,464 34.2,456.3 45.5,456.3 	"/>
	<path fill="#C0C2C4" d="M46.5,464l2,1.7c0,0.5-0.6,0.9-1.4,0.9H32.7c-0.8,0-1.4-0.4-1.4-0.9l2-1.7"/>
	<path stroke="#BABABA" stroke-miterlimit="10" d="M52.4,156.3c0,2.5-2.3,4.5-6,4.5H32c-4,0-6.2-2-6.2-4.5v-31.1
		c0-2.5,1.6-4.5,5.8-4.5h14.9c3.6,0,5.9,2,5.9,4.5V156.3z"/>
	<polygon fill="#11191E" points="28.3,149 28.3,155.6 35,156.3 35,155.9 41.6,155.9 41.6,156.3 49.6,155.9 49.8,149.5 38.8,151.6 	
		"/>
	<path fill="none" stroke="#1C262D" stroke-linecap="round" stroke-miterlimit="10" d="M49.4,155.3c-11.9,2.2-20.9,0-20.9,0"/>
	<circle fill="#C9C9C9" cx="38.9" cy="62.6" r="2"/>
	<path fill="#FFFFFF" d="M52.1,10.2H25.5c-1.1,0-2.1,0.9-2.1,2.1v52.2c0,1.1,0.9,2.1,2.1,2.1h26.7c1.1,0,2.1-0.9,2.1-2.1V12.3
		C54.2,11.2,53.3,10.2,52.1,10.2z M36.9,12h4v0.6h-4V12z M38.9,64.3c-0.9,0-1.6-0.7-1.6-1.6S38,61,38.9,61s1.6,0.7,1.6,1.6
		C40.5,63.5,39.8,64.3,38.9,64.3z M51.7,59.7H26V14.3h25.7V59.7z"/>
	<rect x="26" y="14.3" fill="#1C262D" width="25.7" height="45.5"/>
	<circle fill="#343435" cx="143.1" cy="62.6" r="2"/>
	<path d="M156.4,10.2h-26.7c-1.1,0-2.1,0.9-2.1,2.1v52.2c0,1.1,0.9,2.1,2.1,2.1h26.7c1.1,0,2.1-0.9,2.1-2.1V12.3
		C158.5,11.2,157.5,10.2,156.4,10.2z M141.1,12h4v0.6h-4V12z M143.1,64.3c-0.9,0-1.6-0.7-1.6-1.6s0.7-1.6,1.6-1.6s1.6,0.7,1.6,1.6
		C144.7,63.5,144,64.3,143.1,64.3z M156,59.7h-25.7V14.3H156V59.7z"/>
	<rect x="130.2" y="14.3" fill="#1C262D" width="25.7" height="45.5"/>
	<circle fill="#343435" cx="248.6" cy="57.6" r="2"/>
	<path d="M259.9,12.2h-24.7c-1.1,0-2.1,0.9-2.1,2.1v45.2c0,1.1,0.9,2.1,2.1,2.1h24.7c1.1,0,2.1-0.9,2.1-2.1V14.3
		C262,13.2,261,12.2,259.9,12.2z M246.6,14h4v0.6h-4V14z M248.6,59.3c-0.9,0-1.6-0.7-1.6-1.6s0.7-1.6,1.6-1.6s1.6,0.7,1.6,1.6
		C250.2,58.5,249.5,59.3,248.6,59.3z M259.5,53.7h-23.7V17.3h23.7V53.7z"/>
	<path fill="none" stroke="#9E9E9E" stroke-width="0.6" stroke-miterlimit="10" d="M259.9,12.2h-24.7c-1.1,0-2.1,0.9-2.1,2.1v45.2
		c0,1.1,0.9,2.1,2.1,2.1h24.7c1.1,0,2.1-0.9,2.1-2.1V14.3C262,13.2,261.1,12.2,259.9,12.2z"/>
	<rect x="235.7" y="17.3" fill="#1C262D" width="23.7" height="36.8"/>
	<path fill="#FFFFFF" d="M250.6,39.7c-0.2,0-0.3,0.1-0.5,0.1c-0.1,0-0.3-0.1-0.3-0.2c-0.1-0.1-0.1-0.3,0-0.5l0.8-3.5h1.7l0.1-0.7
		h-1.7l0.4-1.7h0c0.1-0.6,0-1.1-0.3-1.5c-0.3-0.3-0.8-0.5-1.2-0.5c-0.6,0-1.2,0.2-1.7,0.6c-0.5,0.4-1,0.9-1.1,1.6
		c-0.1,0.5-0.1,0.9,0.1,1.4c0,0,0,0,0,0c-0.6,0-1,0.1-1.4,0.4c-0.4,0.3-0.6,0.7-0.7,1.1c-0.1,0.2-0.1,0.4,0,0.6
		c0,0.2,0.1,0.3,0.2,0.4c0.1,0.1,0.2,0.2,0.4,0.4c0.2,0.1,0.3,0.2,0.5,0.3c0.1,0.1,0.3,0.2,0.4,0.3c0.1,0.1,0.2,0.2,0.3,0.2
		c0.1,0.1,0.2,0.2,0.2,0.2c0,0.1,0,0.2,0,0.3c-0.1,0.3-0.2,0.5-0.4,0.6c-0.2,0.1-0.5,0.2-0.8,0.2c-0.2,0-0.4-0.1-0.6-0.2
		c-0.2-0.1-0.4-0.3-0.6-0.6l-0.7,0.6c0.2,0.3,0.4,0.5,0.7,0.7c0.3,0.2,0.6,0.2,1,0.2c0.6,0,1-0.1,1.5-0.4c0.4-0.3,0.7-0.7,0.8-1.2
		c0.1-0.2,0.1-0.4,0-0.6c0-0.2-0.1-0.3-0.2-0.4c-0.1-0.1-0.2-0.2-0.4-0.3c-0.2-0.1-0.3-0.2-0.5-0.3c-0.1-0.1-0.2-0.1-0.3-0.2
		c-0.1-0.1-0.2-0.1-0.3-0.2c-0.1-0.1-0.2-0.2-0.2-0.3c-0.1-0.1-0.1-0.2,0-0.3c0.1-0.3,0.2-0.5,0.4-0.6c0.2-0.1,0.4-0.2,0.7-0.2
		c0.2,0,0.4,0.1,0.6,0.2c0.2,0.1,0.3,0.2,0.4,0.4l0.6-0.6c0-0.1-0.1-0.1-0.2-0.2c-0.1-0.1-0.1-0.2-0.2-0.3l0,0
		c-0.8-1.1-1-2.2,0.2-2.8c0.9-0.5,1.5-0.2,1.8,0c0,0,0,0,0,0c0,0,0,0,0,0c0,0,0.1,0,0.1,0.1c0.1,0.2,0.2,0.4,0.1,0.9l0,0.1h0
		l-0.3,1.6h-0.9l-0.1,0.7h0.9l-0.8,3.6c-0.1,0.5-0.1,0.8,0.1,1.1c0.2,0.2,0.5,0.4,1,0.4c0.2,0,0.4,0,0.7-0.1
		c0.2-0.1,0.5-0.2,0.7-0.3l-0.1-0.7C250.9,39.6,250.7,39.6,250.6,39.7"/>
	<path fill="#FFFFFF" d="M146.4,39.7c-0.2,0-0.3,0.1-0.5,0.1c-0.1,0-0.3-0.1-0.3-0.2c-0.1-0.1-0.1-0.3,0-0.5l0.8-3.5h1.7l0.1-0.7
		h-1.7l0.4-1.7h0c0.1-0.6,0-1.1-0.3-1.5c-0.3-0.3-0.8-0.5-1.2-0.5c-0.6,0-1.2,0.2-1.7,0.6c-0.5,0.4-1,0.9-1.1,1.6
		c-0.1,0.5-0.1,0.9,0.1,1.4c0,0,0,0,0,0c-0.6,0-1,0.1-1.4,0.4c-0.4,0.3-0.6,0.7-0.7,1.1c-0.1,0.2-0.1,0.4,0,0.6
		c0,0.2,0.1,0.3,0.2,0.4c0.1,0.1,0.2,0.2,0.4,0.4c0.2,0.1,0.3,0.2,0.5,0.3c0.1,0.1,0.3,0.2,0.4,0.3c0.1,0.1,0.2,0.2,0.3,0.2
		c0.1,0.1,0.2,0.2,0.2,0.2c0,0.1,0,0.2,0,0.3c-0.1,0.3-0.2,0.5-0.4,0.6c-0.2,0.1-0.5,0.2-0.8,0.2c-0.2,0-0.4-0.1-0.6-0.2
		c-0.2-0.1-0.4-0.3-0.6-0.6l-0.7,0.6c0.2,0.3,0.4,0.5,0.7,0.7c0.3,0.2,0.6,0.2,1,0.2c0.6,0,1-0.1,1.5-0.4c0.4-0.3,0.7-0.7,0.8-1.2
		c0.1-0.2,0.1-0.4,0-0.6c0-0.2-0.1-0.3-0.2-0.4c-0.1-0.1-0.2-0.2-0.4-0.3c-0.2-0.1-0.3-0.2-0.5-0.3c-0.1-0.1-0.2-0.1-0.3-0.2
		c-0.1-0.1-0.2-0.1-0.3-0.2c-0.1-0.1-0.2-0.2-0.2-0.3c-0.1-0.1-0.1-0.2,0-0.3c0.1-0.3,0.2-0.5,0.4-0.6c0.2-0.1,0.4-0.2,0.7-0.2
		c0.2,0,0.4,0.1,0.6,0.2c0.2,0.1,0.3,0.2,0.4,0.4l0.6-0.6c0-0.1-0.1-0.1-0.2-0.2c-0.1-0.1-0.1-0.2-0.2-0.3l0,0
		c-0.8-1.1-1-2.2,0.2-2.8c0.9-0.5,1.5-0.2,1.8,0c0,0,0,0,0,0c0,0,0,0,0,0c0,0,0.1,0,0.1,0.1c0.1,0.2,0.2,0.4,0.1,0.9l0,0.1h0
		l-0.3,1.6h-0.9l-0.1,0.7h0.9l-0.8,3.6c-0.1,0.5-0.1,0.8,0.1,1.1c0.2,0.2,0.5,0.4,1,0.4c0.2,0,0.4,0,0.7-0.1
		c0.2-0.1,0.5-0.2,0.7-0.3l-0.1-0.7C146.7,39.6,146.5,39.6,146.4,39.7"/>
	<circle fill="#343435" cx="36.8" cy="258.1" r="1.5"/>
	<path d="M55.1,218.5H26.7c-0.9,0-1.6,0.7-1.6,1.6v39.5c0,0.9,0.7,1.6,1.6,1.6h28.5c0.9,0,1.6-0.7,1.6-1.6v-39.5
		C56.7,219.2,56,218.5,55.1,218.5z M39.8,219.9h3v0.4h-3V219.9z M41.3,259.4c-0.7,0-1.2-0.6-1.2-1.2s0.6-1.2,1.2-1.2
		c0.7,0,1.2,0.6,1.2,1.2C42.6,258.8,42,259.4,41.3,259.4z M54.8,255.9H27.1v-34.4h27.8V255.9z"/>
	<rect x="27.1" y="221.6" fill="#1C262D" width="27.8" height="34.4"/>
	<path fill="#FFFFFF" d="M43.3,241.6c-0.1,0-0.2,0-0.4,0c-0.1,0-0.2,0-0.3-0.1c-0.1-0.1-0.1-0.2,0-0.4l0.6-2.7h1.3l0.1-0.5h-1.3
		l0.3-1.3h0c0.1-0.5,0-0.9-0.2-1.1c-0.2-0.3-0.6-0.4-0.9-0.4c-0.4,0-0.9,0.2-1.3,0.4c-0.4,0.3-0.7,0.7-0.8,1.2c-0.1,0.4,0,0.7,0.1,1
		c0,0,0,0,0,0c-0.4,0-0.8,0.1-1.1,0.3c-0.3,0.2-0.5,0.5-0.5,0.9c0,0.2,0,0.3,0,0.4c0,0.1,0.1,0.2,0.2,0.3c0.1,0.1,0.2,0.2,0.3,0.3
		c0.1,0.1,0.2,0.2,0.4,0.3c0.1,0.1,0.2,0.1,0.3,0.2c0.1,0.1,0.2,0.1,0.2,0.2c0.1,0.1,0.1,0.1,0.1,0.2c0,0.1,0,0.2,0,0.3
		c-0.1,0.2-0.2,0.4-0.3,0.5c-0.1,0.1-0.3,0.1-0.6,0.1c-0.2,0-0.3,0-0.5-0.1c-0.2-0.1-0.3-0.2-0.4-0.4l-0.5,0.4
		c0.1,0.2,0.3,0.4,0.5,0.5c0.2,0.1,0.5,0.2,0.8,0.2c0.4,0,0.8-0.1,1.1-0.3c0.3-0.2,0.5-0.5,0.6-0.9c0-0.2,0-0.3,0-0.4
		c0-0.1-0.1-0.2-0.1-0.3c-0.1-0.1-0.2-0.2-0.3-0.2c-0.1-0.1-0.3-0.2-0.4-0.3c-0.1-0.1-0.2-0.1-0.3-0.2c-0.1-0.1-0.2-0.1-0.3-0.2
		c-0.1-0.1-0.1-0.1-0.2-0.2c0-0.1-0.1-0.2,0-0.3c0-0.2,0.1-0.4,0.3-0.4c0.1-0.1,0.3-0.1,0.5-0.1c0.2,0,0.3,0,0.4,0.1
		c0.1,0.1,0.2,0.2,0.3,0.3l0.5-0.4c0,0-0.1-0.1-0.1-0.1c-0.1-0.1-0.1-0.1-0.2-0.2l0,0c-0.6-0.8-0.8-1.6,0.2-2.1
		c0.7-0.3,1.1-0.2,1.3,0c0,0,0,0,0,0c0,0,0,0,0,0c0,0,0,0,0.1,0.1c0.1,0.1,0.2,0.3,0.1,0.7l0,0.1h0l-0.3,1.2H42l-0.1,0.5h0.7
		l-0.6,2.7c-0.1,0.4-0.1,0.6,0.1,0.8c0.1,0.2,0.4,0.3,0.7,0.3c0.2,0,0.3,0,0.5-0.1c0.2-0.1,0.3-0.1,0.5-0.2l0-0.5
		C43.6,241.6,43.4,241.6,43.3,241.6"/>
	<circle fill="#343435" cx="142" cy="265.9" r="2"/>
	<path d="M165.2,215.8h-36c-1.1,0-2,0.9-2,2v50c0,1.1,0.9,2,2,2h36c1.1,0,2-0.9,2-2v-50C167.2,216.6,166.3,215.8,165.2,215.8z
		 M145.8,217.5h3.8v0.6h-3.8V217.5z M147.7,267.4c-0.9,0-1.6-0.7-1.6-1.6c0-0.9,0.7-1.6,1.6-1.6c0.9,0,1.6,0.7,1.6,1.6
		C149.3,266.7,148.6,267.4,147.7,267.4z M164.8,263.1h-35.2v-43.5h35.2V263.1z"/>
	<rect x="129.7" y="219.6" fill="#1C262D" width="35.2" height="43.5"/>
	<path fill="#FFFFFF" d="M150.2,245c-0.1,0-0.3,0.1-0.5,0.1c-0.1,0-0.2-0.1-0.3-0.2c-0.1-0.1-0.1-0.3,0-0.5l0.7-3.4h1.6l0.1-0.6
		h-1.6l0.4-1.6h0c0.1-0.6,0-1.1-0.3-1.4c-0.3-0.3-0.7-0.5-1.2-0.5c-0.5,0-1.1,0.2-1.7,0.6c-0.5,0.4-0.9,0.9-1.1,1.6
		c-0.1,0.5-0.1,0.9,0.1,1.3c0,0,0,0,0,0c-0.5,0-1,0.1-1.3,0.4c-0.4,0.3-0.6,0.6-0.7,1.1c0,0.2-0.1,0.4,0,0.6c0,0.2,0.1,0.3,0.2,0.4
		c0.1,0.1,0.2,0.2,0.4,0.3c0.1,0.1,0.3,0.2,0.5,0.3c0.1,0.1,0.3,0.2,0.4,0.3c0.1,0.1,0.2,0.1,0.3,0.2c0.1,0.1,0.1,0.1,0.2,0.2
		c0,0.1,0,0.2,0,0.3c-0.1,0.3-0.2,0.5-0.4,0.6c-0.2,0.1-0.4,0.1-0.7,0.1c-0.2,0-0.4,0-0.6-0.1c-0.2-0.1-0.4-0.3-0.5-0.5l-0.6,0.5
		c0.2,0.3,0.4,0.5,0.6,0.6c0.3,0.1,0.6,0.2,1,0.2c0.5,0,1-0.1,1.4-0.4c0.4-0.3,0.7-0.7,0.8-1.2c0-0.2,0.1-0.4,0-0.6
		c0-0.2-0.1-0.3-0.2-0.4c-0.1-0.1-0.2-0.2-0.4-0.3c-0.2-0.1-0.3-0.2-0.5-0.3c-0.1-0.1-0.2-0.1-0.3-0.2c-0.1-0.1-0.2-0.1-0.3-0.2
		c-0.1-0.1-0.2-0.2-0.2-0.2c-0.1-0.1-0.1-0.2,0-0.3c0.1-0.3,0.2-0.4,0.4-0.6c0.2-0.1,0.4-0.2,0.7-0.2c0.2,0,0.4,0.1,0.5,0.2
		c0.2,0.1,0.3,0.2,0.4,0.4l0.6-0.6c0-0.1-0.1-0.1-0.2-0.2c-0.1-0.1-0.1-0.2-0.2-0.3l0,0c-0.8-1.1-1-2.1,0.2-2.7
		c0.8-0.4,1.4-0.2,1.7,0c0,0,0,0,0,0c0,0,0,0,0,0c0,0,0.1,0,0.1,0.1c0.1,0.2,0.2,0.4,0.1,0.8l0,0.1h0l-0.3,1.5h-0.9l-0.1,0.6h0.9
		l-0.7,3.5c-0.1,0.5-0.1,0.8,0.1,1c0.1,0.2,0.5,0.3,0.9,0.3c0.2,0,0.4,0,0.7-0.1c0.2-0.1,0.4-0.2,0.6-0.2l-0.1-0.6
		C150.6,244.9,150.4,245,150.2,245"/>
	<path fill="#FFFFFF" d="M247.9,245c-0.1,0-0.3,0.1-0.5,0.1c-0.1,0-0.2-0.1-0.3-0.2c-0.1-0.1-0.1-0.3,0-0.5l0.7-3.4h1.6l0.1-0.6H248
		l0.4-1.6h0c0.1-0.6,0-1.1-0.3-1.4c-0.3-0.3-0.7-0.5-1.2-0.5c-0.5,0-1.1,0.2-1.7,0.6c-0.5,0.4-0.9,0.9-1.1,1.6
		c-0.1,0.5-0.1,0.9,0.1,1.3c0,0,0,0,0,0c-0.5,0-1,0.1-1.3,0.4c-0.4,0.3-0.6,0.6-0.7,1.1c0,0.2-0.1,0.4,0,0.6c0,0.2,0.1,0.3,0.2,0.4
		c0.1,0.1,0.2,0.2,0.4,0.3c0.1,0.1,0.3,0.2,0.5,0.3c0.1,0.1,0.3,0.2,0.4,0.3c0.1,0.1,0.2,0.1,0.3,0.2c0.1,0.1,0.1,0.1,0.2,0.2
		c0,0.1,0,0.2,0,0.3c-0.1,0.3-0.2,0.5-0.4,0.6c-0.2,0.1-0.4,0.1-0.7,0.1c-0.2,0-0.4,0-0.6-0.1c-0.2-0.1-0.4-0.3-0.5-0.5l-0.6,0.5
		c0.2,0.3,0.4,0.5,0.6,0.6c0.3,0.1,0.6,0.2,1,0.2c0.5,0,1-0.1,1.4-0.4c0.4-0.3,0.7-0.7,0.8-1.2c0-0.2,0.1-0.4,0-0.6
		c0-0.2-0.1-0.3-0.2-0.4c-0.1-0.1-0.2-0.2-0.4-0.3c-0.2-0.1-0.3-0.2-0.5-0.3c-0.1-0.1-0.2-0.1-0.3-0.2c-0.1-0.1-0.2-0.1-0.3-0.2
		c-0.1-0.1-0.2-0.2-0.2-0.2c-0.1-0.1-0.1-0.2,0-0.3c0.1-0.3,0.2-0.4,0.4-0.6c0.2-0.1,0.4-0.2,0.7-0.2c0.2,0,0.4,0.1,0.5,0.2
		c0.2,0.1,0.3,0.2,0.4,0.4l0.6-0.6c0-0.1-0.1-0.1-0.2-0.2c-0.1-0.1-0.1-0.2-0.2-0.3l0,0c-0.8-1.1-1-2.1,0.2-2.7
		c0.8-0.4,1.4-0.2,1.7,0c0,0,0,0,0,0c0,0,0,0,0,0c0,0,0.1,0,0.1,0.1c0.1,0.2,0.2,0.4,0.1,0.8l0,0.1h0l-0.3,1.5h-0.9l-0.1,0.6h0.9
		l-0.7,3.5c-0.1,0.5-0.1,0.8,0.1,1c0.1,0.2,0.5,0.3,0.9,0.3c0.2,0,0.4,0,0.7-0.1c0.2-0.1,0.4-0.2,0.6-0.2l-0.1-0.6
		C248.3,244.9,248.1,245,247.9,245"/>
	<path fill="#FFFFFF" d="M41.8,39.7c-0.2,0-0.3,0.1-0.5,0.1c-0.1,0-0.3-0.1-0.3-0.2c-0.1-0.1-0.1-0.3,0-0.5l0.8-3.5h1.7l0.1-0.7
		h-1.7l0.4-1.7h0c0.1-0.6,0-1.1-0.3-1.5c-0.3-0.3-0.8-0.5-1.2-0.5c-0.6,0-1.2,0.2-1.7,0.6c-0.5,0.4-1,0.9-1.1,1.6
		c-0.1,0.5-0.1,0.9,0.1,1.4c0,0,0,0,0,0c-0.6,0-1,0.1-1.4,0.4c-0.4,0.3-0.6,0.7-0.7,1.1c-0.1,0.2-0.1,0.4,0,0.6
		c0,0.2,0.1,0.3,0.2,0.4c0.1,0.1,0.2,0.2,0.4,0.4c0.2,0.1,0.3,0.2,0.5,0.3c0.1,0.1,0.3,0.2,0.4,0.3c0.1,0.1,0.2,0.2,0.3,0.2
		c0.1,0.1,0.2,0.2,0.2,0.2c0,0.1,0,0.2,0,0.3c-0.1,0.3-0.2,0.5-0.4,0.6c-0.2,0.1-0.5,0.2-0.8,0.2c-0.2,0-0.4-0.1-0.6-0.2
		c-0.2-0.1-0.4-0.3-0.6-0.6l-0.7,0.6c0.2,0.3,0.4,0.5,0.7,0.7c0.3,0.2,0.6,0.2,1,0.2c0.6,0,1-0.1,1.5-0.4c0.4-0.3,0.7-0.7,0.8-1.2
		c0.1-0.2,0.1-0.4,0-0.6c0-0.2-0.1-0.3-0.2-0.4c-0.1-0.1-0.2-0.2-0.4-0.3c-0.2-0.1-0.3-0.2-0.5-0.3c-0.1-0.1-0.2-0.1-0.3-0.2
		c-0.1-0.1-0.2-0.1-0.3-0.2c-0.1-0.1-0.2-0.2-0.2-0.3c-0.1-0.1-0.1-0.2,0-0.3c0.1-0.3,0.2-0.5,0.4-0.6c0.2-0.1,0.4-0.2,0.7-0.2
		c0.2,0,0.4,0.1,0.6,0.2c0.2,0.1,0.3,0.2,0.4,0.4l0.6-0.6c0-0.1-0.1-0.1-0.2-0.2c-0.1-0.1-0.1-0.2-0.2-0.3l0,0
		c-0.8-1.1-1-2.2,0.2-2.8c0.9-0.5,1.5-0.2,1.8,0c0,0,0,0,0,0c0,0,0,0,0,0c0,0,0.1,0,0.1,0.1c0.1,0.2,0.2,0.4,0.1,0.9l0,0.1h0
		L41,34.8h-0.9l-0.1,0.7h0.9L40,39.1c-0.1,0.5-0.1,0.8,0.1,1.1c0.2,0.2,0.5,0.4,1,0.4c0.2,0,0.4,0,0.7-0.1c0.2-0.1,0.5-0.2,0.7-0.3
		l-0.1-0.7C42.2,39.6,42,39.6,41.8,39.7"/>
	<path d="M260.6,157.6c0,2.5-2,4.5-4.5,4.5h-17.7c-2.5,0-4.5-2-4.5-4.5v-35.1c0-2.5,2-4.5,4.5-4.5h17.7c2.5,0,4.5,2,4.5,4.5V157.6z"
		/>
	<rect x="235" y="121.4" fill="#1C262D" width="24.5" height="35.6"/>
	<path fill="#686868" d="M250.4,159.1c0,0.2-0.2,0.3-0.3,0.3h-5.1c-0.2,0-0.3-0.2-0.3-0.3l0,0c0-0.2,0.2-0.3,0.3-0.3h5.1
		C250.2,158.8,250.4,158.9,250.4,159.1L250.4,159.1z"/>
	<path fill="#1C262D" d="M250.4,119.5c0,0.2-0.2,0.3-0.3,0.3h-5.1c-0.2,0-0.3-0.2-0.3-0.3l0,0c0-0.2,0.2-0.3,0.3-0.3h5.1
		C250.2,119.2,250.4,119.4,250.4,119.5L250.4,119.5z"/>
	<circle fill="#1C262D" cx="255.1" cy="159.1" r="0.5"/>
	<circle fill="#1C262D" cx="239.3" cy="159.1" r="0.5"/>
	<path fill="#FFFFFF" d="M251.2,142.5c-0.2,0-0.4,0.1-0.5,0.1c-0.2,0-0.3-0.1-0.4-0.2c-0.1-0.1-0.1-0.3-0.1-0.6l0.9-4.1h1.9l0.2-0.8
		h-1.9l0.4-2h0c0.2-0.7,0-1.3-0.3-1.7c-0.3-0.4-0.9-0.6-1.4-0.6c-0.7,0-1.4,0.2-2,0.7c-0.6,0.4-1.1,1.1-1.3,1.9
		c-0.1,0.5-0.1,1,0.2,1.6c0,0,0,0,0,0c-0.6,0-1.2,0.2-1.6,0.5c-0.4,0.3-0.7,0.8-0.8,1.3c-0.1,0.3-0.1,0.5,0,0.7
		c0,0.2,0.1,0.4,0.2,0.5c0.1,0.1,0.3,0.3,0.4,0.4c0.2,0.1,0.4,0.3,0.6,0.4c0.2,0.1,0.3,0.2,0.5,0.3c0.2,0.1,0.3,0.2,0.4,0.3
		c0.1,0.1,0.2,0.2,0.2,0.3c0,0.1,0.1,0.2,0,0.4c-0.1,0.4-0.2,0.6-0.5,0.7c-0.2,0.1-0.5,0.2-0.9,0.2c-0.2,0-0.5-0.1-0.7-0.2
		c-0.3-0.1-0.5-0.3-0.7-0.7l-0.8,0.7c0.2,0.3,0.5,0.6,0.8,0.8c0.3,0.2,0.7,0.3,1.2,0.3c0.6,0,1.2-0.2,1.7-0.5
		c0.5-0.3,0.8-0.8,0.9-1.4c0.1-0.3,0.1-0.5,0-0.7c0-0.2-0.1-0.3-0.2-0.5c-0.1-0.1-0.3-0.3-0.4-0.4c-0.2-0.1-0.4-0.2-0.6-0.4
		c-0.1-0.1-0.3-0.2-0.4-0.2c-0.1-0.1-0.3-0.2-0.4-0.2c-0.1-0.1-0.2-0.2-0.3-0.3c-0.1-0.1-0.1-0.2-0.1-0.4c0.1-0.3,0.2-0.5,0.4-0.7
		c0.2-0.1,0.5-0.2,0.8-0.2c0.2,0,0.5,0.1,0.7,0.2c0.2,0.1,0.4,0.3,0.5,0.4l0.7-0.7c-0.1-0.1-0.1-0.1-0.2-0.2
		c-0.1-0.1-0.2-0.2-0.2-0.3l0,0c-0.9-1.3-1.2-2.5,0.3-3.3c1-0.5,1.7-0.3,2,0c0,0,0,0,0,0c0,0,0,0,0,0c0,0,0.1,0.1,0.1,0.1
		c0.2,0.2,0.3,0.5,0.1,1l0,0.1h0l-0.4,1.8h-1.1l-0.2,0.8h1.1l-0.9,4.2c-0.1,0.5-0.1,1,0.1,1.2c0.2,0.3,0.6,0.4,1.1,0.4
		c0.3,0,0.5,0,0.8-0.1c0.3-0.1,0.5-0.2,0.8-0.3l-0.1-0.8C251.6,142.4,251.3,142.5,251.2,142.5"/>
	<rect x="28" y="126.3" fill="#1C262D" width="22.1" height="17"/>
	<path fill="#1C262D" d="M42.3,123.6c0,0.2-0.2,0.3-0.3,0.3h-5.1c-0.2,0-0.3-0.2-0.3-0.3l0,0c0-0.2,0.2-0.3,0.3-0.3h5.1
		C42.1,123.2,42.3,123.4,42.3,123.6L42.3,123.6z"/>
	<path fill="#FFFFFF" d="M40.9,137.6c-0.1,0-0.2,0-0.3,0c-0.1,0-0.2,0-0.2-0.1c-0.1-0.1-0.1-0.2,0-0.4l0.6-2.6h1.2l0.1-0.5h-1.2
		l0.3-1.2h0c0.1-0.5,0-0.8-0.2-1.1c-0.2-0.3-0.6-0.4-0.9-0.4c-0.4,0-0.9,0.1-1.3,0.4c-0.4,0.3-0.7,0.7-0.8,1.2c-0.1,0.3,0,0.7,0.1,1
		c0,0,0,0,0,0c-0.4,0-0.8,0.1-1,0.3c-0.3,0.2-0.4,0.5-0.5,0.8c0,0.2,0,0.3,0,0.4c0,0.1,0.1,0.2,0.2,0.3c0.1,0.1,0.2,0.2,0.3,0.3
		c0.1,0.1,0.2,0.2,0.4,0.3c0.1,0.1,0.2,0.1,0.3,0.2c0.1,0.1,0.2,0.1,0.2,0.2c0.1,0.1,0.1,0.1,0.1,0.2c0,0.1,0,0.1,0,0.2
		c0,0.2-0.1,0.4-0.3,0.5c-0.1,0.1-0.3,0.1-0.6,0.1c-0.2,0-0.3,0-0.5-0.1c-0.2-0.1-0.3-0.2-0.4-0.4l-0.5,0.4c0.1,0.2,0.3,0.4,0.5,0.5
		c0.2,0.1,0.5,0.2,0.8,0.2c0.4,0,0.8-0.1,1.1-0.3c0.3-0.2,0.5-0.5,0.6-0.9c0-0.2,0-0.3,0-0.4c0-0.1-0.1-0.2-0.1-0.3
		c-0.1-0.1-0.2-0.2-0.3-0.2c-0.1-0.1-0.3-0.2-0.4-0.2c-0.1-0.1-0.2-0.1-0.3-0.2c-0.1-0.1-0.2-0.1-0.3-0.2c-0.1-0.1-0.1-0.1-0.2-0.2
		c0-0.1-0.1-0.2,0-0.2c0-0.2,0.1-0.3,0.3-0.4c0.1-0.1,0.3-0.1,0.5-0.1c0.2,0,0.3,0,0.4,0.1c0.1,0.1,0.2,0.2,0.3,0.3l0.5-0.4
		c0,0-0.1-0.1-0.1-0.1c-0.1-0.1-0.1-0.1-0.2-0.2l0,0c-0.6-0.8-0.8-1.6,0.2-2.1c0.6-0.3,1.1-0.2,1.3,0c0,0,0,0,0,0c0,0,0,0,0,0
		c0,0,0,0,0.1,0.1c0.1,0.1,0.2,0.3,0.1,0.7l0,0.1h0l-0.3,1.2h-0.7l-0.1,0.5h0.7l-0.6,2.7c-0.1,0.3-0.1,0.6,0.1,0.8
		c0.1,0.2,0.4,0.3,0.7,0.3c0.2,0,0.3,0,0.5-0.1c0.2-0.1,0.3-0.1,0.5-0.2l0-0.5C41.2,137.5,41,137.6,40.9,137.6"/>
	<circle fill="#686868" stroke="#DFE2E5" stroke-width="0.25" stroke-miterlimit="10" cx="39" cy="147.1" r="0.9"/>
	<path fill="none" stroke="#1C262D" stroke-linecap="round" stroke-miterlimit="10" d="M28.6,149.6c0,0,8.9,3.6,20.9,0"/>
	<path fill="none" stroke="#1C262D" stroke-linecap="round" stroke-miterlimit="10" d="M28.6,152.2c0,0,8.9,3.5,20.9,0"/>
	<path fill="#1C262D" stroke="#BABABA" stroke-miterlimit="10" d="M62.4,461.1h-45c-0.4,0-0.7-0.3-0.7-0.7v-24.9
		c0-0.4,0.3-0.7,0.7-0.7h45c0.4,0,0.7,0.3,0.7,0.7v24.9C63,460.8,62.8,461.1,62.4,461.1z"/>
	<path fill="#2B2B2B" d="M151,457.5h-11.2l-1,7.7H152L151,457.5z M145.4,463.5c-1.2,0-2.1-1-2.1-2.1c0-1.2,1-2.1,2.1-2.1
		s2.1,1,2.1,2.1C147.5,462.6,146.5,463.5,145.4,463.5z"/>
	<path fill="#464747" d="M152,465.3l2,1.7c0,0.5-0.6,0.9-1.4,0.9h-14.4c-0.8,0-1.4-0.4-1.4-0.9l2-1.7"/>
	<path fill="#848484" d="M162,356.8h-33.5c-0.4,0-0.7-0.3-0.7-0.7v-20.7c0-0.4,0.3-0.7,0.7-0.7H162c0.4,0,0.7,0.3,0.7,0.7v20.7
		C162.6,356.5,162.3,356.8,162,356.8z"/>
	<path fill="#C0C2C4" d="M165.9,362.7h-41.4c-0.3,0-0.5-0.3-0.3-0.6l3.5-5.7c0.1-0.1,0.2-0.2,0.3-0.2h34.4c0.1,0,0.3,0.1,0.3,0.2
		l3.5,5.7C166.4,362.3,166.2,362.7,165.9,362.7z"/>
	<rect x="128.6" y="335.7" fill="#1C262D" width="33.2" height="19.9"/>
	<path fill="#9B9D9E" d="M161.6,359.1h-33.2c-0.1,0-0.2-0.1-0.1-0.2l1.3-2.1c0,0,0.1-0.1,0.1-0.1h30.6c0.1,0,0.1,0,0.1,0.1l1.3,2.1
		C161.8,359,161.8,359.1,161.6,359.1z"/>
	<path fill="#2B2B2B" d="M269.5,359.1c0,1.7-0.3,3.1-0.7,3.1H228c-0.4,0-0.7-1.4-0.7-3.1"/>
	<path fill="#494949" d="M265.2,353.5h-33.5c-0.4,0-0.7-0.3-0.7-0.7v-20.7c0-0.4,0.3-0.7,0.7-0.7h33.5c0.4,0,0.7,0.3,0.7,0.7v20.7
		C265.8,353.2,265.5,353.5,265.2,353.5z"/>
	<path fill="#464747" d="M269.1,359.4h-41.4c-0.3,0-0.5-0.3-0.3-0.6l3.5-5.7c0.1-0.1,0.2-0.2,0.3-0.2h34.4c0.1,0,0.3,0.1,0.3,0.2
		l3.5,5.7C269.6,359.1,269.4,359.4,269.1,359.4z"/>
	<rect x="231.8" y="332.4" width="33.2" height="19.9"/>
	<path d="M264.9,355.9h-33.2c-0.1,0-0.2-0.1-0.1-0.2l1.3-2.1c0,0,0.1-0.1,0.1-0.1h30.6c0.1,0,0.1,0,0.1,0.1l1.3,2.1
		C265,355.7,265,355.9,264.9,355.9z"/>
	<circle fill="#ED0C42" cx="248.3" cy="354.7" r="0.4"/>
	<rect x="132.2" y="122" width="24.8" height="42.5"/>
	<rect x="134.5" y="125.9" fill="#283035" width="20.1" height="34.3"/>
	<rect x="143.5" y="161.1" fill="#464849" width="1.7" height="1.7"/>
	<rect x="123.8" y="433.4" fill="#494949" width="43.2" height="26.8"/>
	<rect x="125.3" y="435" width="40.4" height="23.5"/>
	<path fill="#464747" d="M54.8,370.1H28.3c-0.7,0-1.3-0.6-1.3-1.3v-42.2c0-0.7,0.6-1.3,1.3-1.3h26.6c0.7,0,1.3,0.6,1.3,1.3v42.2
		C56.1,369.5,55.5,370.1,54.8,370.1z"/>
	<rect x="29.7" y="328.7" fill="#828282" width="24" height="33.7"/>
	<path fill="none" stroke="#828282" stroke-width="0.5" stroke-miterlimit="10" d="M43,368.1h-2.6c-0.3,0-0.6-0.3-0.6-0.6V365
		c0-0.3,0.3-0.6,0.6-0.6H43c0.3,0,0.6,0.3,0.6,0.6v2.6C43.6,367.9,43.3,368.1,43,368.1z"/>
	<path fill="#828282" d="M42.4,367.3H41c-0.2,0-0.3-0.1-0.3-0.3v-1.3c0-0.2,0.1-0.3,0.3-0.3h1.3c0.2,0,0.3,0.1,0.3,0.3v1.3
		C42.7,367.1,42.5,367.3,42.4,367.3z"/>
	<circle fill="#828282" cx="46.9" cy="366.3" r="0.9"/>
	<circle fill="#828282" cx="50.4" cy="366.3" r="0.9"/>
	<circle fill="#828282" cx="32.8" cy="366.3" r="0.9"/>
	<circle fill="#828282" cx="36.3" cy="366.3" r="0.9"/>
	<path fill="#3A3A3A" d="M44.3,348.1c-0.2,0-0.3,0.1-0.5,0.1c-0.1,0-0.3-0.1-0.3-0.2c-0.1-0.1-0.1-0.3,0-0.5l0.8-3.5h1.7l0.1-0.7
		h-1.7l0.4-1.7h0c0.1-0.6,0-1.1-0.3-1.5c-0.3-0.3-0.8-0.5-1.3-0.5c-0.6,0-1.2,0.2-1.7,0.6c-0.5,0.4-1,0.9-1.1,1.6
		c-0.1,0.5-0.1,0.9,0.1,1.4c0,0,0,0,0,0c-0.6,0-1,0.1-1.4,0.4c-0.4,0.3-0.6,0.7-0.7,1.1c-0.1,0.2-0.1,0.4,0,0.6
		c0,0.2,0.1,0.3,0.2,0.4c0.1,0.1,0.2,0.2,0.4,0.4c0.2,0.1,0.3,0.2,0.5,0.3c0.1,0.1,0.3,0.2,0.4,0.3c0.1,0.1,0.2,0.2,0.3,0.2
		c0.1,0.1,0.2,0.2,0.2,0.2c0,0.1,0,0.2,0,0.3c-0.1,0.3-0.2,0.5-0.4,0.6c-0.2,0.1-0.5,0.2-0.8,0.2c-0.2,0-0.4-0.1-0.6-0.2
		c-0.2-0.1-0.4-0.3-0.6-0.6l-0.7,0.6c0.2,0.3,0.4,0.5,0.7,0.7c0.3,0.2,0.6,0.2,1,0.2c0.6,0,1-0.1,1.5-0.4c0.4-0.3,0.7-0.7,0.8-1.2
		c0.1-0.2,0.1-0.4,0-0.6c0-0.2-0.1-0.3-0.2-0.4c-0.1-0.1-0.2-0.2-0.4-0.3c-0.2-0.1-0.3-0.2-0.5-0.3c-0.1-0.1-0.2-0.1-0.3-0.2
		c-0.1-0.1-0.2-0.1-0.3-0.2c-0.1-0.1-0.2-0.2-0.2-0.3c-0.1-0.1-0.1-0.2,0-0.3c0.1-0.3,0.2-0.5,0.4-0.6c0.2-0.1,0.4-0.2,0.7-0.2
		c0.2,0,0.4,0.1,0.6,0.2c0.2,0.1,0.3,0.2,0.4,0.4l0.6-0.6c0-0.1-0.1-0.1-0.2-0.2c-0.1-0.1-0.1-0.2-0.2-0.3l0,0
		c-0.8-1.1-1-2.2,0.2-2.8c0.9-0.5,1.5-0.2,1.8,0c0,0,0,0,0,0c0,0,0,0,0,0c0,0,0.1,0,0.1,0.1c0.1,0.2,0.2,0.4,0.1,0.9l0,0.1h0
		l-0.3,1.6h-0.9l-0.1,0.7h0.9l-0.8,3.6c-0.1,0.5-0.1,0.8,0.1,1.1c0.2,0.2,0.5,0.4,1,0.4c0.2,0,0.4,0,0.7-0.1
		c0.2-0.1,0.5-0.2,0.7-0.3l-0.1-0.7C44.7,348,44.5,348,44.3,348.1"/>
	<g>
		<defs>
			<rect id="SVGID_1_" x="127.7" y="128.4" width="26.8" height="31.2"/>
		</defs>
		<clipPath id="SVGID_2_">
			<use xlink:href="#SVGID_1_"  overflow="visible"/>
		</clipPath>
		<path clip-path="url(#SVGID_2_)" fill="#FFFFFF" d="M158.9,157.5c-0.5,0.1-1.1,0.2-1.7,0.2c-0.5,0-0.9-0.2-1.2-0.6
			c-0.3-0.4-0.3-1-0.2-1.8l2.7-12.3h5.8l0.5-2.4h-5.8l1.3-5.9h0c0.5-2.2,0.1-4-0.9-5.2c-1.1-1.2-2.7-1.7-4.4-1.7c-2,0-4.2,0.7-6,2
			c-1.9,1.3-3.4,3.3-3.9,5.7c-0.4,1.6-0.2,3.1,0.5,4.8c0,0-0.1,0-0.1,0c-2,0-3.6,0.5-4.9,1.4c-1.3,1-2.1,2.3-2.5,3.9
			c-0.2,0.8-0.2,1.5-0.1,2c0.1,0.6,0.4,1.1,0.7,1.5c0.4,0.4,0.8,0.9,1.3,1.2c0.5,0.4,1.2,0.8,1.8,1.2c0.5,0.4,1,0.7,1.5,0.9
			c0.5,0.3,0.8,0.5,1.1,0.8c0.3,0.3,0.5,0.5,0.7,0.9c0.1,0.3,0.2,0.7,0.1,1.2c-0.2,1.1-0.7,1.8-1.4,2.2c-0.7,0.4-1.6,0.5-2.7,0.5
			c-0.7,0-1.5-0.2-2.2-0.5c-0.8-0.3-1.4-1-2-2l-2.4,2c0.6,1,1.4,1.8,2.3,2.4c1,0.5,2.2,0.8,3.7,0.8c1.9,0,3.6-0.5,5.1-1.4
			c1.5-0.9,2.4-2.4,2.8-4.4c0.2-0.8,0.2-1.5,0.1-2c-0.1-0.5-0.3-1-0.7-1.4c-0.3-0.4-0.8-0.8-1.3-1.2c-0.6-0.3-1.2-0.7-1.9-1.2
			c-0.4-0.2-0.8-0.5-1.2-0.7c-0.4-0.2-0.8-0.5-1.2-0.8c-0.4-0.3-0.6-0.6-0.9-0.9c-0.2-0.3-0.3-0.7-0.2-1.2c0.2-0.9,0.6-1.6,1.3-2
			c0.7-0.4,1.5-0.6,2.5-0.6c0.7,0,1.4,0.2,2,0.6c0.6,0.4,1.1,0.8,1.5,1.3l2.2-2.1c-0.2-0.2-0.4-0.4-0.6-0.6c-0.3-0.3-0.5-0.7-0.7-1
			l0,0c-2.8-3.9-3.6-7.6,0.8-9.9c3-1.6,5.1-0.9,6.1,0c0,0,0,0,0,0c0,0,0.1,0.1,0.1,0.1c0.1,0.1,0.2,0.2,0.3,0.3
			c0.5,0.6,0.8,1.5,0.4,3.1l-0.1,0.3h0l-1.2,5.5h-3.2l-0.5,2.4h3.2l-2.7,12.6c-0.4,1.7-0.3,2.9,0.3,3.7c0.5,0.8,1.7,1.2,3.5,1.2
			c0.8,0,1.6-0.1,2.4-0.4c0.8-0.3,1.6-0.6,2.3-0.9l-0.2-2.4C160.2,157.1,159.5,157.4,158.9,157.5"/>
	</g>
	<rect x="243.1" y="223.4" width="6.5" height="0.7"/>
	<rect x="243.1" y="260.3" width="6.5" height="0.7"/>
	<g>
		<path fill="#FFFFFF" d="M149.2,345.2c-0.1,0-0.2,0-0.3,0.1c-0.1,0.1-0.2,0.1-0.3,0.2c0-0.1-0.1-0.2-0.1-0.2
			c-0.1,0-0.2-0.1-0.3-0.1c-0.1,0-0.2,0-0.3,0.1c-0.1,0.1-0.2,0.1-0.3,0.2l0-0.3h-0.3l-0.4,2h0.3l0.3-1.2c0-0.1,0-0.1,0.1-0.2
			c0-0.1,0.1-0.1,0.1-0.2c0-0.1,0.1-0.1,0.2-0.1c0.1,0,0.1-0.1,0.2-0.1c0.1,0,0.2,0,0.2,0.1c0,0.1,0,0.2,0,0.3l-0.3,1.4h0.3l0.3-1.2
			c0-0.1,0-0.1,0.1-0.2c0-0.1,0.1-0.1,0.1-0.2c0,0,0.1-0.1,0.2-0.1c0.1,0,0.1,0,0.2,0c0.1,0,0.2,0,0.2,0.1c0,0.1,0,0.1,0,0.2
			l-0.3,1.4h0.3l0.3-1.4c0-0.2,0-0.3,0-0.4C149.5,345.2,149.4,345.2,149.2,345.2 M145.1,346.9c-0.1,0-0.1,0-0.2,0
			c-0.1,0-0.1,0-0.1-0.1c0,0,0-0.1,0-0.2l0.3-1.2h0.5l0.1-0.2h-0.5l0.1-0.6h-0.3l-0.1,0.6h-0.3l-0.1,0.2h0.3l-0.3,1.3
			c0,0.2,0,0.3,0,0.4c0.1,0.1,0.2,0.1,0.3,0.1c0.1,0,0.2,0,0.2,0c0.1,0,0.2-0.1,0.2-0.1l0-0.2C145.2,346.9,145.1,346.9,145.1,346.9
			 M145.8,345.8c0-0.1,0.1-0.2,0.2-0.3c0.1-0.1,0.2-0.1,0.3-0.1c0.1,0,0.2,0,0.2,0.1c0,0.1,0.1,0.1,0.1,0.2l0,0.2l-0.8,0.1
			L145.8,345.8z M146.3,346.9c-0.1,0-0.2,0-0.2,0c-0.1,0-0.3,0-0.3-0.1c-0.1-0.1-0.1-0.2-0.1-0.3l0-0.2l1.1-0.2l0.1-0.3
			c0-0.1,0-0.2,0-0.3c0-0.1,0-0.2-0.1-0.2c0-0.1-0.1-0.1-0.2-0.1c-0.1,0-0.2,0-0.3,0c-0.1,0-0.2,0-0.3,0c-0.1,0-0.2,0.1-0.3,0.1
			c-0.1,0.1-0.1,0.1-0.2,0.2c-0.1,0.1-0.1,0.2-0.1,0.3l-0.1,0.7c-0.1,0.2,0,0.4,0.1,0.5c0.1,0.1,0.3,0.2,0.5,0.2
			c0.1,0,0.3,0,0.4-0.1c0.1,0,0.2-0.1,0.3-0.2l-0.1-0.2C146.5,346.8,146.4,346.9,146.3,346.9 M154,346.9c-0.1,0-0.1,0.1-0.2,0.1
			c-0.1,0-0.1,0-0.2,0c-0.1,0-0.1,0-0.1-0.1c0,0,0-0.1,0-0.2l0.3-1.2h0.5l0.1-0.2h-0.5l0.1-0.6h-0.3l-0.1,0.6h-0.3l-0.1,0.2h0.3
			l-0.3,1.3c0,0.2,0,0.3,0,0.4c0.1,0.1,0.2,0.1,0.3,0.1c0.1,0,0.2,0,0.2,0c0.1,0,0.2-0.1,0.2-0.1L154,346.9z M150.2,345.8
			c0-0.1,0.1-0.2,0.2-0.3c0.1-0.1,0.2-0.1,0.3-0.1c0.1,0,0.2,0,0.2,0.1c0,0.1,0.1,0.1,0.1,0.2l0,0.2l-0.8,0.1L150.2,345.8z
			 M150.6,346.9c-0.1,0-0.2,0-0.2,0c-0.1,0-0.3,0-0.3-0.1c-0.1-0.1-0.1-0.2-0.1-0.3l0-0.2l1.1-0.2l0.1-0.3c0-0.1,0-0.2,0-0.3
			c0-0.1,0-0.2-0.1-0.2c0-0.1-0.1-0.1-0.2-0.1c-0.1,0-0.2,0-0.3,0c-0.1,0-0.2,0-0.3,0c-0.1,0-0.2,0.1-0.3,0.1
			c-0.1,0.1-0.1,0.1-0.2,0.2c-0.1,0.1-0.1,0.2-0.1,0.3l-0.1,0.7c-0.1,0.2,0,0.4,0.1,0.5c0.1,0.1,0.3,0.2,0.5,0.2
			c0.1,0,0.3,0,0.4-0.1c0.1,0,0.2-0.1,0.3-0.2l-0.1-0.2C150.8,346.8,150.7,346.9,150.6,346.9 M152.5,345.2c-0.1,0-0.2,0-0.3,0.1
			c-0.1,0.1-0.2,0.1-0.3,0.2l0-0.3h-0.3l-0.4,2h0.3l0.3-1.2c0-0.1,0-0.1,0.1-0.2c0-0.1,0.1-0.1,0.1-0.2c0.1-0.1,0.1-0.1,0.2-0.1
			c0.1,0,0.1,0,0.2,0c0.1,0,0.2,0,0.2,0.1c0,0.1,0,0.2,0,0.3l-0.3,1.3h0.3l0.3-1.4c0-0.2,0-0.4,0-0.5
			C152.9,345.2,152.7,345.2,152.5,345.2 M143.7,346.6c0,0.1,0,0.1-0.1,0.2c0,0-0.1,0.1-0.1,0.1c0,0-0.1,0.1-0.1,0.1
			c-0.1,0-0.1,0-0.2,0c-0.1,0-0.2,0-0.2-0.1c-0.1,0-0.1-0.1-0.1-0.2l0.1-0.3l0.8-0.1L143.7,346.6z M143.7,345.2c-0.1,0-0.1,0-0.2,0
			c-0.1,0-0.1,0-0.2,0.1c-0.1,0-0.1,0-0.2,0.1c-0.1,0-0.1,0.1-0.2,0.1l0.1,0.2c0,0,0.1,0,0.1-0.1c0.1,0,0.1,0,0.2-0.1
			c0.1,0,0.1,0,0.2,0c0.1,0,0.1,0,0.1,0c0.1,0,0.2,0,0.3,0.1c0,0,0,0.1,0,0.3l0,0.2l-1.1,0.2l-0.1,0.5c0,0.2,0,0.3,0.1,0.4
			c0.1,0.1,0.2,0.1,0.4,0.1c0.1,0,0.2,0,0.3-0.1c0.1-0.1,0.2-0.1,0.3-0.2l0,0.3h0.3l0.3-1.4c0-0.2,0-0.4-0.1-0.5
			C144.1,345.2,144,345.2,143.7,345.2 M139.4,346.6c0,0.1-0.1,0.2-0.2,0.3c-0.1,0.1-0.2,0.1-0.3,0.1c-0.1,0-0.2,0-0.3-0.1
			c-0.1-0.1-0.1-0.2-0.1-0.3l0.1-0.6c0-0.1,0.1-0.2,0.2-0.3c0.1-0.1,0.2-0.1,0.3-0.1c0.1,0,0.2,0,0.3,0.1c0.1,0.1,0.1,0.2,0,0.3
			L139.4,346.6z M139.4,345.2c-0.1,0-0.2,0-0.3,0.1c-0.1,0.1-0.2,0.1-0.3,0.2l0-0.3h-0.3l-0.7,3.2h0.3l0.3-1.5
			c0,0.1,0.1,0.2,0.2,0.2c0.1,0,0.2,0.1,0.3,0.1c0.2,0,0.4-0.1,0.5-0.2c0.1-0.1,0.2-0.3,0.3-0.5l0.2-0.7c0-0.2,0-0.4-0.1-0.5
			C139.8,345.2,139.6,345.2,139.4,345.2 M137.7,346.4c0,0.2-0.1,0.3-0.3,0.4c-0.1,0.1-0.3,0.1-0.5,0.1c-0.1,0-0.2,0-0.2,0
			c-0.1,0-0.1-0.1-0.2-0.1c0,0-0.1-0.1-0.1-0.2c0-0.1,0-0.2,0-0.2l0.4-1.9h-0.3l-0.4,1.9c-0.1,0.3,0,0.5,0.1,0.6
			c0.1,0.1,0.3,0.2,0.6,0.2c0.1,0,0.3,0,0.4,0c0.1,0,0.2-0.1,0.3-0.2c0.1-0.1,0.2-0.2,0.2-0.3c0.1-0.1,0.1-0.2,0.2-0.4l0.4-1.9h-0.3
			L137.7,346.4z M142.2,346.9c-0.1,0-0.1,0-0.2,0c-0.1,0-0.1,0-0.1-0.1c0,0,0-0.1,0-0.2l0.3-1.2h0.5l0.1-0.2h-0.5l0.1-0.6h0
			c0-0.2,0-0.4-0.1-0.5c-0.1-0.1-0.3-0.2-0.4-0.2c-0.2,0-0.4,0.1-0.6,0.2c-0.2,0.1-0.3,0.3-0.4,0.6c0,0.2,0,0.3,0,0.5c0,0,0,0,0,0
			c-0.2,0-0.4,0-0.5,0.1c-0.1,0.1-0.2,0.2-0.2,0.4c0,0.1,0,0.1,0,0.2c0,0.1,0,0.1,0.1,0.2c0,0,0.1,0.1,0.1,0.1
			c0.1,0,0.1,0.1,0.2,0.1c0.1,0,0.1,0.1,0.1,0.1c0,0,0.1,0.1,0.1,0.1c0,0,0.1,0.1,0.1,0.1c0,0,0,0.1,0,0.1c0,0.1-0.1,0.2-0.1,0.2
			c-0.1,0-0.2,0.1-0.3,0.1c-0.1,0-0.1,0-0.2-0.1c-0.1,0-0.1-0.1-0.2-0.2l-0.2,0.2c0.1,0.1,0.1,0.2,0.2,0.2c0.1,0.1,0.2,0.1,0.4,0.1
			c0.2,0,0.4,0,0.5-0.1c0.1-0.1,0.2-0.2,0.3-0.4c0-0.1,0-0.1,0-0.2c0-0.1,0-0.1-0.1-0.1c0,0-0.1-0.1-0.1-0.1c-0.1,0-0.1-0.1-0.2-0.1
			c0,0-0.1,0-0.1-0.1c0,0-0.1,0-0.1-0.1c0,0-0.1-0.1-0.1-0.1c0,0,0-0.1,0-0.1c0-0.1,0.1-0.2,0.1-0.2c0.1,0,0.2-0.1,0.3-0.1
			c0.1,0,0.1,0,0.2,0.1c0.1,0,0.1,0.1,0.1,0.1l0.2-0.2c0,0,0,0-0.1-0.1c0,0-0.1-0.1-0.1-0.1l0,0c-0.3-0.4-0.4-0.8,0.1-1
			c0.3-0.2,0.5-0.1,0.6,0c0,0,0,0,0,0c0,0,0,0,0,0c0,0,0,0,0,0c0,0.1,0.1,0.1,0,0.3l0,0h0l-0.1,0.5h-0.3l-0.1,0.2h0.3l-0.3,1.3
			c0,0.2,0,0.3,0,0.4c0.1,0.1,0.2,0.1,0.3,0.1c0.1,0,0.2,0,0.2,0c0.1,0,0.2-0.1,0.2-0.1l0-0.2C142.3,346.9,142.2,346.9,142.2,346.9"
			/>
	</g>
	<g>
		<path fill="#FFFFFF" d="M252.6,341.3c-0.1,0-0.2,0-0.3,0.1c-0.1,0.1-0.2,0.1-0.3,0.2c0-0.1-0.1-0.2-0.1-0.2
			c-0.1,0-0.2-0.1-0.3-0.1c-0.1,0-0.2,0-0.3,0.1c-0.1,0.1-0.2,0.1-0.3,0.2l0-0.3h-0.3l-0.4,2h0.3l0.3-1.2c0-0.1,0-0.1,0.1-0.2
			c0-0.1,0.1-0.1,0.1-0.2c0-0.1,0.1-0.1,0.2-0.1c0.1,0,0.1-0.1,0.2-0.1c0.1,0,0.2,0,0.2,0.1c0,0.1,0,0.2,0,0.3l-0.3,1.4h0.3l0.3-1.2
			c0-0.1,0-0.1,0.1-0.2c0-0.1,0.1-0.1,0.1-0.2c0,0,0.1-0.1,0.2-0.1c0.1,0,0.1,0,0.2,0c0.1,0,0.2,0,0.2,0.1c0,0.1,0,0.1,0,0.2
			l-0.3,1.4h0.3l0.3-1.4c0-0.2,0-0.3,0-0.4C253,341.4,252.8,341.3,252.6,341.3 M248.5,343.1c-0.1,0-0.1,0-0.2,0
			c-0.1,0-0.1,0-0.1-0.1c0,0,0-0.1,0-0.2l0.3-1.2h0.5l0.1-0.2h-0.5l0.1-0.6h-0.3l-0.1,0.6h-0.3l-0.1,0.2h0.3l-0.3,1.3
			c0,0.2,0,0.3,0,0.4c0.1,0.1,0.2,0.1,0.3,0.1c0.1,0,0.2,0,0.2,0c0.1,0,0.2-0.1,0.2-0.1l0-0.2C248.6,343,248.5,343.1,248.5,343.1
			 M249.3,342c0-0.1,0.1-0.2,0.2-0.3c0.1-0.1,0.2-0.1,0.3-0.1c0.1,0,0.2,0,0.2,0.1c0,0.1,0.1,0.1,0.1,0.2l0,0.2l-0.8,0.1L249.3,342z
			 M249.8,343.1c-0.1,0-0.2,0-0.2,0c-0.1,0-0.3,0-0.3-0.1c-0.1-0.1-0.1-0.2-0.1-0.3l0-0.2l1.1-0.2l0.1-0.3c0-0.1,0-0.2,0-0.3
			c0-0.1,0-0.2-0.1-0.2c0-0.1-0.1-0.1-0.2-0.1c-0.1,0-0.2,0-0.3,0c-0.1,0-0.2,0-0.3,0c-0.1,0-0.2,0.1-0.3,0.1
			c-0.1,0.1-0.1,0.1-0.2,0.2c-0.1,0.1-0.1,0.2-0.1,0.3l-0.1,0.7c-0.1,0.2,0,0.4,0.1,0.5c0.1,0.1,0.3,0.2,0.5,0.2
			c0.1,0,0.3,0,0.4-0.1c0.1,0,0.2-0.1,0.3-0.2l-0.1-0.2C249.9,343,249.9,343,249.8,343.1 M257.4,343c-0.1,0-0.1,0.1-0.2,0.1
			c-0.1,0-0.1,0-0.2,0c-0.1,0-0.1,0-0.1-0.1c0,0,0-0.1,0-0.2l0.3-1.2h0.5l0.1-0.2h-0.5l0.1-0.6h-0.3l-0.1,0.6h-0.3l-0.1,0.2h0.3
			l-0.3,1.3c0,0.2,0,0.3,0,0.4c0.1,0.1,0.2,0.1,0.3,0.1c0.1,0,0.2,0,0.2,0c0.1,0,0.2-0.1,0.2-0.1L257.4,343z M253.6,342
			c0-0.1,0.1-0.2,0.2-0.3c0.1-0.1,0.2-0.1,0.3-0.1c0.1,0,0.2,0,0.2,0.1c0,0.1,0.1,0.1,0.1,0.2l0,0.2l-0.8,0.1L253.6,342z
			 M254.1,343.1c-0.1,0-0.2,0-0.2,0c-0.1,0-0.3,0-0.3-0.1c-0.1-0.1-0.1-0.2-0.1-0.3l0-0.2l1.1-0.2l0.1-0.3c0-0.1,0-0.2,0-0.3
			c0-0.1,0-0.2-0.1-0.2c0-0.1-0.1-0.1-0.2-0.1c-0.1,0-0.2,0-0.3,0c-0.1,0-0.2,0-0.3,0c-0.1,0-0.2,0.1-0.3,0.1
			c-0.1,0.1-0.1,0.1-0.2,0.2c-0.1,0.1-0.1,0.2-0.1,0.3l-0.1,0.7c-0.1,0.2,0,0.4,0.1,0.5c0.1,0.1,0.3,0.2,0.5,0.2
			c0.1,0,0.3,0,0.4-0.1c0.1,0,0.2-0.1,0.3-0.2l-0.1-0.2C254.2,343,254.2,343,254.1,343.1 M255.9,341.3c-0.1,0-0.2,0-0.3,0.1
			c-0.1,0.1-0.2,0.1-0.3,0.2l0-0.3h-0.3l-0.4,2h0.3l0.3-1.2c0-0.1,0-0.1,0.1-0.2c0-0.1,0.1-0.1,0.1-0.2c0.1-0.1,0.1-0.1,0.2-0.1
			c0.1,0,0.1,0,0.2,0c0.1,0,0.2,0,0.2,0.1c0,0.1,0,0.2,0,0.3l-0.3,1.3h0.3l0.3-1.4c0-0.2,0-0.4,0-0.5
			C256.3,341.4,256.2,341.3,255.9,341.3 M247.2,342.7c0,0.1,0,0.1-0.1,0.2c0,0-0.1,0.1-0.1,0.1c0,0-0.1,0.1-0.1,0.1
			c-0.1,0-0.1,0-0.2,0c-0.1,0-0.2,0-0.2-0.1c-0.1,0-0.1-0.1-0.1-0.2l0.1-0.3l0.8-0.1L247.2,342.7z M247.2,341.3c-0.1,0-0.1,0-0.2,0
			c-0.1,0-0.1,0-0.2,0.1c-0.1,0-0.1,0-0.2,0.1c-0.1,0-0.1,0.1-0.2,0.1l0.1,0.2c0,0,0.1,0,0.1-0.1c0.1,0,0.1,0,0.2-0.1
			c0.1,0,0.1,0,0.2,0c0.1,0,0.1,0,0.1,0c0.1,0,0.2,0,0.3,0.1c0,0,0,0.1,0,0.3l0,0.2l-1.1,0.2l-0.1,0.5c0,0.2,0,0.3,0.1,0.4
			c0.1,0.1,0.2,0.1,0.4,0.1c0.1,0,0.2,0,0.3-0.1c0.1-0.1,0.2-0.1,0.3-0.2l0,0.3h0.3l0.3-1.4c0-0.2,0-0.4-0.1-0.5
			C247.5,341.4,247.4,341.3,247.2,341.3 M242.9,342.7c0,0.1-0.1,0.2-0.2,0.3c-0.1,0.1-0.2,0.1-0.3,0.1c-0.1,0-0.2,0-0.3-0.1
			c-0.1-0.1-0.1-0.2-0.1-0.3l0.1-0.6c0-0.1,0.1-0.2,0.2-0.3c0.1-0.1,0.2-0.1,0.3-0.1c0.1,0,0.2,0,0.3,0.1c0.1,0.1,0.1,0.2,0,0.3
			L242.9,342.7z M242.8,341.3c-0.1,0-0.2,0-0.3,0.1c-0.1,0.1-0.2,0.1-0.3,0.2l0-0.3H242l-0.7,3.2h0.3l0.3-1.5c0,0.1,0.1,0.2,0.2,0.2
			c0.1,0,0.2,0.1,0.3,0.1c0.2,0,0.4-0.1,0.5-0.2c0.1-0.1,0.2-0.3,0.3-0.5l0.2-0.7c0-0.2,0-0.4-0.1-0.5
			C243.2,341.4,243.1,341.3,242.8,341.3 M241.1,342.6c0,0.2-0.1,0.3-0.3,0.4c-0.1,0.1-0.3,0.1-0.5,0.1c-0.1,0-0.2,0-0.2,0
			c-0.1,0-0.1-0.1-0.2-0.1c0,0-0.1-0.1-0.1-0.2c0-0.1,0-0.2,0-0.2l0.4-1.9H240l-0.4,1.9c-0.1,0.3,0,0.5,0.1,0.6
			c0.1,0.1,0.3,0.2,0.6,0.2c0.1,0,0.3,0,0.4,0c0.1,0,0.2-0.1,0.3-0.2c0.1-0.1,0.2-0.2,0.2-0.3c0.1-0.1,0.1-0.2,0.2-0.4l0.4-1.9h-0.3
			L241.1,342.6z M245.6,343.1c-0.1,0-0.1,0-0.2,0c-0.1,0-0.1,0-0.1-0.1c0,0,0-0.1,0-0.2l0.3-1.2h0.5l0.1-0.2h-0.5l0.1-0.6h0
			c0-0.2,0-0.4-0.1-0.5c-0.1-0.1-0.3-0.2-0.4-0.2c-0.2,0-0.4,0.1-0.6,0.2c-0.2,0.1-0.3,0.3-0.4,0.6c0,0.2,0,0.3,0,0.5c0,0,0,0,0,0
			c-0.2,0-0.4,0-0.5,0.1c-0.1,0.1-0.2,0.2-0.2,0.4c0,0.1,0,0.1,0,0.2c0,0.1,0,0.1,0.1,0.2c0,0,0.1,0.1,0.1,0.1
			c0.1,0,0.1,0.1,0.2,0.1c0.1,0,0.1,0.1,0.1,0.1c0,0,0.1,0.1,0.1,0.1c0,0,0.1,0.1,0.1,0.1c0,0,0,0.1,0,0.1c0,0.1-0.1,0.2-0.1,0.2
			c-0.1,0-0.2,0.1-0.3,0.1c-0.1,0-0.1,0-0.2-0.1c-0.1,0-0.1-0.1-0.2-0.2l-0.2,0.2c0.1,0.1,0.1,0.2,0.2,0.2c0.1,0.1,0.2,0.1,0.4,0.1
			c0.2,0,0.4,0,0.5-0.1c0.1-0.1,0.2-0.2,0.3-0.4c0-0.1,0-0.1,0-0.2c0-0.1,0-0.1-0.1-0.1c0,0-0.1-0.1-0.1-0.1c-0.1,0-0.1-0.1-0.2-0.1
			c0,0-0.1,0-0.1-0.1c0,0-0.1,0-0.1-0.1c0,0-0.1-0.1-0.1-0.1c0,0,0-0.1,0-0.1c0-0.1,0.1-0.2,0.1-0.2c0.1,0,0.2-0.1,0.3-0.1
			c0.1,0,0.1,0,0.2,0.1c0.1,0,0.1,0.1,0.1,0.1l0.2-0.2c0,0,0,0-0.1-0.1c0,0-0.1-0.1-0.1-0.1l0,0c-0.3-0.4-0.4-0.8,0.1-1
			c0.3-0.2,0.5-0.1,0.6,0c0,0,0,0,0,0c0,0,0,0,0,0c0,0,0,0,0,0c0,0.1,0.1,0.1,0,0.3l0,0h0l-0.1,0.5H245l-0.1,0.2h0.3l-0.3,1.3
			c0,0.2,0,0.3,0,0.4c0.1,0.1,0.2,0.1,0.3,0.1c0.1,0,0.2,0,0.2,0c0.1,0,0.2-0.1,0.2-0.1l0-0.2C245.8,343,245.7,343.1,245.6,343.1"/>
	</g>
	<g>
		<path fill="#FFFFFF" d="M149.8,445.8c-0.1,0-0.2,0-0.3,0.1c-0.1,0.1-0.2,0.1-0.3,0.2c0-0.1-0.1-0.2-0.1-0.2
			c-0.1,0-0.2-0.1-0.3-0.1c-0.1,0-0.2,0-0.3,0.1c-0.1,0.1-0.2,0.1-0.3,0.2l0-0.3h-0.3l-0.4,2h0.3l0.3-1.2c0-0.1,0-0.1,0.1-0.2
			c0-0.1,0.1-0.1,0.1-0.2c0-0.1,0.1-0.1,0.2-0.1c0.1,0,0.1-0.1,0.2-0.1c0.1,0,0.2,0,0.2,0.1c0,0.1,0,0.2,0,0.3l-0.3,1.4h0.3l0.3-1.2
			c0-0.1,0-0.1,0.1-0.2c0-0.1,0.1-0.1,0.1-0.2c0,0,0.1-0.1,0.2-0.1c0.1,0,0.1,0,0.2,0c0.1,0,0.2,0,0.2,0.1c0,0.1,0,0.1,0,0.2
			l-0.3,1.4h0.3l0.3-1.4c0-0.2,0-0.3,0-0.4C150.2,445.8,150,445.8,149.8,445.8 M145.7,447.5c-0.1,0-0.1,0-0.2,0
			c-0.1,0-0.1,0-0.1-0.1c0,0,0-0.1,0-0.2l0.3-1.2h0.5l0.1-0.2h-0.5l0.1-0.6h-0.3l-0.1,0.6H145l-0.1,0.2h0.3l-0.3,1.3
			c0,0.2,0,0.3,0,0.4c0.1,0.1,0.2,0.1,0.3,0.1c0.1,0,0.2,0,0.2,0c0.1,0,0.2-0.1,0.2-0.1l0-0.2C145.8,447.5,145.7,447.5,145.7,447.5
			 M146.5,446.4c0-0.1,0.1-0.2,0.2-0.3c0.1-0.1,0.2-0.1,0.3-0.1c0.1,0,0.2,0,0.2,0.1c0,0.1,0.1,0.1,0.1,0.2l0,0.2l-0.8,0.1
			L146.5,446.4z M146.9,447.5c-0.1,0-0.2,0-0.2,0c-0.1,0-0.3,0-0.3-0.1c-0.1-0.1-0.1-0.2-0.1-0.3l0-0.2l1.1-0.2l0.1-0.3
			c0-0.1,0-0.2,0-0.3c0-0.1,0-0.2-0.1-0.2c0-0.1-0.1-0.1-0.2-0.1c-0.1,0-0.2,0-0.3,0c-0.1,0-0.2,0-0.3,0c-0.1,0-0.2,0.1-0.3,0.1
			c-0.1,0.1-0.1,0.1-0.2,0.2c-0.1,0.1-0.1,0.2-0.1,0.3l-0.1,0.7c-0.1,0.2,0,0.4,0.1,0.5c0.1,0.1,0.3,0.2,0.5,0.2
			c0.1,0,0.3,0,0.4-0.1c0.1,0,0.2-0.1,0.3-0.2l-0.1-0.2C147.1,447.4,147,447.5,146.9,447.5 M154.6,447.4c-0.1,0-0.1,0.1-0.2,0.1
			c-0.1,0-0.1,0-0.2,0c-0.1,0-0.1,0-0.1-0.1c0,0,0-0.1,0-0.2l0.3-1.2h0.5l0.1-0.2h-0.5l0.1-0.6h-0.3l-0.1,0.6h-0.3l-0.1,0.2h0.3
			l-0.3,1.3c0,0.2,0,0.3,0,0.4c0.1,0.1,0.2,0.1,0.3,0.1c0.1,0,0.2,0,0.2,0c0.1,0,0.2-0.1,0.2-0.1L154.6,447.4z M150.8,446.4
			c0-0.1,0.1-0.2,0.2-0.3c0.1-0.1,0.2-0.1,0.3-0.1c0.1,0,0.2,0,0.2,0.1c0,0.1,0.1,0.1,0.1,0.2l0,0.2l-0.8,0.1L150.8,446.4z
			 M151.3,447.5c-0.1,0-0.2,0-0.2,0c-0.1,0-0.3,0-0.3-0.1c-0.1-0.1-0.1-0.2-0.1-0.3l0-0.2l1.1-0.2l0.1-0.3c0-0.1,0-0.2,0-0.3
			c0-0.1,0-0.2-0.1-0.2s-0.1-0.1-0.2-0.1c-0.1,0-0.2,0-0.3,0c-0.1,0-0.2,0-0.3,0c-0.1,0-0.2,0.1-0.3,0.1c-0.1,0.1-0.1,0.1-0.2,0.2
			c-0.1,0.1-0.1,0.2-0.1,0.3l-0.1,0.7c-0.1,0.2,0,0.4,0.1,0.5c0.1,0.1,0.3,0.2,0.5,0.2c0.1,0,0.3,0,0.4-0.1c0.1,0,0.2-0.1,0.3-0.2
			l-0.1-0.2C151.4,447.4,151.3,447.5,151.3,447.5 M153.1,445.8c-0.1,0-0.2,0-0.3,0.1c-0.1,0.1-0.2,0.1-0.3,0.2l0-0.3h-0.3l-0.4,2
			h0.3l0.3-1.2c0-0.1,0-0.1,0.1-0.2c0-0.1,0.1-0.1,0.1-0.2c0.1-0.1,0.1-0.1,0.2-0.1c0.1,0,0.1,0,0.2,0c0.1,0,0.2,0,0.2,0.1
			c0,0.1,0,0.2,0,0.3l-0.3,1.3h0.3l0.3-1.4c0-0.2,0-0.4,0-0.5C153.5,445.8,153.3,445.8,153.1,445.8 M144.4,447.2
			c0,0.1,0,0.1-0.1,0.2c0,0-0.1,0.1-0.1,0.1c0,0-0.1,0.1-0.1,0.1c-0.1,0-0.1,0-0.2,0c-0.1,0-0.2,0-0.2-0.1c-0.1,0-0.1-0.1-0.1-0.2
			l0.1-0.3l0.8-0.1L144.4,447.2z M144.4,445.8c-0.1,0-0.1,0-0.2,0c-0.1,0-0.1,0-0.2,0.1c-0.1,0-0.1,0-0.2,0.1
			c-0.1,0-0.1,0.1-0.2,0.1l0.1,0.2c0,0,0.1,0,0.1-0.1c0.1,0,0.1,0,0.2-0.1c0.1,0,0.1,0,0.2,0c0.1,0,0.1,0,0.1,0c0.1,0,0.2,0,0.3,0.1
			c0,0,0,0.1,0,0.3l0,0.2l-1.1,0.2l-0.1,0.5c0,0.2,0,0.3,0.1,0.4c0.1,0.1,0.2,0.1,0.4,0.1c0.1,0,0.2,0,0.3-0.1
			c0.1-0.1,0.2-0.1,0.3-0.2l0,0.3h0.3l0.3-1.4c0-0.2,0-0.4-0.1-0.5C144.7,445.8,144.6,445.8,144.4,445.8 M140.1,447.2
			c0,0.1-0.1,0.2-0.2,0.3c-0.1,0.1-0.2,0.1-0.3,0.1c-0.1,0-0.2,0-0.3-0.1c-0.1-0.1-0.1-0.2-0.1-0.3l0.1-0.6c0-0.1,0.1-0.2,0.2-0.3
			c0.1-0.1,0.2-0.1,0.3-0.1c0.1,0,0.2,0,0.3,0.1c0.1,0.1,0.1,0.2,0,0.3L140.1,447.2z M140,445.8c-0.1,0-0.2,0-0.3,0.1
			c-0.1,0.1-0.2,0.1-0.3,0.2l0-0.3h-0.3l-0.7,3.2h0.3l0.3-1.5c0,0.1,0.1,0.2,0.2,0.2c0.1,0,0.2,0.1,0.3,0.1c0.2,0,0.4-0.1,0.5-0.2
			c0.1-0.1,0.2-0.3,0.3-0.5l0.2-0.7c0-0.2,0-0.4-0.1-0.5C140.4,445.8,140.2,445.8,140,445.8 M138.3,447c0,0.2-0.1,0.3-0.3,0.4
			c-0.1,0.1-0.3,0.1-0.5,0.1c-0.1,0-0.2,0-0.2,0c-0.1,0-0.1-0.1-0.2-0.1c0,0-0.1-0.1-0.1-0.2c0-0.1,0-0.2,0-0.2l0.4-1.9h-0.3
			l-0.4,1.9c-0.1,0.3,0,0.5,0.1,0.6c0.1,0.1,0.3,0.2,0.6,0.2c0.1,0,0.3,0,0.4,0c0.1,0,0.2-0.1,0.3-0.2c0.1-0.1,0.2-0.2,0.2-0.3
			c0.1-0.1,0.1-0.2,0.2-0.4l0.4-1.9h-0.3L138.3,447z M142.8,447.5c-0.1,0-0.1,0-0.2,0c-0.1,0-0.1,0-0.1-0.1c0,0,0-0.1,0-0.2l0.3-1.2
			h0.5l0.1-0.2h-0.5l0.1-0.6h0c0-0.2,0-0.4-0.1-0.5c-0.1-0.1-0.3-0.2-0.4-0.2c-0.2,0-0.4,0.1-0.6,0.2c-0.2,0.1-0.3,0.3-0.4,0.6
			c0,0.2,0,0.3,0,0.5c0,0,0,0,0,0c-0.2,0-0.4,0-0.5,0.1c-0.1,0.1-0.2,0.2-0.2,0.4c0,0.1,0,0.1,0,0.2c0,0.1,0,0.1,0.1,0.2
			c0,0,0.1,0.1,0.1,0.1c0.1,0,0.1,0.1,0.2,0.1c0.1,0,0.1,0.1,0.1,0.1c0,0,0.1,0.1,0.1,0.1c0,0,0.1,0.1,0.1,0.1c0,0,0,0.1,0,0.1
			c0,0.1-0.1,0.2-0.1,0.2c-0.1,0-0.2,0.1-0.3,0.1c-0.1,0-0.1,0-0.2-0.1c-0.1,0-0.1-0.1-0.2-0.2l-0.2,0.2c0.1,0.1,0.1,0.2,0.2,0.2
			c0.1,0.1,0.2,0.1,0.4,0.1c0.2,0,0.4,0,0.5-0.1c0.1-0.1,0.2-0.2,0.3-0.4c0-0.1,0-0.1,0-0.2c0-0.1,0-0.1-0.1-0.1
			c0,0-0.1-0.1-0.1-0.1c-0.1,0-0.1-0.1-0.2-0.1c0,0-0.1,0-0.1-0.1c0,0-0.1,0-0.1-0.1c0,0-0.1-0.1-0.1-0.1c0,0,0-0.1,0-0.1
			c0-0.1,0.1-0.2,0.1-0.2c0.1,0,0.2-0.1,0.3-0.1c0.1,0,0.1,0,0.2,0.1c0.1,0,0.1,0.1,0.1,0.1l0.2-0.2c0,0,0,0-0.1-0.1
			c0,0-0.1-0.1-0.1-0.1l0,0c-0.3-0.4-0.4-0.8,0.1-1c0.3-0.2,0.5-0.1,0.6,0c0,0,0,0,0,0c0,0,0,0,0,0c0,0,0,0,0,0c0,0.1,0.1,0.1,0,0.3
			l0,0h0l-0.1,0.5h-0.3l-0.1,0.2h0.3l-0.3,1.3c0,0.2,0,0.3,0,0.4c0.1,0.1,0.2,0.1,0.3,0.1c0.1,0,0.2,0,0.2,0c0.1,0,0.2-0.1,0.2-0.1
			l0-0.2C142.9,447.5,142.9,447.5,142.8,447.5"/>
	</g>
	<g>
		<path fill="#FFFFFF" d="M43.5,447.4c-0.1,0-0.2,0-0.3,0.1c-0.1,0.1-0.2,0.1-0.3,0.2c0-0.1-0.1-0.2-0.1-0.2c-0.1,0-0.2-0.1-0.3-0.1
			c-0.1,0-0.2,0-0.3,0.1c-0.1,0.1-0.2,0.1-0.3,0.2l0-0.3h-0.3l-0.4,2h0.3l0.3-1.2c0-0.1,0-0.1,0.1-0.2c0-0.1,0.1-0.1,0.1-0.2
			c0-0.1,0.1-0.1,0.2-0.1c0.1,0,0.1-0.1,0.2-0.1c0.1,0,0.2,0,0.2,0.1c0,0.1,0,0.2,0,0.3l-0.3,1.4h0.3l0.3-1.2c0-0.1,0-0.1,0.1-0.2
			c0-0.1,0.1-0.1,0.1-0.2c0,0,0.1-0.1,0.2-0.1c0.1,0,0.1,0,0.2,0c0.1,0,0.2,0,0.2,0.1c0,0.1,0,0.1,0,0.2l-0.3,1.4h0.3L44,448
			c0-0.2,0-0.3,0-0.4C43.9,447.4,43.7,447.4,43.5,447.4 M39.4,449.1c-0.1,0-0.1,0-0.2,0c-0.1,0-0.1,0-0.1-0.1c0,0,0-0.1,0-0.2
			l0.3-1.2h0.5l0.1-0.2h-0.5l0.1-0.6h-0.3l-0.1,0.6h-0.3l-0.1,0.2H39l-0.3,1.3c0,0.2,0,0.3,0,0.4c0.1,0.1,0.2,0.1,0.3,0.1
			c0.1,0,0.2,0,0.2,0c0.1,0,0.2-0.1,0.2-0.1l0-0.2C39.5,449.1,39.4,449.1,39.4,449.1 M40.2,448.1c0-0.1,0.1-0.2,0.2-0.3
			c0.1-0.1,0.2-0.1,0.3-0.1c0.1,0,0.2,0,0.2,0.1c0,0.1,0.1,0.1,0.1,0.2l0,0.2l-0.8,0.1L40.2,448.1z M40.7,449.1c-0.1,0-0.2,0-0.2,0
			c-0.1,0-0.3,0-0.3-0.1c-0.1-0.1-0.1-0.2-0.1-0.3l0-0.2l1.1-0.2l0.1-0.3c0-0.1,0-0.2,0-0.3c0-0.1,0-0.2-0.1-0.2
			c0-0.1-0.1-0.1-0.2-0.1c-0.1,0-0.2,0-0.3,0c-0.1,0-0.2,0-0.3,0c-0.1,0-0.2,0.1-0.3,0.1c-0.1,0.1-0.1,0.1-0.2,0.2
			c-0.1,0.1-0.1,0.2-0.1,0.3l-0.1,0.7c-0.1,0.2,0,0.4,0.1,0.5c0.1,0.1,0.3,0.2,0.5,0.2c0.1,0,0.3,0,0.4-0.1c0.1,0,0.2-0.1,0.3-0.2
			l-0.1-0.2C40.8,449,40.8,449.1,40.7,449.1 M48.4,449.1c-0.1,0-0.1,0.1-0.2,0.1c-0.1,0-0.1,0-0.2,0c-0.1,0-0.1,0-0.1-0.1
			c0,0,0-0.1,0-0.2l0.3-1.2h0.5l0.1-0.2h-0.5l0.1-0.6H48l-0.1,0.6h-0.3l-0.1,0.2h0.3l-0.3,1.3c0,0.2,0,0.3,0,0.4
			c0.1,0.1,0.2,0.1,0.3,0.1c0.1,0,0.2,0,0.2,0c0.1,0,0.2-0.1,0.2-0.1L48.4,449.1z M44.5,448.1c0-0.1,0.1-0.2,0.2-0.3
			c0.1-0.1,0.2-0.1,0.3-0.1c0.1,0,0.2,0,0.2,0.1c0,0.1,0.1,0.1,0.1,0.2l0,0.2l-0.8,0.1L44.5,448.1z M45,449.1c-0.1,0-0.2,0-0.2,0
			c-0.1,0-0.3,0-0.3-0.1c-0.1-0.1-0.1-0.2-0.1-0.3l0-0.2l1.1-0.2l0.1-0.3c0-0.1,0-0.2,0-0.3c0-0.1,0-0.2-0.1-0.2
			c0-0.1-0.1-0.1-0.2-0.1c-0.1,0-0.2,0-0.3,0c-0.1,0-0.2,0-0.3,0c-0.1,0-0.2,0.1-0.3,0.1c-0.1,0.1-0.1,0.1-0.2,0.2
			c-0.1,0.1-0.1,0.2-0.1,0.3l-0.1,0.7c-0.1,0.2,0,0.4,0.1,0.5c0.1,0.1,0.3,0.2,0.5,0.2c0.1,0,0.3,0,0.4-0.1c0.1,0,0.2-0.1,0.3-0.2
			l-0.1-0.2C45.2,449,45.1,449.1,45,449.1 M46.8,447.4c-0.1,0-0.2,0-0.3,0.1c-0.1,0.1-0.2,0.1-0.3,0.2l0-0.3H46l-0.4,2h0.3l0.3-1.2
			c0-0.1,0-0.1,0.1-0.2c0-0.1,0.1-0.1,0.1-0.2c0.1-0.1,0.1-0.1,0.2-0.1c0.1,0,0.1,0,0.2,0c0.1,0,0.2,0,0.2,0.1c0,0.1,0,0.2,0,0.3
			l-0.3,1.3H47l0.3-1.4c0-0.2,0-0.4,0-0.5C47.2,447.4,47.1,447.4,46.8,447.4 M38.1,448.8c0,0.1,0,0.1-0.1,0.2c0,0-0.1,0.1-0.1,0.1
			c0,0-0.1,0.1-0.1,0.1c-0.1,0-0.1,0-0.2,0c-0.1,0-0.2,0-0.2-0.1c-0.1,0-0.1-0.1-0.1-0.2l0.1-0.3l0.8-0.1L38.1,448.8z M38.1,447.4
			c-0.1,0-0.1,0-0.2,0c-0.1,0-0.1,0-0.2,0.1c-0.1,0-0.1,0-0.2,0.1c-0.1,0-0.1,0.1-0.2,0.1l0.1,0.2c0,0,0.1,0,0.1-0.1
			c0.1,0,0.1,0,0.2-0.1c0.1,0,0.1,0,0.2,0c0.1,0,0.1,0,0.1,0c0.1,0,0.2,0,0.3,0.1c0,0,0,0.1,0,0.3l0,0.2l-1.1,0.2l-0.1,0.5
			c0,0.2,0,0.3,0.1,0.4c0.1,0.1,0.2,0.1,0.4,0.1c0.1,0,0.2,0,0.3-0.1c0.1-0.1,0.2-0.1,0.3-0.2l0,0.3h0.3l0.3-1.4
			c0-0.2,0-0.4-0.1-0.5C38.4,447.4,38.3,447.4,38.1,447.4 M33.8,448.8c0,0.1-0.1,0.2-0.2,0.3c-0.1,0.1-0.2,0.1-0.3,0.1
			c-0.1,0-0.2,0-0.3-0.1c-0.1-0.1-0.1-0.2-0.1-0.3l0.1-0.6c0-0.1,0.1-0.2,0.2-0.3c0.1-0.1,0.2-0.1,0.3-0.1c0.1,0,0.2,0,0.3,0.1
			c0.1,0.1,0.1,0.2,0,0.3L33.8,448.8z M33.8,447.4c-0.1,0-0.2,0-0.3,0.1c-0.1,0.1-0.2,0.1-0.3,0.2l0-0.3h-0.3l-0.7,3.2h0.3l0.3-1.5
			c0,0.1,0.1,0.2,0.2,0.2c0.1,0,0.2,0.1,0.3,0.1c0.2,0,0.4-0.1,0.5-0.2c0.1-0.1,0.2-0.3,0.3-0.5l0.2-0.7c0-0.2,0-0.4-0.1-0.5
			C34.1,447.5,34,447.4,33.8,447.4 M32,448.6c0,0.2-0.1,0.3-0.3,0.4c-0.1,0.1-0.3,0.1-0.5,0.1c-0.1,0-0.2,0-0.2,0
			c-0.1,0-0.1-0.1-0.2-0.1c0,0-0.1-0.1-0.1-0.2c0-0.1,0-0.2,0-0.2l0.4-1.9h-0.3l-0.4,1.9c-0.1,0.3,0,0.5,0.1,0.6
			c0.1,0.1,0.3,0.2,0.6,0.2c0.1,0,0.3,0,0.4,0c0.1,0,0.2-0.1,0.3-0.2c0.1-0.1,0.2-0.2,0.2-0.3c0.1-0.1,0.1-0.2,0.2-0.4l0.4-1.9h-0.3
			L32,448.6z M36.5,449.1c-0.1,0-0.1,0-0.2,0c-0.1,0-0.1,0-0.1-0.1c0,0,0-0.1,0-0.2l0.3-1.2H37l0.1-0.2h-0.5l0.1-0.6h0
			c0-0.2,0-0.4-0.1-0.5c-0.1-0.1-0.3-0.2-0.4-0.2c-0.2,0-0.4,0.1-0.6,0.2c-0.2,0.1-0.3,0.3-0.4,0.6c0,0.2,0,0.3,0,0.5c0,0,0,0,0,0
			c-0.2,0-0.4,0-0.5,0.1c-0.1,0.1-0.2,0.2-0.2,0.4c0,0.1,0,0.1,0,0.2c0,0.1,0,0.1,0.1,0.2c0,0,0.1,0.1,0.1,0.1
			c0.1,0,0.1,0.1,0.2,0.1c0.1,0,0.1,0.1,0.1,0.1c0,0,0.1,0.1,0.1,0.1c0,0,0.1,0.1,0.1,0.1c0,0,0,0.1,0,0.1c0,0.1-0.1,0.2-0.1,0.2
			c-0.1,0-0.2,0.1-0.3,0.1c-0.1,0-0.1,0-0.2-0.1c-0.1,0-0.1-0.1-0.2-0.2l-0.2,0.2c0.1,0.1,0.1,0.2,0.2,0.2c0.1,0.1,0.2,0.1,0.4,0.1
			c0.2,0,0.4,0,0.5-0.1c0.1-0.1,0.2-0.2,0.3-0.4c0-0.1,0-0.1,0-0.2c0-0.1,0-0.1-0.1-0.1c0,0-0.1-0.1-0.1-0.1c-0.1,0-0.1-0.1-0.2-0.1
			c0,0-0.1,0-0.1-0.1c0,0-0.1,0-0.1-0.1c0,0-0.1-0.1-0.1-0.1c0,0,0-0.1,0-0.1c0-0.1,0.1-0.2,0.1-0.2c0.1,0,0.2-0.1,0.3-0.1
			c0.1,0,0.1,0,0.2,0.1c0.1,0,0.1,0.1,0.1,0.1l0.2-0.2c0,0,0,0-0.1-0.1c0,0-0.1-0.1-0.1-0.1l0,0c-0.3-0.4-0.4-0.8,0.1-1
			c0.3-0.2,0.5-0.1,0.6,0c0,0,0,0,0,0c0,0,0,0,0,0c0,0,0,0,0,0c0,0.1,0.1,0.1,0,0.3l0,0h0l-0.1,0.5h-0.3l-0.1,0.2h0.3l-0.3,1.3
			c0,0.2,0,0.3,0,0.4c0.1,0.1,0.2,0.1,0.3,0.1c0.1,0,0.2,0,0.2,0c0.1,0,0.2-0.1,0.2-0.1l0-0.2C36.7,449.1,36.6,449.1,36.5,449.1"/>
	</g>
</g>
</svg>
