<?xml version="1.0" encoding="utf-8"?>
<!-- Generator: Adobe Illustrator 17.1.0, SVG Export Plug-In . SVG Version: 6.00 Build 0)  -->
<!DOCTYPE svg PUBLIC "-//W3C//DTD SVG 1.1//EN" "http://www.w3.org/Graphics/SVG/1.1/DTD/svg11.dtd">
<svg version="1.1" id="Layer_1" xmlns="http://www.w3.org/2000/svg" xmlns:xlink="http://www.w3.org/1999/xlink" x="0px" y="0px"
	 viewBox="-54.2 -135.2 852.1 693.1" enable-background="new -54.2 -135.2 852.1 693.1" xml:space="preserve">
<g id="Layer_2" display="none">
</g>
<g id="Layer_1_1_">
	<path stroke="#BABABA" stroke-width="24.0604" stroke-miterlimit="10" d="M548.2,408.7c0,32.4-30.3,58.6-78.4,58.6H280.9
		c-52.5,0-81.8-26.2-81.8-58.6V1.2c0-32.4,20.4-58.6,76.3-58.6h195.4c47.1,0,77.4,26.2,77.4,58.6L548.2,408.7L548.2,408.7z"/>
	<polygon fill="#11191E" points="231.9,314 231.9,400 319.5,408.7 319.5,404.3 407,404.3 407,408.7 511.4,404.3 514.2,319.9 
		370,348.3 	"/>
	<path fill="none" stroke="#1C262D" stroke-width="24.0604" stroke-linecap="round" stroke-miterlimit="10" d="M509.5,395.9
		c-156.6,28.9-273.4,0-273.4,0"/>
	<rect x="228.3" y="15.7" fill="#1C262D" width="289.7" height="222.9"/>
	<path fill="#1C262D" d="M415.1-19.6c0,2.5-2.1,4.6-4.6,4.6h-66.8c-2.5,0-4.6-2.1-4.6-4.6l0,0c0-2.5,2.1-4.6,4.6-4.6h66.8
		C413.1-24.2,415.1-22.1,415.1-19.6L415.1-19.6z"/>
	<path fill="#FFFFFF" d="M397.4,163.9c-1.5,0.3-3,0.5-4.6,0.5c-1.4,0-2.5-0.6-3.2-1.7c-0.8-1.1-0.9-2.9-0.5-4.9l7.4-34.1h16l1.4-6.5
		h-16l3.5-16.4l0,0c1.3-6.1,0.2-11-2.6-14.3s-7.4-4.8-12-4.8c-5.5,0-11.6,1.9-16.7,5.6c-5.1,3.5-9.5,9-10.9,15.7
		c-0.9,4.6-0.6,8.7,1.4,13.2c-0.1,0-0.1,0-0.2,0c-5.4,0-9.9,1.3-13.5,4c-3.5,2.6-5.9,6.3-6.9,10.9c-0.5,2.2-0.6,4.1-0.1,5.6
		c0.3,1.5,1,3,2.1,4.1c0.9,1.3,2.2,2.4,3.8,3.4c1.5,1,3.2,2.2,5,3.3c1.5,0.9,2.7,1.8,4,2.5c1.3,0.7,2.3,1.5,3.2,2.2
		c0.9,0.7,1.5,1.5,1.8,2.4s0.5,1.9,0.1,3.2c-0.7,3-1.9,5-3.9,6.1c-1.9,1-4.5,1.5-7.5,1.5c-2.1,0-4.1-0.5-6.2-1.5
		c-2.2-0.9-3.9-2.7-5.4-5.5l-6.5,5.5c1.6,2.9,3.8,5,6.4,6.5s5.9,2.3,10.1,2.3c5.3,0,10.1-1.3,14.1-3.8s6.6-6.5,7.9-12
		c0.5-2.2,0.6-4.1,0.3-5.6c-0.3-1.5-0.9-2.9-1.9-4c-0.9-1.1-2.2-2.2-3.8-3.2c-1.5-0.9-3.3-2.1-5.3-3.2c-1-0.7-2.2-1.4-3.3-2.1
		c-1.1-0.7-2.3-1.4-3.3-2.1c-1-0.8-1.8-1.6-2.4-2.5c-0.6-0.9-0.7-2.1-0.5-3.3c0.6-2.6,1.7-4.5,3.5-5.6s4.1-1.7,7-1.7
		c2.1,0,3.9,0.6,5.5,1.6c1.7,1,3,2.3,4,3.7l6.2-5.7c-0.5-0.6-1-1.1-1.5-1.7c-0.8-0.9-1.5-1.8-2.1-2.6l0,0c-7.7-10.7-9.8-21,2.2-27.3
		c8.3-4.5,14.1-2.4,17,0.1l0,0c0.1,0.1,0.2,0.2,0.3,0.3c0.3,0.2,0.6,0.5,0.8,0.7c1.4,1.6,2.2,4.1,1.3,8.6l-0.2,0.9l0,0l-3.3,15.2
		h-8.9l-1.4,6.5h8.8l-7.5,34.8c-1,4.6-0.8,8,0.7,10.3s4.7,3.4,9.6,3.4c2.1,0,4.3-0.3,6.6-1.1c2.3-0.7,4.5-1.5,6.4-2.4l-0.6-6.5
		C400.7,163,398.9,163.6,397.4,163.9"/>
	<circle fill="#686868" stroke="#DFE2E5" stroke-width="6.0151" stroke-miterlimit="10" cx="372.1" cy="289.3" r="11.9"/>
	<path fill="none" stroke="#1C262D" stroke-width="24.0604" stroke-linecap="round" stroke-miterlimit="10" d="M235.9,321.1
		c0,0,116.9,47.7,273.4,0"/>
	<path fill="none" stroke="#1C262D" stroke-width="24.0604" stroke-linecap="round" stroke-miterlimit="10" d="M235.9,355.8
		c0,0,116.9,46.3,273.4,0"/>
</g>
</svg>
