<?xml version="1.0" encoding="utf-8"?>
<!-- Generator: Adobe Illustrator 17.1.0, SVG Export Plug-In . SVG Version: 6.00 Build 0)  -->
<!DOCTYPE svg PUBLIC "-//W3C//DTD SVG 1.1//EN" "http://www.w3.org/Graphics/SVG/1.1/DTD/svg11.dtd">
<svg version="1.1" xmlns="http://www.w3.org/2000/svg" xmlns:xlink="http://www.w3.org/1999/xlink" x="0px" y="0px"
	 viewBox="-6374.9 192.6 918 918" enable-background="new -6374.9 192.6 918 918" xml:space="preserve">
<g id="Layer_2" display="none">
</g>
<g id="Layer_1">
	<rect x="-5972" y="411.7" fill="#484849" width="143.1" height="484"/>
	<circle fill="#343435" cx="-5947.7" cy="861.3" r="17.7"/>
	<path d="M-5737.3,407.6h-326.3c-9.9,0-17.9,8-17.9,17.9v452.4c0,9.9,8,17.9,17.9,17.9h326.3c9.9,0,17.9-8,17.9-17.9V425.4
		C-5719.5,415.6-5727.5,407.6-5737.3,407.6z M-5912.8,422.9h34.5v5.1h-34.5V422.9z M-5895.8,875.5c-7.8,0-14.1-6.3-14.1-14.1
		s6.3-14.1,14.1-14.1s14.1,6.3,14.1,14.1C-5881.6,869.2-5888,875.5-5895.8,875.5z M-5740.9,836.1h-318.3V442.3h318.3V836.1z"/>
	<rect x="-6059.2" y="442.3" fill="#1C262D" width="318.3" height="393.9"/>
	<path fill="#FFFFFF" d="M-5873.1,672.2c-1.4,0.3-2.7,0.5-4.1,0.5c-1.2,0-2.2-0.5-2.9-1.6c-0.7-1-0.8-2.5-0.4-4.4l6.6-30.6h14.4
		l1.3-5.9h-14.4l3.2-14.6h0c1.2-5.4,0.2-9.9-2.4-12.9c-2.6-3-6.6-4.3-10.8-4.3c-5,0-10.3,1.8-15,5c-4.6,3.2-8.5,8.2-9.7,14
		c-0.9,4.1-0.5,7.8,1.2,11.8c-0.1,0-0.2,0-0.3,0c-4.9,0-8.9,1.2-12.1,3.6c-3.2,2.4-5.3,5.7-6.2,9.8c-0.4,2-0.5,3.7-0.2,5.1
		c0.3,1.4,0.9,2.6,1.8,3.7c0.9,1.1,2,2.1,3.3,3.1c1.4,0.9,2.9,1.9,4.5,3c1.3,0.9,2.5,1.6,3.6,2.3c1.1,0.7,2.1,1.3,2.9,1.9
		c0.8,0.6,1.3,1.4,1.7,2.1c0.4,0.8,0.4,1.8,0.1,2.9c-0.6,2.7-1.7,4.5-3.5,5.4c-1.7,0.9-4,1.4-6.7,1.4c-1.8,0-3.7-0.4-5.5-1.3
		c-1.9-0.9-3.5-2.5-4.9-5l-5.9,5c1.5,2.5,3.4,4.5,5.7,5.8c2.4,1.4,5.4,2,9.1,2c4.8,0,9-1.1,12.6-3.4c3.6-2.3,6-5.9,7-10.8
		c0.4-2,0.5-3.7,0.3-5c-0.3-1.4-0.8-2.6-1.7-3.6c-0.8-1-2-2-3.3-2.9c-1.4-0.8-3-1.8-4.7-2.9c-0.9-0.6-1.9-1.2-3-1.8
		c-1.1-0.6-2.1-1.2-3-1.9c-0.9-0.7-1.6-1.4-2.1-2.2c-0.5-0.8-0.7-1.8-0.4-2.9c0.5-2.3,1.6-4,3.2-5c1.7-1,3.7-1.6,6.2-1.6
		c1.8,0,3.5,0.5,5,1.5c1.5,1,2.7,2,3.6,3.2l5.5-5.1c-0.4-0.5-0.9-1.1-1.4-1.6c-0.7-0.8-1.3-1.6-1.8-2.4l0,0
		c-6.9-9.6-8.8-18.9,1.9-24.6c7.5-4,12.6-2.1,15.3,0.1c0,0,0,0,0,0c0.1,0.1,0.2,0.2,0.3,0.3c0.3,0.2,0.5,0.4,0.7,0.6
		c1.2,1.5,1.9,3.7,1.1,7.7l-0.2,0.8h0l-2.9,13.6h-8l-1.3,5.9h7.9l-6.8,31.2c-0.9,4.1-0.7,7.2,0.6,9.2c1.3,2,4.2,3,8.6,3
		c1.9,0,3.9-0.3,6-1c2.1-0.6,4-1.4,5.8-2.2l-0.5-5.9C-5870.1,671.3-5871.7,671.9-5873.1,672.2"/>
</g>
</svg>
