<?xml version="1.0" encoding="utf-8"?>
<!-- Generator: Adobe Illustrator 17.1.0, SVG Export Plug-In . SVG Version: 6.00 Build 0)  -->
<!DOCTYPE svg PUBLIC "-//W3C//DTD SVG 1.1//EN" "http://www.w3.org/Graphics/SVG/1.1/DTD/svg11.dtd">
<svg version="1.1" xmlns="http://www.w3.org/2000/svg" xmlns:xlink="http://www.w3.org/1999/xlink" x="0px" y="0px"
	 viewBox="-2749.4 -1380 918 918" enable-background="new -2749.4 -1380 918 918" xml:space="preserve">
<g id="Layer_2" display="none">
</g>
<g id="Layer_1">
	<path stroke="#BABABA" stroke-width="11.4596" stroke-miterlimit="10" d="M-2137.7-737.2c0,28.3-26.5,51.2-68.6,51.2h-165.2
		c-45.9,0-71.5-22.9-71.5-51.2v-356.3c0-28.3,17.8-51.2,66.7-51.2h170.9c41.2,0,67.7,22.9,67.7,51.2V-737.2z"/>
	<polygon fill="#11191E" points="-2414.3,-820 -2414.3,-744.8 -2337.7,-737.2 -2337.7,-741 -2261.2,-741 -2261.2,-737.2 
		-2169.9,-741 -2167.5,-814.8 -2293.6,-790 	"/>
	<path fill="none" stroke="#1C262D" stroke-width="11.4596" stroke-linecap="round" stroke-miterlimit="10" d="M-2171.6-748.4
		c-136.9,25.3-239.1,0-239.1,0"/>
	<rect x="-2417.5" y="-1080.8" fill="#1C262D" width="253.3" height="194.9"/>
	<path fill="#1C262D" d="M-2254.1-1111.7c0,2.2-1.8,4-4,4h-58.4c-2.2,0-4-1.8-4-4l0,0c0-2.2,1.8-4,4-4h58.4
		C-2255.9-1115.7-2254.1-1113.9-2254.1-1111.7L-2254.1-1111.7z"/>
	<path fill="#FFFFFF" d="M-2269.6-951.2c-1.3,0.3-2.6,0.4-4,0.4c-1.2,0-2.2-0.5-2.8-1.5c-0.7-1-0.8-2.5-0.4-4.3l6.5-29.8h14l1.2-5.7
		h-14l3.1-14.3h0c1.1-5.3,0.2-9.6-2.3-12.5c-2.5-2.9-6.5-4.2-10.5-4.2c-4.8,0-10.1,1.7-14.6,4.9c-4.5,3.1-8.3,7.9-9.5,13.7
		c-0.8,4-0.5,7.6,1.2,11.5c-0.1,0-0.1,0-0.2,0c-4.7,0-8.7,1.1-11.8,3.5c-3.1,2.3-5.2,5.5-6,9.5c-0.4,1.9-0.5,3.6-0.1,4.9
		c0.3,1.3,0.9,2.6,1.8,3.6c0.8,1.1,1.9,2.1,3.3,3c1.3,0.9,2.8,1.9,4.4,2.9c1.3,0.8,2.4,1.6,3.5,2.2c1.1,0.6,2,1.3,2.8,1.9
		c0.8,0.6,1.3,1.3,1.6,2.1c0.3,0.8,0.4,1.7,0.1,2.8c-0.6,2.6-1.7,4.4-3.4,5.3c-1.7,0.9-3.9,1.3-6.6,1.3c-1.8,0-3.6-0.4-5.4-1.3
		c-1.9-0.8-3.4-2.4-4.7-4.8l-5.7,4.8c1.4,2.5,3.3,4.4,5.6,5.7c2.3,1.3,5.2,2,8.8,2c4.6,0,8.8-1.1,12.3-3.3c3.5-2.2,5.8-5.7,6.9-10.5
		c0.4-1.9,0.5-3.6,0.3-4.9c-0.3-1.3-0.8-2.5-1.7-3.5c-0.8-1-1.9-1.9-3.3-2.8c-1.3-0.8-2.9-1.8-4.6-2.8c-0.9-0.6-1.9-1.2-2.9-1.8
		c-1-0.6-2-1.2-2.9-1.8c-0.9-0.7-1.6-1.4-2.1-2.2c-0.5-0.8-0.6-1.8-0.4-2.9c0.5-2.3,1.5-3.9,3.1-4.9c1.6-1,3.6-1.5,6.1-1.5
		c1.8,0,3.4,0.5,4.8,1.4c1.5,0.9,2.6,2,3.5,3.2l5.4-5c-0.4-0.5-0.9-1-1.3-1.5c-0.7-0.8-1.3-1.6-1.8-2.3l0,0
		c-6.7-9.4-8.6-18.4,1.9-23.9c7.3-3.9,12.3-2.1,14.9,0.1c0,0,0,0,0,0c0.1,0.1,0.2,0.2,0.3,0.3c0.3,0.2,0.5,0.4,0.7,0.6
		c1.2,1.4,1.9,3.6,1.1,7.5l-0.2,0.8h0l-2.9,13.3h-7.8l-1.2,5.7h7.7l-6.6,30.4c-0.9,4-0.7,7,0.6,9c1.3,2,4.1,3,8.4,3
		c1.8,0,3.8-0.3,5.8-1c2-0.6,3.9-1.3,5.6-2.1l-0.5-5.7C-2266.7-952-2268.3-951.5-2269.6-951.2"/>
	<circle fill="#686868" stroke="#DFE2E5" stroke-width="2.8649" stroke-miterlimit="10" cx="-2291.7" cy="-841.6" r="10.4"/>
	<path fill="none" stroke="#1C262D" stroke-width="11.4596" stroke-linecap="round" stroke-miterlimit="10" d="M-2410.8-813.8
		c0,0,102.2,41.7,239.1,0"/>
	<path fill="none" stroke="#1C262D" stroke-width="11.4596" stroke-linecap="round" stroke-miterlimit="10" d="M-2410.8-783.4
		c0,0,102.2,40.5,239.1,0"/>
</g>
</svg>
