<?xml version="1.0" encoding="utf-8"?>
<!-- Generator: Adobe Illustrator 17.1.0, SVG Export Plug-In . SVG Version: 6.00 Build 0)  -->
<!DOCTYPE svg PUBLIC "-//W3C//DTD SVG 1.1//EN" "http://www.w3.org/Graphics/SVG/1.1/DTD/svg11.dtd">
<svg version="1.1" id="Layer_1" xmlns="http://www.w3.org/2000/svg" xmlns:xlink="http://www.w3.org/1999/xlink" x="0px" y="0px"
	 viewBox="-54.2 -135.2 852.1 693.1" enable-background="new -54.2 -135.2 852.1 693.1" xml:space="preserve">
<g id="Layer_2" display="none">
</g>
<g id="Layer_1_2_">
	<circle fill="#343435" cx="380.2" cy="432.1" r="19.1"/>
	<path d="M504.7-59H254.6c-10.7,0-19.3,8.7-19.3,19.3v489.6c0,10.7,8.7,19.3,19.3,19.3h250.1c10.7,0,19.3-8.7,19.3-19.3V-39.7
		C524-50.3,515.4-59,504.7-59z M361.7-42.4h37.3v5.5h-37.3V-42.4z M380.2,447.5c-8.4,0-15.3-6.9-15.3-15.3c0-8.4,6.9-15.3,15.3-15.3
		c8.4,0,15.3,6.9,15.3,15.3C395.4,440.7,388.6,447.5,380.2,447.5z M500.9,404.9H259.5V-21.4h241.4V404.9z"/>
	<rect x="259.5" y="-21.4" fill="#1C262D" width="241.4" height="426.2"/>
	<path fill="#FFFFFF" d="M410.7,216.9c-1.5,0.3-2.9,0.5-4.4,0.5c-1.3,0-2.4-0.6-3.1-1.7c-0.7-1.1-0.9-2.7-0.4-4.8l7.2-33.1h15.6
		l1.4-6.4h-15.6l3.4-15.9h-0.1c1.2-5.9,0.2-10.7-2.5-13.9c-2.8-3.3-7.2-4.7-11.7-4.7c-5.4,0-11.2,1.9-16.2,5.4
		c-5,3.4-9.2,8.8-10.6,15.2c-0.9,4.4-0.6,8.4,1.3,12.8c-0.1,0-0.2,0-0.2,0c-5.2,0-9.7,1.3-13.1,3.8c-3.5,2.6-5.7,6.1-6.7,10.6
		c-0.5,2.1-0.5,4-0.2,5.5s1,2.9,2,4c0.9,1.2,2.1,2.3,3.6,3.3s3.1,2,4.8,3.2c1.4,0.9,2.7,1.7,3.9,2.5c1.2,0.7,2.3,1.4,3.1,2.1
		c0.8,0.7,1.5,1.5,1.8,2.3c0.4,0.8,0.4,1.9,0.2,3.1c-0.7,2.9-1.9,4.9-3.8,5.9c-1.9,1-4.3,1.5-7.3,1.5c-2,0-4-0.5-6-1.4
		c-2-0.9-3.8-2.7-5.2-5.4l-6.4,5.4c1.6,2.8,3.7,4.8,6.1,6.3c2.5,1.5,5.8,2.2,9.8,2.2c5.2,0,9.7-1.2,13.7-3.7
		c3.9-2.5,6.5-6.4,7.6-11.7c0.5-2.1,0.6-4,0.3-5.4c-0.3-1.5-0.9-2.8-1.9-3.8c-0.9-1.1-2.1-2.1-3.6-3.1c-1.5-0.9-3.2-2-5.1-3.1
		c-1-0.7-2-1.3-3.3-2c-1.1-0.7-2.3-1.3-3.2-2c-1-0.7-1.7-1.6-2.3-2.5c-0.6-0.9-0.7-2-0.4-3.2c0.6-2.5,1.7-4.3,3.5-5.4
		c1.8-1.1,4-1.7,6.7-1.7c2,0,3.8,0.5,5.4,1.6c1.6,1.1,2.9,2.2,3.9,3.5l6-5.5c-0.4-0.6-1-1.1-1.5-1.7c-0.7-0.9-1.4-1.8-2-2.6l0,0
		c-7.4-10.4-9.6-20.5,2-26.6c8.1-4.3,13.7-2.3,16.5,0.1l0,0c0.2,0.1,0.2,0.2,0.3,0.3c0.2,0.2,0.6,0.4,0.8,0.7c1.3,1.6,2.1,4,1.2,8.3
		l-0.2,0.9l0,0l-3.2,14.7h-8.7l-1.4,6.4h8.6l-7.4,33.8c-1,4.4-0.7,7.8,0.7,10c1.5,2.2,4.5,3.3,9.2,3.3c2,0,4.2-0.3,6.5-1.1
		c2.2-0.7,4.3-1.5,6.2-2.4l-0.6-6.4C413.9,216,412.1,216.6,410.7,216.9"/>
</g>
</svg>
