<?xml version="1.0" encoding="utf-8"?>
<!-- Generator: Adobe Illustrator 17.1.0, SVG Export Plug-In . SVG Version: 6.00 Build 0)  -->
<!DOCTYPE svg PUBLIC "-//W3C//DTD SVG 1.1//EN" "http://www.w3.org/Graphics/SVG/1.1/DTD/svg11.dtd">
<svg version="1.1" id="Layer_1" xmlns="http://www.w3.org/2000/svg" xmlns:xlink="http://www.w3.org/1999/xlink" x="0px" y="0px"
	 viewBox="0 0 206.6 285.6" enable-background="new 0 0 206.6 285.6" xml:space="preserve">
<rect x="528.6" y="-30.4" fill="#666666" width="37" height="146"/>
<rect x="473.6" y="24.6" fill="#666666" width="146" height="37"/>
<g>
	<path fill="#F2F2F2" d="M76.2,233.6c-21.7,0-39.2-4.7-52.1-13.9C8.3,208.4,0,190.2,0,167.2c0-21.7,7.1-45.4,19.3-65.1
		c-4.3-9.7-6.5-20.3-6.5-31.2C12.9,31.8,41.4,0,76.4,0s63.5,31.8,63.5,70.9c0,11-2.3,21.8-6.6,31.6c12.1,19.5,19.1,43.2,19.1,64.7
		c0,23-8.3,41.1-24.1,52.5C115.4,229,97.9,233.6,76.2,233.6z M76.4,23.7c-23.7,0-43,21.2-43,47.3c0,9.1,2.4,17.9,6.8,25.5l4.3,7.3
		l-4.9,6.8c-11.8,16.3-19.1,38-19.1,56.6c0,14.8,4.7,25.4,14.5,32.4c9.4,6.8,23.6,10.3,41.2,10.3s31.8-3.6,41.2-10.3
		c9.7-7,14.5-17.6,14.5-32.4c0-18.5-7.2-40-18.9-56.4l-4.9-6.8l4.3-7.3c4.5-7.7,6.9-16.6,6.9-25.8C119.4,44.9,100.1,23.7,76.4,23.7z
		"/>
	<polygon fill="#FFFFFF" points="206.6,233.6 175.6,233.6 175.6,201.6 154.6,201.6 154.6,233.6 122.6,233.6 122.6,254.6 
		154.6,254.6 154.6,285.6 175.6,285.6 175.6,254.6 206.6,254.6 	"/>
</g>
<rect x="516.6" y="-217.4" fill="#FFFFFF" width="19" height="146"/>
<rect x="452.6" y="-153.4" fill="#FFFFFF" width="146" height="19"/>
</svg>
