<?xml version="1.0" encoding="utf-8"?>
<!-- Generator: Adobe Illustrator 17.1.0, SVG Export Plug-In . SVG Version: 6.00 Build 0)  -->
<!DOCTYPE svg PUBLIC "-//W3C//DTD SVG 1.1//EN" "http://www.w3.org/Graphics/SVG/1.1/DTD/svg11.dtd">
<svg version="1.1" id="Layer_1" xmlns="http://www.w3.org/2000/svg" xmlns:xlink="http://www.w3.org/1999/xlink" x="0px" y="0px"
	 viewBox="0 0 13.577 14.271" enable-background="new 0 0 13.577 14.271" xml:space="preserve">
<path fill="#FFFFFF" d="M10.544,12.902c-0.236,0.054-0.476,0.081-0.72,0.081c-0.217,0-0.388-0.09-0.506-0.271
	c-0.119-0.18-0.141-0.443-0.07-0.776l1.159-5.342h2.52l0.221-1.03H10.63l0.555-2.56h-0.008c0.204-0.949,0.042-1.732-0.41-2.251
	C10.311,0.227,9.607,0,8.874,0C8.005,0,7.065,0.306,6.257,0.873C5.45,1.435,4.774,2.3,4.555,3.33
	C4.403,4.042,4.462,4.691,4.768,5.392c-0.016,0-0.027,0-0.045,0c-0.851,0-1.556,0.205-2.122,0.622
	c-0.564,0.42-0.925,0.991-1.08,1.709C1.446,8.069,1.436,8.367,1.495,8.612C1.55,8.851,1.657,9.072,1.81,9.261
	c0.15,0.197,0.347,0.374,0.586,0.538c0.236,0.157,0.5,0.333,0.786,0.519c0.227,0.15,0.435,0.282,0.637,0.401
	c0.198,0.114,0.366,0.227,0.499,0.336c0.135,0.114,0.23,0.239,0.292,0.376c0.063,0.139,0.068,0.308,0.026,0.506
	c-0.102,0.476-0.305,0.793-0.609,0.951c-0.298,0.158-0.692,0.235-1.179,0.235c-0.316,0-0.641-0.076-0.97-0.229
	c-0.335-0.148-0.617-0.436-0.853-0.867L0,12.892c0.255,0.443,0.592,0.785,0.999,1.022c0.412,0.237,0.939,0.357,1.585,0.357
	c0.835,0,1.573-0.201,2.204-0.602c0.635-0.399,1.047-1.03,1.231-1.888c0.077-0.351,0.092-0.642,0.048-0.88
	c-0.049-0.239-0.147-0.446-0.299-0.625c-0.148-0.183-0.345-0.35-0.587-0.502c-0.24-0.147-0.517-0.316-0.818-0.5
	C4.206,9.168,4.027,9.065,3.836,8.957C3.647,8.851,3.472,8.746,3.314,8.628C3.156,8.509,3.032,8.382,2.942,8.237
	C2.849,8.091,2.827,7.921,2.871,7.723c0.086-0.408,0.276-0.702,0.563-0.878c0.29-0.181,0.653-0.271,1.088-0.271
	c0.317,0,0.603,0.086,0.867,0.253c0.265,0.168,0.472,0.357,0.632,0.566l0.964-0.891C6.916,6.409,6.832,6.317,6.743,6.225
	c-0.119-0.15-0.226-0.286-0.318-0.423L6.421,5.804c-1.206-1.682-1.547-3.3,0.335-4.292C8.07,0.819,8.963,1.138,9.422,1.523
	c0,0.002,0.003,0.006,0.004,0.006c0.02,0.016,0.039,0.035,0.059,0.048C9.529,1.613,9.576,1.65,9.614,1.691
	c0.214,0.253,0.338,0.648,0.192,1.343l-0.03,0.15h0.004l-0.517,2.38H7.859l-0.222,1.03h1.385l-1.184,5.463
	c-0.157,0.722-0.117,1.258,0.115,1.613C8.188,14.024,8.685,14.2,9.452,14.2c0.329,0,0.675-0.058,1.042-0.176
	c0.364-0.111,0.701-0.241,1.01-0.381l-0.087-1.025C11.071,12.754,10.78,12.853,10.544,12.902"/>
</svg>
